{
.appVersion = "1357";
classes = (
{
automatic = 1;
code = "A Aacute Abreve Abreveacute Abrevedotbelow Abrevegrave Abrevehookabove Abrevetilde Acaron Acircumflex Acircumflexacute Acircumflexdotbelow Acircumflexgrave Acircumflexhookabove Acircumflextilde Adblgrave Adieresis Adotbelow Agrave Ahookabove Ainvertedbreve Amacron Aogonek Aring Aringacute Atilde AE AEacute B C Cacute Ccaron Ccedilla Ccircumflex Cdotaccent D DZcaron Eth Dcaron Dcroat Dzcaron E Eacute Ebreve Ecaron Ecircumflex Ecircumflexacute Ecircumflexdotbelow Ecircumflexgrave Ecircumflexhookabove Ecircumflextilde Edblgrave Edieresis Edotaccent Edotbelow Egrave Ehookabove Einvertedbreve Emacron Eogonek Etilde F G Gbreve Gcaron Gcircumflex Gcommaaccent Gdotaccent H Hbar Hcircumflex I Iacute Ibreve Icaron Icircumflex Idblgrave Idieresis Idotaccent Idotbelow Igrave Ihookabove Iinvertedbreve Imacron Iogonek Itilde J Jcircumflex K Kcommaaccent L LJ Lacute Lcaron Lcommaaccent Ldot Lj Lslash M N NJ Nacute Ncaron Ncommaaccent Eng Nj Ntilde O Oacute Obreve Ocaron Ocircumflex Ocircumflexacute Ocircumflexdotbelow Ocircumflexgrave Ocircumflexhookabove Ocircumflextilde Odblgrave Odieresis Odieresismacron Odotaccentmacron Odotbelow Ograve Ohookabove Ohorn Ohornacute Ohorndotbelow Ohorngrave Ohornhookabove Ohorntilde Ohungarumlaut Oinvertedbreve Omacron Oogonek Oslash Oslashacute Otilde Otildemacron OE P Thorn Q R Racute Rcaron Rcommaaccent Rdblgrave Rinvertedbreve S Sacute Scaron Scedilla Scircumflex Scommaaccent Germandbls Schwa T Tbar Tcaron Tcedilla Tcommaaccent U Uacute Ubreve Ucaron Ucircumflex Udblgrave Udieresis Udieresisacute Udieresiscaron Udieresisgrave Udieresismacron Udotbelow Ugrave Uhookabove Uhorn Uhornacute Uhorndotbelow Uhorngrave Uhornhookabove Uhorntilde Uhungarumlaut Uinvertedbreve Umacron Uogonek Uring Utilde V W Wacute Wcircumflex Wdieresis Wgrave X Y Yacute Ycircumflex Ydieresis Ydotbelow Ygrave Yhookabove Ymacron Ytilde Z Zacute Zcaron Zdotaccent";
name = Uppercase;
}
);

glyphs = (
{
glyphname = .notdef;
lastChange = "2021-11-26 10:43:32 +0000";
layers = (
{
background = {
paths = (
{
closed = 1;
nodes = (
"346 0 LINE",
"355 8 LINE",
"355 621 LINE",
"346 630 LINE",
"26 630 LINE",
"18 620 LINE",
"18 9 LINE",
"26 0 LINE"
);
},
{
closed = 1;
nodes = (
"54 9 LINE",
"355 621 LINE",
"319 621 LINE",
"18 9 LINE"
);
},
{
closed = 1;
nodes = (
"355 9 LINE",
"54 621 LINE",
"18 621 LINE",
"319 9 LINE"
);
},
{
closed = 1;
nodes = (
"92 541 LINE",
"281 541 LINE",
"281 88 LINE",
"92 88 LINE"
);
}
);
};
layerId = "DE28931B-8CFB-452E-AAB2-BC9BAE33C973";
paths = (
{
closed = 1;
nodes = (
"479 0 LINE",
"488 8 LINE",
"488 621 LINE",
"479 630 LINE",
"58 630 LINE",
"50 620 LINE",
"50 9 LINE",
"58 0 LINE"
);
},
{
closed = 1;
nodes = (
"154 150 LINE",
"244 316 LINE",
"154 479 LINE",
"173 514 LINE",
"263 350 LINE",
"354 514 LINE",
"373 479 LINE",
"283 314 LINE",
"373 150 LINE",
"354 116 LINE",
"263 279 LINE",
"173 116 LINE"
);
},
{
closed = 1;
nodes = (
"67 613 LINE",
"471 613 LINE",
"471 16 LINE",
"67 16 LINE"
);
},
{
closed = 1;
nodes = (
"437 49 LINE",
"437 577 LINE",
"102 577 LINE",
"102 49 LINE"
);
}
);
userData = {
assembly = "SVTCA[0]	/* SetFreedomAndProjectionVectorToAxis */\012PUSHW[ ]	/* 1 value pushed */\0122 \012MDAP[1]	/* MoveDirectAbsPt */\012PUSHW[ ]	/* 1 value pushed */\0120 \012RCVT[ ]	/* ReadCVT */\012IF[ ]	/* If */\012PUSHW[ ]	/* 1 value pushed */\0126 \012MDAP[1]	/* MoveDirectAbsPt */\012ELSE[ ]	/* Else */\012PUSHW[ ]	/* 2 values pushed */\0126 7 \012MIAP[0]	/* MoveIndirectAbsPt */\012EIF[ ]	/* EndIf */\012PUSHW[ ]	/* 3 values pushed */\01216 6 2 \012SRP1[ ]	/* SetRefPoint1 */\012SRP2[ ]	/* SetRefPoint2 */\012IP[ ]	/* InterpolatePts */\012PUSHW[ ]	/* 3 values pushed */\01217 6 2 \012SRP1[ ]	/* SetRefPoint1 */\012SRP2[ ]	/* SetRefPoint2 */\012IP[ ]	/* InterpolatePts */\012PUSHW[ ]	/* 3 values pushed */\01218 6 2 \012SRP1[ ]	/* SetRefPoint1 */\012SRP2[ ]	/* SetRefPoint2 */\012IP[ ]	/* InterpolatePts */\012PUSHW[ ]	/* 3 values pushed */\01222 6 2 \012SRP1[ ]	/* SetRefPoint1 */\012SRP2[ ]	/* SetRefPoint2 */\012IP[ ]	/* InterpolatePts */\012PUSHW[ ]	/* 3 values pushed */\01223 6 2 \012SRP1[ ]	/* SetRefPoint1 */\012SRP2[ ]	/* SetRefPoint2 */\012IP[ ]	/* InterpolatePts */\012PUSHW[ ]	/* 3 values pushed */\01224 6 2 \012SRP1[ ]	/* SetRefPoint1 */\012SRP2[ ]	/* SetRefPoint2 */\012IP[ ]	/* InterpolatePts */\012IUP[0]	/* InterpolateUntPts */\012IUP[1]	/* InterpolateUntPts */";
};
width = 538;
}
);
note = .notdef;
},
{
glyphname = A;
lastChange = "2021-11-30 13:29:00 +0000";
layers = (
{
anchors = (
{
name = bottom;
position = "{140, 0}";
},
{
name = ogonek;
position = "{307, 10}";
},
{
name = top;
position = "{247, 591}";
}
);
background = {
anchors = (
{
name = bottom;
position = "{132, 0}";
},
{
name = ogonek;
position = "{310, 0}";
},
{
name = top;
position = "{215, 591}";
}
);
paths = (
{
closed = 1;
nodes = (
"104 0 LINE",
"123 86 LINE",
"160 86 LINE",
"155 0 LINE",
"334 0 LINE",
"335 591 LINE",
"100 591 LINE",
"-69 0 LINE"
);
},
{
closed = 1;
nodes = (
"195 466 LINE",
"170 163 LINE",
"134 163 LINE"
);
}
);
};
layerId = "DE28931B-8CFB-452E-AAB2-BC9BAE33C973";
paths = (
{
closed = 1;
nodes = (
"136 0 LINE",
"154 86 LINE",
"191 86 LINE",
"187 0 LINE",
"366 0 LINE",
"366 591 LINE",
"131 591 LINE",
"-37 0 LINE"
);
},
{
closed = 1;
nodes = (
"115 301 LINE",
"189 549 LINE",
"240 547 LINE",
"298 549 LINE",
"294 299 LINE",
"282 47 LINE",
"277 47 LINE",
"280 123 LINE",
"178 124 LINE",
"75 123 LINE",
"72 112 OFFCURVE",
"69 101 OFFCURVE",
"67 92 CURVE SMOOTH",
"65 83 OFFCURVE",
"63 75 OFFCURVE",
"61 68 CURVE SMOOTH",
"55 47 LINE",
"51 47 LINE"
);
},
{
closed = 1;
nodes = (
"226 466 LINE",
"201 163 LINE",
"165 163 LINE"
);
},
{
closed = 1;
nodes = (
"279 127 LINE",
"282 299 LINE",
"293 545 LINE",
"240 546 LINE",
"192 545 LINE",
"126 300 LINE",
"76 127 LINE",
"178 125 LINE"
);
}
);
userData = {
assembly = "SVTCA[0]	/* SetFreedomAndProjectionVectorToAxis */\012PUSHW[ ]	/* 1 value pushed */\0120 \012RCVT[ ]	/* ReadCVT */\012IF[ ]	/* If */\012PUSHW[ ]	/* 1 value pushed */\0121 \012MDAP[1]	/* MoveDirectAbsPt */\012ELSE[ ]	/* Else */\012PUSHW[ ]	/* 2 values pushed */\0121 7 \012MIAP[0]	/* MoveIndirectAbsPt */\012EIF[ ]	/* EndIf */\012PUSHW[ ]	/* 1 value pushed */\0120 \012RCVT[ ]	/* ReadCVT */\012IF[ ]	/* If */\012PUSHW[ ]	/* 1 value pushed */\0125 \012MDAP[1]	/* MoveDirectAbsPt */\012ELSE[ ]	/* Else */\012PUSHW[ ]	/* 2 values pushed */\0125 7 \012MIAP[0]	/* MoveIndirectAbsPt */\012EIF[ ]	/* EndIf */\012PUSHW[ ]	/* 4 values pushed */\0129 2 3 4 \012CALL[ ]	/* CallFunction */\012PUSHW[ ]	/* 1 value pushed */\0125 \012SRP0[ ]	/* SetRefPoint0 */\012PUSHW[ ]	/* 2 values pushed */\0128 4 \012MIRP[10100]	/* MoveIndirectRelPt */\012PUSHW[ ]	/* 3 values pushed */\01219 5 8 \012SRP1[ ]	/* SetRefPoint1 */\012SRP2[ ]	/* SetRefPoint2 */\012IP[ ]	/* InterpolatePts */\012PUSHW[ ]	/* 3 values pushed */\01232 5 8 \012SRP1[ ]	/* SetRefPoint1 */\012SRP2[ ]	/* SetRefPoint2 */\012IP[ ]	/* InterpolatePts */\012IUP[0]	/* InterpolateUntPts */\012IUP[1]	/* InterpolateUntPts */";
};
width = 413;
}
);
leftKerningGroup = A;
note = A;
rightKerningGroup = A;
unicode = 0041;
},
{
glyphname = AE;
lastChange = "2021-11-30 13:20:41 +0000";
layers = (
{
anchors = (
{
name = bottom;
position = "{194, 0}";
},
{
name = top;
position = "{331, 591}";
}
);
background = {
anchors = (
{
name = bottom;
position = "{218, 0}";
},
{
name = top;
position = "{319, 591}";
}
);
paths = (
{
closed = 1;
nodes = (
"99 0 LINE",
"128 86 LINE",
"165 86 LINE",
"150 0 LINE",
"481 0 LINE",
"497 108 LINE",
"342 108 LINE",
"358 240 LINE",
"490 240 LINE",
"508 365 LINE",
"374 365 LINE",
"388 480 LINE",
"537 480 LINE",
"553 591 LINE",
"167 591 LINE",
"-74 0 LINE"
);
},
{
closed = 1;
nodes = (
"238 441 LINE",
"247 466 LINE",
"241 441 LINE",
"185 163 LINE",
"149 163 LINE"
);
}
);
};
layerId = "DE28931B-8CFB-452E-AAB2-BC9BAE33C973";
paths = (
{
closed = 1;
nodes = (
"136 0 LINE",
"154 86 LINE",
"191 86 LINE",
"187 0 LINE",
"474 0 LINE",
"489 108 LINE",
"365 108 LINE",
"365 240 LINE",
"497 240 LINE",
"515 365 LINE",
"365 365 LINE",
"365 480 LINE",
"541 480 LINE",
"557 591 LINE",
"131 591 LINE",
"-37 0 LINE"
);
},
{
closed = 1;
nodes = (
"226 466 LINE",
"201 163 LINE",
"165 163 LINE"
);
},
{
closed = 1;
nodes = (
"289 127 LINE",
"292 299 LINE",
"303 545 LINE",
"250 546 LINE",
"202 545 LINE",
"136 300 LINE",
"86 127 LINE",
"188 125 LINE"
);
},
{
closed = 1;
nodes = (
"125 301 LINE",
"199 549 LINE",
"250 547 LINE",
"308 549 LINE",
"508 545 LINE",
"508 544 LINE",
"307 544 LINE",
"304 301 LINE",
"473 297 LINE",
"473 296 LINE",
"303 296 LINE",
"292 52 LINE",
"438 48 LINE",
"438 47 LINE",
"287 47 LINE",
"290 123 LINE",
"188 124 LINE",
"85 123 LINE",
"82 112 OFFCURVE",
"79 101 OFFCURVE",
"77 92 CURVE SMOOTH",
"75 83 OFFCURVE",
"73 75 OFFCURVE",
"71 68 CURVE SMOOTH",
"65 47 LINE",
"61 47 LINE"
);
}
);
width = 535;
}
);
note = AE;
unicode = 00C6;
},
{
glyphname = B;
lastChange = "2021-11-30 13:29:00 +0000";
layers = (
{
background = {
paths = (
{
closed = 1;
nodes = (
"183 0 LINE SMOOTH",
"272 0 OFFCURVE",
"330 30 OFFCURVE",
"344 125 CURVE SMOOTH",
"354 202 LINE SMOOTH",
"361 248 OFFCURVE",
"349 279 OFFCURVE",
"328 297 CURVE SMOOTH",
"309 312 OFFCURVE",
"291 316 OFFCURVE",
"273 316 CURVE",
"274 318 LINE",
"297 320 OFFCURVE",
"318 330 OFFCURVE",
"334 343 CURVE SMOOTH",
"358 363 OFFCURVE",
"371 392 OFFCURVE",
"376 426 CURVE SMOOTH",
"385 490 LINE SMOOTH",
"393 549 OFFCURVE",
"362 591 OFFCURVE",
"280 591 CURVE SMOOTH",
"48 591 LINE",
"-35 0 LINE"
);
},
{
closed = 1;
nodes = (
"160 249 LINE",
"179 249 LINE SMOOTH",
"194 249 OFFCURVE",
"199 241 OFFCURVE",
"193 197 CURVE SMOOTH",
"184 134 LINE SMOOTH",
"178 92 OFFCURVE",
"169 81 OFFCURVE",
"156 81 CURVE SMOOTH",
"136 81 LINE"
);
},
{
closed = 1;
nodes = (
"196 507 LINE",
"214 507 LINE SMOOTH",
"229 507 OFFCURVE",
"234 496 OFFCURVE",
"229 461 CURVE SMOOTH",
"221 408 LINE SMOOTH",
"214 359 OFFCURVE",
"202 348 OFFCURVE",
"190 348 CURVE SMOOTH",
"174 348 LINE"
);
}
);
};
layerId = "DE28931B-8CFB-452E-AAB2-BC9BAE33C973";
paths = (
{
closed = 1;
nodes = (
"213 0 LINE SMOOTH",
"306 0 OFFCURVE",
"366 30 OFFCURVE",
"379 125 CURVE SMOOTH",
"390 202 LINE SMOOTH",
"391 211 OFFCURVE",
"392 219 OFFCURVE",
"392 226 CURVE SMOOTH",
"392 288 OFFCURVE",
"354 316 OFFCURVE",
"303 316 CURVE",
"303 318 LINE",
"367 325 OFFCURVE",
"399 370 OFFCURVE",
"406 426 CURVE SMOOTH",
"415 490 LINE SMOOTH",
"416 497 OFFCURVE",
"416 503 OFFCURVE",
"416 509 CURVE SMOOTH",
"416 559 OFFCURVE",
"383 591 OFFCURVE",
"305 591 CURVE SMOOTH",
"73 591 LINE",
"-10 0 LINE"
);
},
{
closed = 1;
nodes = (
"190 249 LINE",
"205 249 LINE SMOOTH",
"215 249 OFFCURVE",
"218 238 OFFCURVE",
"218 223 CURVE SMOOTH",
"218 206 OFFCURVE",
"214 184 OFFCURVE",
"212 165 CURVE SMOOTH",
"209 142 OFFCURVE",
"205 122 OFFCURVE",
"200 106 CURVE SMOOTH",
"195 89 OFFCURVE",
"189 81 OFFCURVE",
"182 81 CURVE SMOOTH",
"167 81 LINE"
);
},
{
closed = 1;
nodes = (
"110 305 LINE",
"149 547 LINE",
"153 547 LINE",
"120 305 LINE",
"82 45 LINE",
"79 45 LINE"
);
},
{
closed = 1;
nodes = (
"162 46 LINE",
"162 48 LINE",
"206 49 LINE SMOOTH",
"246 49 OFFCURVE",
"281 88 OFFCURVE",
"294 178 CURVE SMOOTH",
"297 204 LINE SMOOTH",
"299 217 OFFCURVE",
"300 228 OFFCURVE",
"300 239 CURVE SMOOTH",
"300 277 OFFCURVE",
"286 302 OFFCURVE",
"238 302 CURVE SMOOTH",
"198 302 LINE",
"198 304 LINE",
"238 304 LINE SMOOTH",
"285 304 OFFCURVE",
"308 362 OFFCURVE",
"319 438 CURVE SMOOTH",
"322 461 OFFCURVE",
"325 480 OFFCURVE",
"325 495 CURVE SMOOTH",
"325 531 OFFCURVE",
"311 545 OFFCURVE",
"262 545 CURVE SMOOTH",
"230 546 LINE",
"231 548 LINE",
"263 549 LINE SMOOTH",
"315 549 OFFCURVE",
"332 537 OFFCURVE",
"332 493 CURVE SMOOTH",
"332 478 OFFCURVE",
"330 460 OFFCURVE",
"327 438 CURVE SMOOTH",
"320 391 OFFCURVE",
"309 357 OFFCURVE",
"294 336 CURVE SMOOTH",
"278 315 OFFCURVE",
"263 304 OFFCURVE",
"248 304 CURVE SMOOTH",
"291 304 OFFCURVE",
"308 269 OFFCURVE",
"308 229 CURVE SMOOTH",
"308 221 OFFCURVE",
"307 212 OFFCURVE",
"306 204 CURVE SMOOTH",
"304 192 OFFCURVE",
"303 176 OFFCURVE",
"303 176 CURVE SMOOTH",
"303 176 OFFCURVE",
"303 177 OFFCURVE",
"303 178 CURVE",
"290 86 OFFCURVE",
"249 45 OFFCURVE",
"206 45 CURVE SMOOTH"
);
},
{
closed = 1;
nodes = (
"227 507 LINE",
"242 507 LINE SMOOTH",
"250 507 OFFCURVE",
"254 501 OFFCURVE",
"254 488 CURVE SMOOTH",
"254 487 OFFCURVE",
"254 486 OFFCURVE",
"254 484 CURVE SMOOTH",
"253 469 OFFCURVE",
"252 450 OFFCURVE",
"249 427 CURVE SMOOTH",
"246 405 OFFCURVE",
"241 386 OFFCURVE",
"236 371 CURVE SMOOTH",
"230 356 OFFCURVE",
"223 348 OFFCURVE",
"216 348 CURVE SMOOTH",
"204 348 LINE"
);
}
);
userData = {
assembly = "SVTCA[0]	/* SetFreedomAndProjectionVectorToAxis */\012PUSHW[ ]	/* 1 value pushed */\0120 \012RCVT[ ]	/* ReadCVT */\012IF[ ]	/* If */\012PUSHW[ ]	/* 1 value pushed */\01277 \012MDAP[1]	/* MoveDirectAbsPt */\012ELSE[ ]	/* Else */\012PUSHW[ ]	/* 2 values pushed */\01277 7 \012MIAP[0]	/* MoveIndirectAbsPt */\012EIF[ ]	/* EndIf */\012PUSHW[ ]	/* 4 values pushed */\01290 3 88 4 \012CALL[ ]	/* CallFunction */\012PUSHW[ ]	/* 3 values pushed */\01222 88 90 \012SRP1[ ]	/* SetRefPoint1 */\012SRP2[ ]	/* SetRefPoint2 */\012IP[ ]	/* InterpolatePts */\012PUSHW[ ]	/* 3 values pushed */\01243 88 90 \012SRP1[ ]	/* SetRefPoint1 */\012SRP2[ ]	/* SetRefPoint2 */\012IP[ ]	/* InterpolatePts */\012PUSHW[ ]	/* 3 values pushed */\01270 88 90 \012SRP1[ ]	/* SetRefPoint1 */\012SRP2[ ]	/* SetRefPoint2 */\012IP[ ]	/* InterpolatePts */\012PUSHW[ ]	/* 1 value pushed */\01277 \012SRP0[ ]	/* SetRefPoint0 */\012PUSHW[ ]	/* 2 values pushed */\01279 2 \012MIRP[10100]	/* MoveIndirectRelPt */\012IUP[0]	/* InterpolateUntPts */\012IUP[1]	/* InterpolateUntPts */";
};
width = 411;
}
);
leftKerningGroup = H;
leftMetricsKey = H;
note = B;
rightKerningGroup = B;
rightMetricsKey = "=O-5";
unicode = 0042;
},
{
glyphname = C;
lastChange = "2021-11-30 13:29:00 +0000";
layers = (
{
anchors = (
{
name = bottom;
position = "{175, 0}";
},
{
name = top;
position = "{246, 591}";
}
);
background = {
anchors = (
{
name = bottom;
position = "{135, 0}";
},
{
name = top;
position = "{218, 591}";
}
);
paths = (
{
closed = 1;
nodes = (
"247 -12 OFFCURVE",
"317 14 OFFCURVE",
"339 174 CURVE SMOOTH",
"350 248 LINE",
"191 248 LINE",
"171 110 LINE SMOOTH",
"168 87 OFFCURVE",
"160 80 OFFCURVE",
"151 80 CURVE SMOOTH",
"141 80 OFFCURVE",
"136 87 OFFCURVE",
"139 110 CURVE SMOOTH",
"190 473 LINE SMOOTH",
"193 496 OFFCURVE",
"200 503 OFFCURVE",
"210 503 CURVE SMOOTH",
"219 503 OFFCURVE",
"225 496 OFFCURVE",
"222 473 CURVE SMOOTH",
"202 327 LINE",
"361 327 LINE",
"380 465 LINE SMOOTH",
"394 564 OFFCURVE",
"333 600 OFFCURVE",
"224 600 CURVE SMOOTH",
"115 600 OFFCURVE",
"37 564 OFFCURVE",
"23 465 CURVE SMOOTH",
"-18 173 LINE SMOOTH",
"-40 14 OFFCURVE",
"29 -12 OFFCURVE",
"138 -12 CURVE SMOOTH"
);
}
);
};
layerId = "DE28931B-8CFB-452E-AAB2-BC9BAE33C973";
paths = (
{
closed = 1;
nodes = (
"286 -12 OFFCURVE",
"347 24 OFFCURVE",
"367 174 CURVE SMOOTH",
"377 248 LINE",
"218 248 LINE",
"199 110 LINE SMOOTH",
"197 99 OFFCURVE",
"194 91 OFFCURVE",
"191 87 CURVE SMOOTH",
"187 82 OFFCURVE",
"183 80 OFFCURVE",
"178 80 CURVE SMOOTH",
"173 80 OFFCURVE",
"169 82 OFFCURVE",
"167 87 CURVE SMOOTH",
"166 89 OFFCURVE",
"166 92 OFFCURVE",
"166 96 CURVE SMOOTH",
"166 100 OFFCURVE",
"166 105 OFFCURVE",
"167 110 CURVE SMOOTH",
"218 473 LINE SMOOTH",
"221 496 OFFCURVE",
"227 503 OFFCURVE",
"238 503 CURVE SMOOTH",
"243 503 OFFCURVE",
"246 501 OFFCURVE",
"249 497 CURVE SMOOTH",
"250 494 OFFCURVE",
"251 490 OFFCURVE",
"251 484 CURVE SMOOTH",
"251 481 OFFCURVE",
"251 477 OFFCURVE",
"250 473 CURVE SMOOTH",
"229 327 LINE",
"388 327 LINE",
"408 465 LINE SMOOTH",
"409 474 OFFCURVE",
"410 483 OFFCURVE",
"410 492 CURVE SMOOTH",
"410 571 OFFCURVE",
"351 600 OFFCURVE",
"252 600 CURVE SMOOTH",
"143 600 OFFCURVE",
"65 564 OFFCURVE",
"51 465 CURVE SMOOTH",
"10 173 LINE SMOOTH",
"7 153 OFFCURVE",
"6 134 OFFCURVE",
"6 118 CURVE SMOOTH",
"6 16 OFFCURVE",
"62 -12 OFFCURVE",
"166 -12 CURVE SMOOTH"
);
},
{
closed = 1;
nodes = (
"156 44 OFFCURVE",
"141 44 OFFCURVE",
"130 48 CURVE SMOOTH",
"102 57 OFFCURVE",
"91 77 OFFCURVE",
"91 119 CURVE SMOOTH",
"91 130 OFFCURVE",
"92 142 OFFCURVE",
"93 156 CURVE SMOOTH",
"108 294 LINE",
"137 466 LINE SMOOTH",
"144 509 OFFCURVE",
"162 536 OFFCURVE",
"205 545 CURVE SMOOTH",
"214 548 OFFCURVE",
"229 548 OFFCURVE",
"244 548 CURVE SMOOTH",
"265 548 LINE SMOOTH",
"272 548 OFFCURVE",
"277 547 OFFCURVE",
"281 546 CURVE SMOOTH",
"316 537 OFFCURVE",
"332 517 OFFCURVE",
"332 488 CURVE SMOOTH",
"332 483 OFFCURVE",
"332 478 OFFCURVE",
"331 473 CURVE SMOOTH",
"315 378 LINE",
"313 378 LINE",
"326 473 LINE SMOOTH",
"327 478 OFFCURVE",
"327 482 OFFCURVE",
"327 487 CURVE SMOOTH",
"327 514 OFFCURVE",
"313 534 OFFCURVE",
"279 542 CURVE SMOOTH",
"270 545 OFFCURVE",
"259 546 OFFCURVE",
"244 546 CURVE SMOOTH",
"231 546 OFFCURVE",
"217 544 OFFCURVE",
"204 541 CURVE SMOOTH",
"164 532 OFFCURVE",
"146 506 OFFCURVE",
"141 466 CURVE SMOOTH",
"121 294 LINE",
"97 156 LINE SMOOTH",
"95 141 OFFCURVE",
"93 129 OFFCURVE",
"93 118 CURVE SMOOTH",
"93 80 OFFCURVE",
"107 61 OFFCURVE",
"132 52 CURVE SMOOTH",
"144 48 OFFCURVE",
"158 46 OFFCURVE",
"174 46 CURVE SMOOTH",
"189 46 OFFCURVE",
"203 48 OFFCURVE",
"214 52 CURVE SMOOTH",
"256 65 OFFCURVE",
"271 91 OFFCURVE",
"282 156 CURVE SMOOTH",
"292 216 LINE",
"294 216 LINE",
"287 156 LINE SMOOTH",
"279 87 OFFCURVE",
"258 61 OFFCURVE",
"216 48 CURVE SMOOTH",
"203 44 OFFCURVE",
"189 44 OFFCURVE",
"173 44 CURVE SMOOTH"
);
}
);
userData = {
assembly = "PUSHW[ ]	/* 4 values pushed */\01265 5 70 4 \012CALL[ ]	/* CallFunction */\012PUSHW[ ]	/* 4 values pushed */\01260 5 10 4 \012CALL[ ]	/* CallFunction */\012PUSHW[ ]	/* 3 values pushed */\01231 10 60 \012SRP1[ ]	/* SetRefPoint1 */\012SRP2[ ]	/* SetRefPoint2 */\012IP[ ]	/* InterpolatePts */\012PUSHW[ ]	/* 3 values pushed */\01237 10 60 \012SRP1[ ]	/* SetRefPoint1 */\012SRP2[ ]	/* SetRefPoint2 */\012IP[ ]	/* InterpolatePts */\012PUSHW[ ]	/* 1 value pushed */\01237 \012MDAP[1]	/* MoveDirectAbsPt */\012PUSHW[ ]	/* 2 values pushed */\01259 5 \012MIRP[10100]	/* MoveIndirectRelPt */\012PUSHW[ ]	/* 1 value pushed */\01237 \012SRP0[ ]	/* SetRefPoint0 */\012PUSHW[ ]	/* 1 value pushed */\01286 \012MDRP[10000]	/* MoveDirectRelPt */\012PUSHW[ ]	/* 1 value pushed */\01286 \012MDAP[1]	/* MoveDirectAbsPt */\012PUSHW[ ]	/* 1 value pushed */\01265 \012SRP0[ ]	/* SetRefPoint0 */\012PUSHW[ ]	/* 1 value pushed */\01287 \012MDRP[10000]	/* MoveDirectRelPt */\012PUSHW[ ]	/* 1 value pushed */\01287 \012MDAP[1]	/* MoveDirectAbsPt */\012PUSHW[ ]	/* 1 value pushed */\01210 \012SRP0[ ]	/* SetRefPoint0 */\012PUSHW[ ]	/* 1 value pushed */\01293 \012MDRP[10000]	/* MoveDirectRelPt */\012PUSHW[ ]	/* 1 value pushed */\01293 \012MDAP[1]	/* MoveDirectAbsPt */\012PUSHW[ ]	/* 1 value pushed */\01259 \012SRP0[ ]	/* SetRefPoint0 */\012PUSHW[ ]	/* 1 value pushed */\01296 \012MDRP[11100]	/* MoveDirectRelPt */\012IUP[0]	/* InterpolateUntPts */\012IUP[1]	/* InterpolateUntPts */";
};
width = 395;
}
);
leftKerningGroup = O;
leftMetricsKey = O;
note = C;
rightKerningGroup = C;
unicode = 0043;
},
{
glyphname = D;
lastChange = "2021-11-26 10:44:26 +0000";
layers = (
{
anchors = (
{
name = bottom;
position = "{149, 0}";
},
{
name = center;
position = "{183, 296}";
},
{
name = top;
position = "{249, 591}";
}
);
background = {
anchors = (
{
name = bottom;
position = "{141, 0}";
},
{
name = center;
position = "{183, 296}";
},
{
name = top;
position = "{224, 591}";
}
);
paths = (
{
closed = 1;
nodes = (
"173 0 LINE SMOOTH",
"266 0 OFFCURVE",
"327 30 OFFCURVE",
"340 125 CURVE SMOOTH",
"391 490 LINE SMOOTH",
"400 549 OFFCURVE",
"369 591 OFFCURVE",
"281 591 CURVE SMOOTH",
"49 591 LINE",
"-35 0 LINE"
);
},
{
closed = 1;
nodes = (
"202 503 LINE",
"217 503 LINE SMOOTH",
"227 503 OFFCURVE",
"233 496 OFFCURVE",
"230 473 CURVE SMOOTH",
"179 110 LINE SMOOTH",
"176 87 OFFCURVE",
"168 80 OFFCURVE",
"158 80 CURVE SMOOTH",
"143 80 LINE"
);
}
);
};
layerId = "DE28931B-8CFB-452E-AAB2-BC9BAE33C973";
paths = (
{
closed = 1;
nodes = (
"198 0 LINE SMOOTH",
"291 0 OFFCURVE",
"351 30 OFFCURVE",
"364 125 CURVE SMOOTH",
"415 490 LINE SMOOTH",
"416 496 OFFCURVE",
"416 502 OFFCURVE",
"416 508 CURVE SMOOTH",
"416 558 OFFCURVE",
"384 591 OFFCURVE",
"305 591 CURVE SMOOTH",
"73 591 LINE",
"-10 0 LINE"
);
},
{
closed = 1;
nodes = (
"106 298 LINE",
"145 549 LINE",
"149 549 LINE",
"116 298 LINE",
"78 47 LINE",
"74 47 LINE"
);
},
{
closed = 1;
nodes = (
"226 503 LINE",
"241 503 LINE SMOOTH",
"246 503 OFFCURVE",
"250 501 OFFCURVE",
"253 497 CURVE SMOOTH",
"254 494 OFFCURVE",
"255 490 OFFCURVE",
"255 484 CURVE SMOOTH",
"255 481 OFFCURVE",
"255 477 OFFCURVE",
"254 473 CURVE SMOOTH",
"203 110 LINE SMOOTH",
"200 87 OFFCURVE",
"193 80 OFFCURVE",
"182 80 CURVE SMOOTH",
"167 80 LINE"
);
},
{
closed = 1;
nodes = (
"170 45 OFFCURVE",
"166 45 OFFCURVE",
"162 46 CURVE",
"162 48 LINE",
"175 48 LINE SMOOTH",
"179 48 OFFCURVE",
"183 49 OFFCURVE",
"189 49 CURVE SMOOTH",
"205 49 LINE SMOOTH",
"245 49 OFFCURVE",
"272 71 OFFCURVE",
"277 114 CURVE SMOOTH",
"300 301 LINE",
"330 493 LINE SMOOTH",
"336 532 OFFCURVE",
"310 544 OFFCURVE",
"269 545 CURVE SMOOTH",
"235 546 LINE",
"236 548 LINE",
"270 549 LINE SMOOTH",
"313 550 OFFCURVE",
"339 535 OFFCURVE",
"334 493 CURVE SMOOTH",
"310 300 LINE",
"281 114 LINE SMOOTH",
"274 70 OFFCURVE",
"248 45 OFFCURVE",
"205 45 CURVE SMOOTH",
"175 45 LINE SMOOTH"
);
}
);
userData = {
assembly = "SVTCA[0]	/* SetFreedomAndProjectionVectorToAxis */\012PUSHW[ ]	/* 1 value pushed */\0120 \012RCVT[ ]	/* ReadCVT */\012IF[ ]	/* If */\012PUSHW[ ]	/* 1 value pushed */\01241 \012MDAP[1]	/* MoveDirectAbsPt */\012ELSE[ ]	/* Else */\012PUSHW[ ]	/* 2 values pushed */\01241 7 \012MIAP[0]	/* MoveIndirectAbsPt */\012EIF[ ]	/* EndIf */\012PUSHW[ ]	/* 2 values pushed */\01248 2 \012MIRP[10100]	/* MoveIndirectRelPt */\012PUSHW[ ]	/* 3 values pushed */\0123 41 48 \012SRP1[ ]	/* SetRefPoint1 */\012SRP2[ ]	/* SetRefPoint2 */\012IP[ ]	/* InterpolatePts */\012PUSHW[ ]	/* 3 values pushed */\01220 41 48 \012SRP1[ ]	/* SetRefPoint1 */\012SRP2[ ]	/* SetRefPoint2 */\012IP[ ]	/* InterpolatePts */\012IUP[0]	/* InterpolateUntPts */\012IUP[1]	/* InterpolateUntPts */";
};
width = 401;
}
);
leftMetricsKey = H;
note = D;
rightMetricsKey = O;
unicode = 0044;
},
{
glyphname = Eth;
lastChange = "2021-11-30 13:20:41 +0000";
layers = (
{
background = {
paths = (
{
closed = 1;
nodes = (
"218 0 LINE SMOOTH",
"311 0 OFFCURVE",
"372 30 OFFCURVE",
"385 125 CURVE SMOOTH",
"436 490 LINE SMOOTH",
"445 549 OFFCURVE",
"414 591 OFFCURVE",
"326 591 CURVE SMOOTH",
"72 591 LINE",
"-12 0 LINE"
);
},
{
closed = 1;
nodes = (
"212 246 LINE",
"225 335 LINE",
"-4 335 LINE",
"-17 246 LINE"
);
},
{
closed = 1;
nodes = (
"225 503 LINE",
"250 503 LINE SMOOTH",
"272 503 OFFCURVE",
"278 496 OFFCURVE",
"275 473 CURVE SMOOTH",
"224 110 LINE SMOOTH",
"221 87 OFFCURVE",
"213 80 OFFCURVE",
"191 80 CURVE SMOOTH",
"166 80 LINE"
);
}
);
};
layerId = "DE28931B-8CFB-452E-AAB2-BC9BAE33C973";
paths = (
{
closed = 1;
nodes = (
"223 0 LINE SMOOTH",
"375 0 OFFCURVE",
"392 61 OFFCURVE",
"416 226 CURVE SMOOTH",
"439 389 LINE SMOOTH",
"445 434 OFFCURVE",
"450 470 OFFCURVE",
"450 498 CURVE SMOOTH",
"450 567 OFFCURVE",
"422 591 OFFCURVE",
"314 591 CURVE SMOOTH",
"88 591 LINE",
"43 271 LINE",
"7 271 LINE",
"-6 180 LINE",
"30 180 LINE",
"5 0 LINE"
);
},
{
closed = 1;
nodes = (
"130 298 LINE",
"169 549 LINE",
"173 549 LINE",
"140 298 LINE",
"102 47 LINE",
"98 47 LINE"
);
},
{
closed = 1;
nodes = (
"198 180 LINE",
"218 180 LINE",
"231 271 LINE",
"211 271 LINE",
"244 508 LINE",
"267 508 LINE SMOOTH",
"282 508 OFFCURVE",
"292 501 OFFCURVE",
"289 478 CURVE SMOOTH",
"282 432 OFFCURVE",
"265 317 OFFCURVE",
"262 297 CURVE SMOOTH",
"236 112 LINE SMOOTH",
"233 88 OFFCURVE",
"222 81 OFFCURVE",
"207 81 CURVE SMOOTH",
"184 81 LINE"
);
},
{
closed = 1;
nodes = (
"208 45 OFFCURVE",
"204 45 OFFCURVE",
"200 46 CURVE",
"200 48 LINE",
"213 48 LINE SMOOTH",
"217 48 OFFCURVE",
"222 48 OFFCURVE",
"227 49 CURVE SMOOTH",
"243 49 LINE SMOOTH",
"283 49 OFFCURVE",
"308 71 OFFCURVE",
"315 114 CURVE SMOOTH",
"338 301 LINE",
"368 493 LINE SMOOTH",
"373 532 OFFCURVE",
"348 545 OFFCURVE",
"307 545 CURVE SMOOTH",
"273 546 LINE",
"274 548 LINE",
"308 549 LINE SMOOTH",
"347 549 OFFCURVE",
"373 537 OFFCURVE",
"373 505 CURVE SMOOTH",
"373 501 OFFCURVE",
"373 497 OFFCURVE",
"372 493 CURVE SMOOTH",
"348 300 LINE",
"319 114 LINE SMOOTH",
"312 70 OFFCURVE",
"286 45 OFFCURVE",
"243 45 CURVE SMOOTH",
"213 45 LINE SMOOTH"
);
}
);
userData = {
assembly = "SVTCA[0]	/* SetFreedomAndProjectionVectorToAxis */\012PUSHW[ ]	/* 1 value pushed */\0120 \012RCVT[ ]	/* ReadCVT */\012IF[ ]	/* If */\012PUSHW[ ]	/* 1 value pushed */\01213 \012MDAP[1]	/* MoveDirectAbsPt */\012ELSE[ ]	/* Else */\012PUSHW[ ]	/* 2 values pushed */\01213 7 \012MIAP[0]	/* MoveIndirectAbsPt */\012EIF[ ]	/* EndIf */\012PUSHW[ ]	/* 2 values pushed */\01232 2 \012MIRP[10100]	/* MoveIndirectRelPt */\012PUSHW[ ]	/* 3 values pushed */\01240 13 32 \012SRP1[ ]	/* SetRefPoint1 */\012SRP2[ ]	/* SetRefPoint2 */\012IP[ ]	/* InterpolatePts */\012PUSHW[ ]	/* 3 values pushed */\01257 13 32 \012SRP1[ ]	/* SetRefPoint1 */\012SRP2[ ]	/* SetRefPoint2 */\012IP[ ]	/* InterpolatePts */\012IUP[0]	/* InterpolateUntPts */\012IUP[1]	/* InterpolateUntPts */";
};
width = 451;
}
);
note = Eth;
rightKerningGroup = parenright;
unicode = 00D0;
},
{
glyphname = E;
lastChange = "2021-11-30 13:29:00 +0000";
layers = (
{
anchors = (
{
name = bottom;
position = "{136, 0}";
},
{
name = ogonek;
position = "{272, 0}";
},
{
name = top;
position = "{214, 591}";
},
{
name = topleft;
position = "{43, 591}";
}
);
background = {
anchors = (
{
name = bottom;
position = "{105, 0}";
},
{
name = ogonek;
position = "{238, 10}";
},
{
name = top;
position = "{189, 591}";
},
{
name = topleft;
position = "{43, 591}";
}
);
paths = (
{
closed = 1;
nodes = (
"251 0 LINE",
"267 108 LINE",
"147 108 LINE",
"165 240 LINE",
"275 240 LINE",
"293 365 LINE",
"183 365 LINE",
"199 480 LINE",
"319 480 LINE",
"335 591 LINE",
"49 591 LINE",
"-35 0 LINE"
);
}
);
};
layerId = "DE28931B-8CFB-452E-AAB2-BC9BAE33C973";
paths = (
{
closed = 1;
nodes = (
"276 0 LINE",
"291 108 LINE",
"171 108 LINE",
"189 240 LINE",
"299 240 LINE",
"317 365 LINE",
"207 365 LINE",
"223 480 LINE",
"343 480 LINE",
"359 591 LINE",
"73 591 LINE",
"-10 0 LINE"
);
},
{
closed = 1;
nodes = (
"108 300 LINE",
"145 536 LINE",
"310 535 LINE",
"309 533 LINE",
"149 532 LINE",
"121 302 LINE",
"252 301 LINE",
"252 299 LINE",
"120 298 LINE",
"83 59 LINE",
"243 58 LINE",
"242 56 LINE",
"77 55 LINE"
);
}
);
userData = {
assembly = "SVTCA[0]	/* SetFreedomAndProjectionVectorToAxis */\012PUSHW[ ]	/* 1 value pushed */\0120 \012RCVT[ ]	/* ReadCVT */\012IF[ ]	/* If */\012PUSHW[ ]	/* 1 value pushed */\01223 \012MDAP[1]	/* MoveDirectAbsPt */\012ELSE[ ]	/* Else */\012PUSHW[ ]	/* 2 values pushed */\01223 7 \012MIAP[0]	/* MoveIndirectAbsPt */\012EIF[ ]	/* EndIf */\012PUSHW[ ]	/* 2 values pushed */\01221 4 \012MIRP[10100]	/* MoveIndirectRelPt */\012PUSHW[ ]	/* 3 values pushed */\0125 23 21 \012SRP1[ ]	/* SetRefPoint1 */\012SRP2[ ]	/* SetRefPoint2 */\012IP[ ]	/* InterpolatePts */\012IUP[0]	/* InterpolateUntPts */\012IUP[1]	/* InterpolateUntPts */";
};
width = 328;
}
);
leftKerningGroup = H;
leftMetricsKey = H;
note = E;
rightKerningGroup = E;
unicode = 0045;
},
{
glyphname = F;
lastChange = "2021-11-30 13:29:00 +0000";
layers = (
{
background = {
paths = (
{
closed = 1;
nodes = (
"131 0 LINE",
"165 240 LINE",
"275 240 LINE",
"293 365 LINE",
"183 365 LINE",
"199 480 LINE",
"319 480 LINE",
"335 591 LINE",
"49 591 LINE",
"-35 0 LINE"
);
}
);
};
layerId = "DE28931B-8CFB-452E-AAB2-BC9BAE33C973";
paths = (
{
closed = 1;
nodes = (
"156 0 LINE",
"189 240 LINE",
"299 240 LINE",
"317 365 LINE",
"207 365 LINE",
"223 480 LINE",
"343 480 LINE",
"359 591 LINE",
"73 591 LINE",
"-10 0 LINE"
);
},
{
closed = 1;
nodes = (
"108 300 LINE",
"145 536 LINE",
"310 535 LINE",
"309 533 LINE",
"149 532 LINE",
"121 302 LINE",
"252 301 LINE",
"252 299 LINE",
"120 298 LINE",
"82 55 LINE",
"77 55 LINE"
);
}
);
userData = {
assembly = "SVTCA[0]	/* SetFreedomAndProjectionVectorToAxis */\012PUSHW[ ]	/* 1 value pushed */\0120 \012RCVT[ ]	/* ReadCVT */\012IF[ ]	/* If */\012PUSHW[ ]	/* 1 value pushed */\0128 \012MDAP[1]	/* MoveDirectAbsPt */\012ELSE[ ]	/* Else */\012PUSHW[ ]	/* 2 values pushed */\0128 7 \012MIAP[0]	/* MoveIndirectAbsPt */\012EIF[ ]	/* EndIf */\012IUP[0]	/* InterpolateUntPts */\012IUP[1]	/* InterpolateUntPts */";
};
width = 326;
}
);
leftKerningGroup = H;
leftMetricsKey = H;
note = F;
rightKerningGroup = F;
unicode = 0046;
},
{
glyphname = G;
lastChange = "2021-11-30 13:29:00 +0000";
layers = (
{
anchors = (
{
name = bottom;
position = "{170, 0}";
},
{
name = top;
position = "{246, 591}";
}
);
background = {
anchors = (
{
name = bottom;
position = "{134, 0}";
},
{
name = top;
position = "{217, 591}";
}
);
paths = (
{
closed = 1;
nodes = (
"145 -10 OFFCURVE",
"177 18 OFFCURVE",
"190 38 CURVE",
"190 38 OFFCURVE",
"190 38 OFFCURVE",
"190 38 CURVE",
"193 0 LINE",
"313 0 LINE",
"356 311 LINE",
"177 311 LINE",
"165 222 LINE",
"190 222 LINE",
"174 110 LINE SMOOTH",
"171 87 OFFCURVE",
"161 80 OFFCURVE",
"148 80 CURVE SMOOTH",
"135 80 OFFCURVE",
"127 87 OFFCURVE",
"130 110 CURVE SMOOTH",
"181 473 LINE SMOOTH",
"184 496 OFFCURVE",
"194 503 OFFCURVE",
"207 503 CURVE SMOOTH",
"220 503 OFFCURVE",
"228 496 OFFCURVE",
"225 473 CURVE SMOOTH",
"211 373 LINE",
"365 373 LINE",
"378 463 LINE SMOOTH",
"392 562 OFFCURVE",
"322 598 OFFCURVE",
"216 598 CURVE SMOOTH",
"110 598 OFFCURVE",
"35 562 OFFCURVE",
"21 463 CURVE SMOOTH",
"-23 151 LINE SMOOTH",
"-42 14 OFFCURVE",
"21 -10 OFFCURVE",
"83 -10 CURVE SMOOTH"
);
}
);
};
layerId = "DE28931B-8CFB-452E-AAB2-BC9BAE33C973";
paths = (
{
closed = 1;
nodes = (
"170 -10 OFFCURVE",
"200 31 OFFCURVE",
"217 62 CURVE",
"222 0 LINE",
"342 0 LINE",
"386 311 LINE",
"207 311 LINE",
"194 222 LINE",
"219 222 LINE",
"203 110 LINE SMOOTH",
"200 87 OFFCURVE",
"190 80 OFFCURVE",
"177 80 CURVE SMOOTH",
"166 80 OFFCURVE",
"158 85 OFFCURVE",
"158 101 CURVE SMOOTH",
"158 104 OFFCURVE",
"159 107 OFFCURVE",
"159 110 CURVE SMOOTH",
"210 473 LINE SMOOTH",
"213 496 OFFCURVE",
"224 503 OFFCURVE",
"237 503 CURVE SMOOTH",
"248 503 OFFCURVE",
"255 498 OFFCURVE",
"255 483 CURVE SMOOTH",
"255 480 OFFCURVE",
"254 477 OFFCURVE",
"254 473 CURVE SMOOTH",
"240 373 LINE",
"394 373 LINE",
"407 463 LINE SMOOTH",
"408 472 OFFCURVE",
"409 480 OFFCURVE",
"409 488 CURVE SMOOTH",
"409 568 OFFCURVE",
"344 598 OFFCURVE",
"245 598 CURVE SMOOTH",
"140 598 OFFCURVE",
"64 563 OFFCURVE",
"50 463 CURVE SMOOTH",
"6 151 LINE SMOOTH",
"4 134 OFFCURVE",
"2 119 OFFCURVE",
"2 105 CURVE SMOOTH",
"2 20 OFFCURVE",
"46 -10 OFFCURVE",
"113 -10 CURVE SMOOTH"
);
},
{
closed = 1;
nodes = (
"306 264 LINE",
"270 264 LINE",
"241 265 LINE",
"241 267 LINE",
"316 268 LINE",
"282 47 LINE",
"278 47 LINE"
);
},
{
closed = 1;
nodes = (
"101 41 OFFCURVE",
"90 70 OFFCURVE",
"90 109 CURVE SMOOTH",
"90 117 OFFCURVE",
"90 126 OFFCURVE",
"91 135 CURVE SMOOTH",
"107 293 LINE",
"136 466 LINE SMOOTH",
"145 519 OFFCURVE",
"172 549 OFFCURVE",
"244 549 CURVE SMOOTH",
"306 549 OFFCURVE",
"326 527 OFFCURVE",
"326 491 CURVE SMOOTH",
"326 486 OFFCURVE",
"326 480 OFFCURVE",
"325 473 CURVE SMOOTH",
"315 409 LINE",
"313 409 LINE",
"321 473 LINE SMOOTH",
"322 479 OFFCURVE",
"322 484 OFFCURVE",
"322 489 CURVE SMOOTH",
"322 524 OFFCURVE",
"303 545 OFFCURVE",
"244 545 CURVE SMOOTH",
"175 545 OFFCURVE",
"146 517 OFFCURVE",
"140 466 CURVE SMOOTH",
"119 293 LINE",
"95 138 LINE SMOOTH",
"93 126 OFFCURVE",
"92 116 OFFCURVE",
"92 106 CURVE SMOOTH",
"92 68 OFFCURVE",
"106 44 OFFCURVE",
"142 47 CURVE",
"141 45 LINE"
);
}
);
userData = {
assembly = "SVTCA[0]	/* SetFreedomAndProjectionVectorToAxis */\012PUSHW[ ]	/* 1 value pushed */\0120 \012RCVT[ ]	/* ReadCVT */\012IF[ ]	/* If */\012PUSHW[ ]	/* 1 value pushed */\0129 \012MDAP[1]	/* MoveDirectAbsPt */\012ELSE[ ]	/* Else */\012PUSHW[ ]	/* 2 values pushed */\0129 7 \012MIAP[0]	/* MoveIndirectAbsPt */\012EIF[ ]	/* EndIf */\012PUSHW[ ]	/* 4 values pushed */\01245 1 16 4 \012CALL[ ]	/* CallFunction */\012PUSHW[ ]	/* 3 values pushed */\0125 16 45 \012SRP1[ ]	/* SetRefPoint1 */\012SRP2[ ]	/* SetRefPoint2 */\012IP[ ]	/* InterpolatePts */\012PUSHW[ ]	/* 3 values pushed */\01211 16 45 \012SRP1[ ]	/* SetRefPoint1 */\012SRP2[ ]	/* SetRefPoint2 */\012IP[ ]	/* InterpolatePts */\012PUSHW[ ]	/* 3 values pushed */\01252 16 45 \012SRP1[ ]	/* SetRefPoint1 */\012SRP2[ ]	/* SetRefPoint2 */\012IP[ ]	/* InterpolatePts */\012IUP[0]	/* InterpolateUntPts */\012IUP[1]	/* InterpolateUntPts */";
};
width = 395;
}
);
leftKerningGroup = O;
leftMetricsKey = O;
note = G;
rightKerningGroup = G;
unicode = 0047;
},
{
glyphname = H;
lastChange = "2021-11-30 13:29:00 +0000";
layers = (
{
anchors = (
{
name = bottom;
position = "{142, 0}";
},
{
name = center;
position = "{184, 296}";
},
{
name = top;
position = "{250, 591}";
},
{
name = topleft;
position = "{43, 591}";
}
);
background = {
anchors = (
{
name = bottom;
position = "{143, 0}";
},
{
name = center;
position = "{185, 296}";
},
{
name = top;
position = "{226, 591}";
},
{
name = topleft;
position = "{43, 591}";
}
);
paths = (
{
closed = 1;
nodes = (
"124 0 LINE",
"159 245 LINE",
"195 245 LINE",
"160 0 LINE",
"319 0 LINE",
"403 591 LINE",
"244 591 LINE",
"211 362 LINE",
"175 362 LINE",
"208 591 LINE",
"49 591 LINE",
"-35 0 LINE"
);
}
);
};
layerId = "DE28931B-8CFB-452E-AAB2-BC9BAE33C973";
paths = (
{
closed = 1;
nodes = (
"149 0 LINE",
"183 245 LINE",
"219 245 LINE",
"185 0 LINE",
"344 0 LINE",
"427 591 LINE",
"268 591 LINE",
"235 362 LINE",
"199 362 LINE",
"232 591 LINE",
"73 591 LINE",
"-10 0 LINE"
);
},
{
closed = 1;
nodes = (
"103 300 LINE",
"142 547 LINE",
"146 547 LINE",
"116 302 LINE",
"207 301 LINE",
"298 302 LINE",
"336 547 LINE",
"340 547 LINE",
"311 300 LINE",
"271 47 LINE",
"267 47 LINE",
"297 298 LINE",
"207 299 LINE",
"115 298 LINE",
"75 47 LINE",
"71 47 LINE"
);
}
);
userData = {
assembly = "SVTCA[0]	/* SetFreedomAndProjectionVectorToAxis */\012PUSHW[ ]	/* 1 value pushed */\0120 \012RCVT[ ]	/* ReadCVT */\012IF[ ]	/* If */\012PUSHW[ ]	/* 1 value pushed */\01217 \012MDAP[1]	/* MoveDirectAbsPt */\012ELSE[ ]	/* Else */\012PUSHW[ ]	/* 2 values pushed */\01217 7 \012MIAP[0]	/* MoveIndirectAbsPt */\012EIF[ ]	/* EndIf */\012PUSHW[ ]	/* 1 value pushed */\0120 \012RCVT[ ]	/* ReadCVT */\012IF[ ]	/* If */\012PUSHW[ ]	/* 1 value pushed */\01225 \012MDAP[1]	/* MoveDirectAbsPt */\012ELSE[ ]	/* Else */\012PUSHW[ ]	/* 2 values pushed */\01225 7 \012MIAP[0]	/* MoveIndirectAbsPt */\012EIF[ ]	/* EndIf */\012PUSHW[ ]	/* 4 values pushed */\01221 4 16 4 \012CALL[ ]	/* CallFunction */\012IUP[0]	/* InterpolateUntPts */\012IUP[1]	/* InterpolateUntPts */";
};
width = 404;
}
);
leftKerningGroup = H;
note = H;
rightKerningGroup = H;
unicode = 0048;
},
{
glyphname = Hbar;
lastChange = "2021-11-30 13:20:41 +0000";
layers = (
{
background = {
paths = (
{
closed = 1;
nodes = (
"138 0 LINE",
"173 245 LINE",
"209 245 LINE",
"174 0 LINE",
"333 0 LINE",
"417 591 LINE",
"258 591 LINE",
"225 362 LINE",
"189 362 LINE",
"222 591 LINE",
"63 591 LINE",
"-21 0 LINE"
);
},
{
closed = 1;
nodes = (
"425 445 LINE",
"435 517 LINE",
"21 517 LINE",
"11 445 LINE"
);
}
);
};
layerId = "DE28931B-8CFB-452E-AAB2-BC9BAE33C973";
paths = (
{
closed = 1;
nodes = (
"164 0 LINE",
"198 245 LINE",
"234 245 LINE",
"200 0 LINE",
"359 0 LINE",
"420 437 LINE",
"457 437 LINE",
"468 516 LINE",
"431 516 LINE",
"442 591 LINE",
"283 591 LINE",
"272 516 LINE",
"236 516 LINE",
"247 591 LINE",
"88 591 LINE",
"77 516 LINE",
"32 516 LINE",
"21 437 LINE",
"66 437 LINE",
"5 0 LINE"
);
},
{
closed = 1;
nodes = (
"117 300 LINE",
"156 547 LINE",
"160 547 LINE",
"130 302 LINE",
"221 301 LINE",
"312 302 LINE",
"350 547 LINE",
"354 547 LINE",
"325 300 LINE",
"285 47 LINE",
"281 47 LINE",
"311 298 LINE",
"221 299 LINE",
"129 298 LINE",
"89 47 LINE",
"85 47 LINE"
);
},
{
closed = 1;
nodes = (
"225 437 LINE",
"261 437 LINE",
"250 362 LINE",
"214 362 LINE"
);
}
);
userData = {
assembly = "SVTCA[0]	/* SetFreedomAndProjectionVectorToAxis */\012PUSHW[ ]	/* 1 value pushed */\0120 \012RCVT[ ]	/* ReadCVT */\012IF[ ]	/* If */\012PUSHW[ ]	/* 1 value pushed */\0121 \012MDAP[1]	/* MoveDirectAbsPt */\012ELSE[ ]	/* Else */\012PUSHW[ ]	/* 2 values pushed */\0121 7 \012MIAP[0]	/* MoveIndirectAbsPt */\012EIF[ ]	/* EndIf */\012PUSHW[ ]	/* 1 value pushed */\0120 \012RCVT[ ]	/* ReadCVT */\012IF[ ]	/* If */\012PUSHW[ ]	/* 1 value pushed */\01217 \012MDAP[1]	/* MoveDirectAbsPt */\012ELSE[ ]	/* Else */\012PUSHW[ ]	/* 2 values pushed */\01217 7 \012MIAP[0]	/* MoveIndirectAbsPt */\012EIF[ ]	/* EndIf */\012PUSHW[ ]	/* 4 values pushed */\01223 4 0 4 \012CALL[ ]	/* CallFunction */\012IUP[0]	/* InterpolateUntPts */\012IUP[1]	/* InterpolateUntPts */";
};
width = 426;
}
);
unicode = 0126;
},
{
glyphname = I;
lastChange = "2021-11-30 13:29:00 +0000";
layers = (
{
anchors = (
{
name = bottom;
position = "{67, 0}";
},
{
name = ogonek;
position = "{147, 0}";
},
{
name = top;
position = "{152, 591}";
},
{
name = topleft;
position = "{38, 591}";
}
);
background = {
anchors = (
{
name = bottom;
position = "{40, 0}";
},
{
name = ogonek;
position = "{99, 0}";
},
{
name = top;
position = "{123, 591}";
},
{
name = topleft;
position = "{38, 591}";
}
);
paths = (
{
closed = 1;
nodes = (
"119 0 LINE",
"203 591 LINE",
"44 591 LINE",
"-40 0 LINE"
);
}
);
};
layerId = "DE28931B-8CFB-452E-AAB2-BC9BAE33C973";
paths = (
{
closed = 1;
nodes = (
"149 0 LINE",
"232 591 LINE",
"73 591 LINE",
"-10 0 LINE"
);
},
{
closed = 1;
nodes = (
"103 300 LINE",
"142 547 LINE",
"146 547 LINE",
"116 300 LINE",
"75 47 LINE",
"71 47 LINE"
);
}
);
userData = {
assembly = "SVTCA[0]	/* SetFreedomAndProjectionVectorToAxis */\012PUSHW[ ]	/* 1 value pushed */\0120 \012RCVT[ ]	/* ReadCVT */\012IF[ ]	/* If */\012PUSHW[ ]	/* 1 value pushed */\0120 \012MDAP[1]	/* MoveDirectAbsPt */\012ELSE[ ]	/* Else */\012PUSHW[ ]	/* 2 values pushed */\0120 7 \012MIAP[0]	/* MoveIndirectAbsPt */\012EIF[ ]	/* EndIf */\012IUP[0]	/* InterpolateUntPts */\012IUP[1]	/* InterpolateUntPts */";
};
width = 209;
}
);
leftKerningGroup = H;
leftMetricsKey = H;
note = I;
rightKerningGroup = H;
rightMetricsKey = H;
unicode = 0049;
},
{
glyphname = J;
lastChange = "2021-11-30 13:29:00 +0000";
layers = (
{
anchors = (
{
name = bottom;
position = "{65, 0}";
},
{
name = top;
position = "{201, 591}";
}
);
background = {
anchors = (
{
name = bottom;
position = "{62, 0}";
},
{
name = top;
position = "{169, 591}";
}
);
paths = (
{
closed = 1;
nodes = (
"112 -1 OFFCURVE",
"169 33 OFFCURVE",
"187 159 CURVE SMOOTH",
"248 591 LINE",
"89 591 LINE",
"28 156 LINE SMOOTH",
"23 117 OFFCURVE",
"13 108 OFFCURVE",
"-25 108 CURVE SMOOTH",
"-54 108 LINE",
"-69 0 LINE",
"-59 -1 OFFCURVE",
"-26 -1 OFFCURVE",
"-15 -1 CURVE SMOOTH"
);
}
);
};
layerId = "DE28931B-8CFB-452E-AAB2-BC9BAE33C973";
paths = (
{
closed = 1;
nodes = (
"145 -3 OFFCURVE",
"201 34 OFFCURVE",
"219 159 CURVE SMOOTH",
"280 591 LINE",
"121 591 LINE",
"60 156 LINE SMOOTH",
"55 117 OFFCURVE",
"46 108 OFFCURVE",
"7 108 CURVE SMOOTH",
"-22 108 LINE",
"-37 0 LINE",
"17 -1 LINE SMOOTH"
);
},
{
closed = 1;
nodes = (
"46 63 LINE",
"60 64 OFFCURVE",
"73 69 OFFCURVE",
"85 77 CURVE SMOOTH",
"105 92 OFFCURVE",
"129 119 OFFCURVE",
"136 175 CURVE SMOOTH",
"152 300 LINE",
"192 547 LINE",
"196 547 LINE",
"166 300 LINE",
"146 177 LINE SMOOTH",
"136 117 OFFCURVE",
"113 89 OFFCURVE",
"90 74 CURVE SMOOTH",
"77 66 OFFCURVE",
"62 61 OFFCURVE",
"46 60 CURVE"
);
}
);
width = 257;
}
);
leftKerningGroup = J;
note = J;
rightKerningGroup = O;
rightMetricsKey = "=O+5";
unicode = 004A;
},
{
glyphname = K;
lastChange = "2021-11-30 13:29:00 +0000";
layers = (
{
anchors = (
{
name = bottom;
position = "{178, 0}";
},
{
name = top;
position = "{254, 591}";
}
);
background = {
anchors = (
{
name = bottom;
position = "{164, 0}";
},
{
name = top;
position = "{243, 591}";
}
);
paths = (
{
closed = 1;
nodes = (
"374 0 LINE",
"320 307 LINE",
"456 591 LINE",
"287 591 LINE",
"165 306 LINE",
"203 0 LINE"
);
},
{
closed = 1;
nodes = (
"124 0 LINE",
"208 591 LINE",
"49 591 LINE",
"-35 0 LINE"
);
}
);
};
layerId = "DE28931B-8CFB-452E-AAB2-BC9BAE33C973";
paths = (
{
closed = 1;
nodes = (
"149 0 LINE",
"186 266 LINE",
"207 0 LINE",
"384 0 LINE",
"325 307 LINE",
"465 591 LINE",
"282 591 LINE",
"198 350 LINE",
"232 591 LINE",
"73 591 LINE",
"-10 0 LINE"
);
},
{
closed = 1;
nodes = (
"103 300 LINE",
"142 547 LINE",
"146 547 LINE",
"116 300 LINE",
"75 47 LINE",
"71 47 LINE"
);
},
{
closed = 1;
nodes = (
"279 73 OFFCURVE",
"275 99 OFFCURVE",
"271 125 CURVE SMOOTH",
"268 147 OFFCURVE",
"264 170 OFFCURVE",
"261 195 CURVE SMOOTH",
"250 259 LINE",
"240 304 LINE",
"263 349 LINE",
"289 409 LINE SMOOTH",
"298 432 OFFCURVE",
"307 453 OFFCURVE",
"316 474 CURVE SMOOTH",
"347 547 LINE",
"352 547 LINE",
"254 304 LINE",
"254 294 OFFCURVE",
"266 211 OFFCURVE",
"271 173 CURVE SMOOTH",
"276 136 OFFCURVE",
"281 94 OFFCURVE",
"288 47 CURVE",
"284 47 LINE"
);
}
);
userData = {
assembly = "SVTCA[0]	/* SetFreedomAndProjectionVectorToAxis */\012PUSHW[ ]	/* 1 value pushed */\0120 \012RCVT[ ]	/* ReadCVT */\012IF[ ]	/* If */\012PUSHW[ ]	/* 1 value pushed */\01226 \012MDAP[1]	/* MoveDirectAbsPt */\012ELSE[ ]	/* Else */\012PUSHW[ ]	/* 2 values pushed */\01226 7 \012MIAP[0]	/* MoveIndirectAbsPt */\012EIF[ ]	/* EndIf */\012PUSHW[ ]	/* 1 value pushed */\0120 \012RCVT[ ]	/* ReadCVT */\012IF[ ]	/* If */\012PUSHW[ ]	/* 1 value pushed */\01229 \012MDAP[1]	/* MoveDirectAbsPt */\012ELSE[ ]	/* Else */\012PUSHW[ ]	/* 2 values pushed */\01229 7 \012MIAP[0]	/* MoveIndirectAbsPt */\012EIF[ ]	/* EndIf */\012IUP[0]	/* InterpolateUntPts */\012IUP[1]	/* InterpolateUntPts */";
};
width = 424;
}
);
leftKerningGroup = H;
leftMetricsKey = H;
note = K;
rightKerningGroup = K;
unicode = 004B;
},
{
glyphname = L;
lastChange = "2021-11-30 13:29:00 +0000";
layers = (
{
anchors = (
{
name = bottom;
position = "{111, 0}";
},
{
name = center;
position = "{133, 296}";
},
{
name = top;
position = "{187, 591}";
},
{
name = topright;
position = "{271, 441}";
}
);
background = {
anchors = (
{
name = bottom;
position = "{90, 0}";
},
{
name = center;
position = "{132, 296}";
},
{
name = top;
position = "{163, 591}";
},
{
name = topright;
position = "{247, 442}";
}
);
paths = (
{
closed = 1;
nodes = (
"231 0 LINE",
"247 108 LINE",
"138 108 LINE",
"206 591 LINE",
"49 591 LINE",
"-35 0 LINE"
);
}
);
};
layerId = "DE28931B-8CFB-452E-AAB2-BC9BAE33C973";
paths = (
{
closed = 1;
nodes = (
"256 0 LINE",
"271 108 LINE",
"162 108 LINE",
"230 591 LINE",
"73 591 LINE",
"-10 0 LINE"
);
},
{
closed = 1;
nodes = (
"103 300 LINE",
"141 547 LINE",
"146 547 LINE",
"116 300 LINE",
"78 59 LINE",
"218 58 LINE",
"217 56 LINE",
"72 55 LINE"
);
}
);
userData = {
assembly = "SVTCA[0]	/* SetFreedomAndProjectionVectorToAxis */\012PUSHW[ ]	/* 1 value pushed */\0120 \012RCVT[ ]	/* ReadCVT */\012IF[ ]	/* If */\012PUSHW[ ]	/* 1 value pushed */\0124 \012MDAP[1]	/* MoveDirectAbsPt */\012ELSE[ ]	/* Else */\012PUSHW[ ]	/* 2 values pushed */\0124 7 \012MIAP[0]	/* MoveIndirectAbsPt */\012EIF[ ]	/* EndIf */\012PUSHW[ ]	/* 2 values pushed */\0122 4 \012MIRP[10100]	/* MoveIndirectRelPt */\012PUSHW[ ]	/* 3 values pushed */\01210 4 2 \012SRP1[ ]	/* SetRefPoint1 */\012SRP2[ ]	/* SetRefPoint2 */\012IP[ ]	/* InterpolatePts */\012IUP[0]	/* InterpolateUntPts */\012IUP[1]	/* InterpolateUntPts */";
};
width = 299;
}
);
leftKerningGroup = H;
leftMetricsKey = H;
note = L;
rightKerningGroup = L;
unicode = 004C;
},
{
glyphname = Lslash;
lastChange = "2021-11-30 13:20:41 +0000";
layers = (
{
background = {
paths = (
{
closed = 1;
nodes = (
"263 0 LINE",
"278 108 LINE",
"169 108 LINE",
"186 225 LINE",
"250 253 LINE",
"259 316 LINE",
"195 289 LINE",
"236 585 LINE",
"79 585 LINE",
"28 219 LINE",
"-28 196 LINE",
"-37 132 LINE",
"19 155 LINE",
"-3 0 LINE"
);
}
);
};
layerId = "DE28931B-8CFB-452E-AAB2-BC9BAE33C973";
paths = (
{
closed = 1;
nodes = (
"292 0 LINE",
"307 108 LINE",
"198 108 LINE",
"214 225 LINE",
"279 253 LINE",
"288 316 LINE",
"223 289 LINE",
"265 585 LINE",
"108 585 LINE",
"56 219 LINE",
"1 196 LINE",
"-8 132 LINE",
"47 155 LINE",
"26 0 LINE"
);
},
{
closed = 1;
nodes = (
"140 300 LINE",
"178 547 LINE",
"183 547 LINE",
"153 300 LINE",
"115 59 LINE",
"255 58 LINE",
"254 56 LINE",
"109 55 LINE"
);
}
);
userData = {
assembly = "SVTCA[0]	/* SetFreedomAndProjectionVectorToAxis */\012PUSHW[ ]	/* 1 value pushed */\0120 \012RCVT[ ]	/* ReadCVT */\012IF[ ]	/* If */\012PUSHW[ ]	/* 1 value pushed */\0129 \012MDAP[1]	/* MoveDirectAbsPt */\012ELSE[ ]	/* Else */\012PUSHW[ ]	/* 2 values pushed */\0129 13 \012MIAP[0]	/* MoveIndirectAbsPt */\012EIF[ ]	/* EndIf */\012PUSHW[ ]	/* 1 value pushed */\0120 \012RCVT[ ]	/* ReadCVT */\012IF[ ]	/* If */\012PUSHW[ ]	/* 1 value pushed */\0123 \012MDAP[1]	/* MoveDirectAbsPt */\012ELSE[ ]	/* Else */\012PUSHW[ ]	/* 2 values pushed */\0123 7 \012MIAP[0]	/* MoveIndirectAbsPt */\012EIF[ ]	/* EndIf */\012PUSHW[ ]	/* 2 values pushed */\0121 4 \012MIRP[10100]	/* MoveIndirectRelPt */\012PUSHW[ ]	/* 3 values pushed */\0125 3 9 \012SRP1[ ]	/* SetRefPoint1 */\012SRP2[ ]	/* SetRefPoint2 */\012IP[ ]	/* InterpolatePts */\012PUSHW[ ]	/* 3 values pushed */\0126 3 9 \012SRP1[ ]	/* SetRefPoint1 */\012SRP2[ ]	/* SetRefPoint2 */\012IP[ ]	/* InterpolatePts */\012PUSHW[ ]	/* 3 values pushed */\01211 3 9 \012SRP1[ ]	/* SetRefPoint1 */\012SRP2[ ]	/* SetRefPoint2 */\012IP[ ]	/* InterpolatePts */\012PUSHW[ ]	/* 3 values pushed */\01212 3 9 \012SRP1[ ]	/* SetRefPoint1 */\012SRP2[ ]	/* SetRefPoint2 */\012IP[ ]	/* InterpolatePts */\012PUSHW[ ]	/* 3 values pushed */\01218 3 1 \012SRP1[ ]	/* SetRefPoint1 */\012SRP2[ ]	/* SetRefPoint2 */\012IP[ ]	/* InterpolatePts */\012IUP[0]	/* InterpolateUntPts */\012IUP[1]	/* InterpolateUntPts */";
};
width = 353;
}
);
note = Lslash;
unicode = 0141;
},
{
glyphname = M;
lastChange = "2021-11-30 13:29:00 +0000";
layers = (
{
background = {
paths = (
{
closed = 1;
nodes = (
"104 0 LINE",
"162 412 LINE",
"157 0 LINE",
"263 0 LINE",
"374 412 LINE",
"316 0 LINE",
"455 0 LINE",
"539 591 LINE",
"337 591 LINE",
"251 289 LINE",
"251 591 LINE",
"49 591 LINE",
"-35 0 LINE"
);
}
);
};
layerId = "DE28931B-8CFB-452E-AAB2-BC9BAE33C973";
paths = (
{
closed = 1;
nodes = (
"129 0 LINE",
"186 412 LINE",
"182 0 LINE",
"288 0 LINE",
"398 412 LINE",
"341 0 LINE",
"480 0 LINE",
"563 591 LINE",
"361 591 LINE",
"275 289 LINE",
"275 591 LINE",
"73 591 LINE",
"-10 0 LINE"
);
},
{
closed = 1;
nodes = (
"96 300 LINE",
"135 547 LINE",
"139 547 LINE",
"109 300 LINE",
"68 47 LINE",
"64 47 LINE"
);
},
{
closed = 1;
nodes = (
"241 53 OFFCURVE",
"238 88 OFFCURVE",
"236 121 CURVE SMOOTH",
"232 164 OFFCURVE",
"228 220 OFFCURVE",
"227 277 CURVE SMOOTH",
"226 308 OFFCURVE",
"225 338 OFFCURVE",
"225 369 CURVE SMOOTH",
"224 400 OFFCURVE",
"224 427 OFFCURVE",
"223 452 CURVE SMOOTH",
"221 535 LINE",
"223 535 LINE",
"229 451 LINE SMOOTH",
"230 426 OFFCURVE",
"232 399 OFFCURVE",
"234 369 CURVE SMOOTH",
"238 278 LINE SMOOTH",
"239 251 OFFCURVE",
"240 225 OFFCURVE",
"241 200 CURVE SMOOTH",
"242 130 LINE SMOOTH",
"243 106 OFFCURVE",
"243 83 OFFCURVE",
"243 61 CURVE",
"308 279 LINE",
"398 534 LINE",
"400 534 LINE",
"373 452 LINE SMOOTH",
"357 403 OFFCURVE",
"337 339 OFFCURVE",
"318 278 CURVE SMOOTH",
"299 218 OFFCURVE",
"280 162 OFFCURVE",
"265 119 CURVE SMOOTH",
"241 47 LINE"
);
},
{
closed = 1;
nodes = (
"447 300 LINE",
"486 547 LINE",
"490 547 LINE",
"460 300 LINE",
"419 47 LINE",
"415 47 LINE"
);
}
);
userData = {
assembly = "SVTCA[0]	/* SetFreedomAndProjectionVectorToAxis */\012PUSHW[ ]	/* 1 value pushed */\0120 \012RCVT[ ]	/* ReadCVT */\012IF[ ]	/* If */\012PUSHW[ ]	/* 1 value pushed */\0121 \012MDAP[1]	/* MoveDirectAbsPt */\012ELSE[ ]	/* Else */\012PUSHW[ ]	/* 2 values pushed */\0121 7 \012MIAP[0]	/* MoveIndirectAbsPt */\012EIF[ ]	/* EndIf */\012PUSHW[ ]	/* 1 value pushed */\0120 \012RCVT[ ]	/* ReadCVT */\012IF[ ]	/* If */\012PUSHW[ ]	/* 1 value pushed */\0128 \012MDAP[1]	/* MoveDirectAbsPt */\012ELSE[ ]	/* Else */\012PUSHW[ ]	/* 2 values pushed */\0128 7 \012MIAP[0]	/* MoveIndirectAbsPt */\012EIF[ ]	/* EndIf */\012PUSHW[ ]	/* 1 value pushed */\0120 \012RCVT[ ]	/* ReadCVT */\012IF[ ]	/* If */\012PUSHW[ ]	/* 1 value pushed */\01211 \012MDAP[1]	/* MoveDirectAbsPt */\012ELSE[ ]	/* Else */\012PUSHW[ ]	/* 2 values pushed */\01211 7 \012MIAP[0]	/* MoveIndirectAbsPt */\012EIF[ ]	/* EndIf */\012IUP[0]	/* InterpolateUntPts */\012IUP[1]	/* InterpolateUntPts */";
};
width = 540;
}
);
leftKerningGroup = H;
leftMetricsKey = H;
note = M;
rightKerningGroup = H;
rightMetricsKey = H;
unicode = 004D;
},
{
glyphname = N;
lastChange = "2021-11-30 13:29:00 +0000";
layers = (
{
anchors = (
{
name = bottom;
position = "{163, 0}";
},
{
name = top;
position = "{249, 591}";
}
);
background = {
anchors = (
{
name = bottom;
position = "{140, 0}";
},
{
name = top;
position = "{223, 591}";
}
);
paths = (
{
closed = 1;
nodes = (
"104 0 LINE",
"139 245 LINE",
"177 0 LINE",
"314 0 LINE",
"398 591 LINE",
"259 591 LINE",
"220 316 LINE",
"187 591 LINE",
"49 591 LINE",
"-35 0 LINE"
);
}
);
};
layerId = "DE28931B-8CFB-452E-AAB2-BC9BAE33C973";
paths = (
{
closed = 1;
nodes = (
"129 0 LINE",
"163 245 LINE",
"202 0 LINE",
"339 0 LINE",
"422 591 LINE",
"283 591 LINE",
"244 316 LINE",
"211 591 LINE",
"73 591 LINE",
"-10 0 LINE"
);
},
{
closed = 1;
nodes = (
"97 300 LINE",
"134 547 LINE",
"137 547 LINE",
"206 299 LINE",
"273 57 LINE",
"303 300 LINE",
"340 547 LINE",
"345 547 LINE",
"314 300 LINE",
"275 47 LINE",
"272 47 LINE",
"192 305 LINE",
"138 534 LINE",
"108 300 LINE",
"69 47 LINE",
"64 47 LINE"
);
}
);
userData = {
assembly = "SVTCA[0]	/* SetFreedomAndProjectionVectorToAxis */\012PUSHW[ ]	/* 1 value pushed */\0120 \012RCVT[ ]	/* ReadCVT */\012IF[ ]	/* If */\012PUSHW[ ]	/* 1 value pushed */\01217 \012MDAP[1]	/* MoveDirectAbsPt */\012ELSE[ ]	/* Else */\012PUSHW[ ]	/* 2 values pushed */\01217 7 \012MIAP[0]	/* MoveIndirectAbsPt */\012EIF[ ]	/* EndIf */\012PUSHW[ ]	/* 1 value pushed */\0120 \012RCVT[ ]	/* ReadCVT */\012IF[ ]	/* If */\012PUSHW[ ]	/* 1 value pushed */\01224 \012MDAP[1]	/* MoveDirectAbsPt */\012ELSE[ ]	/* Else */\012PUSHW[ ]	/* 2 values pushed */\01224 7 \012MIAP[0]	/* MoveIndirectAbsPt */\012EIF[ ]	/* EndIf */\012IUP[0]	/* InterpolateUntPts */\012IUP[1]	/* InterpolateUntPts */";
};
width = 399;
}
);
leftKerningGroup = H;
leftMetricsKey = H;
note = N;
rightKerningGroup = H;
rightMetricsKey = H;
unicode = 004E;
},
{
glyphname = Eng;
lastChange = "2021-11-26 10:21:46 +0000";
layers = (
{
background = {
paths = (
{
closed = 1;
nodes = (
"241 -196 OFFCURVE",
"291 -164 OFFCURVE",
"309 -36 CURVE SMOOTH",
"398 591 LINE",
"259 591 LINE",
"220 316 LINE",
"187 591 LINE",
"49 591 LINE",
"-35 0 LINE",
"104 0 LINE",
"139 245 LINE",
"177 2 LINE",
"171 -39 LINE SMOOTH",
"165 -79 OFFCURVE",
"156 -87 OFFCURVE",
"117 -87 CURVE SMOOTH",
"88 -87 LINE",
"73 -195 LINE",
"83 -196 OFFCURVE",
"116 -196 OFFCURVE",
"127 -196 CURVE SMOOTH"
);
}
);
};
layerId = "DE28931B-8CFB-452E-AAB2-BC9BAE33C973";
paths = (
{
closed = 1;
nodes = (
"252 -250 OFFCURVE",
"307 -214 OFFCURVE",
"326 -90 CURVE SMOOTH",
"422 591 LINE",
"283 591 LINE",
"244 316 LINE",
"211 591 LINE",
"73 591 LINE",
"-10 0 LINE",
"129 0 LINE",
"163 245 LINE",
"190 74 LINE",
"167 -93 LINE SMOOTH",
"160 -132 OFFCURVE",
"153 -141 OFFCURVE",
"114 -141 CURVE SMOOTH",
"85 -141 LINE",
"70 -249 LINE",
"124 -250 LINE SMOOTH"
);
},
{
closed = 1;
nodes = (
"156 -189 LINE",
"169 -188 OFFCURVE",
"181 -183 OFFCURVE",
"193 -175 CURVE SMOOTH",
"213 -160 OFFCURVE",
"235 -133 OFFCURVE",
"246 -77 CURVE SMOOTH",
"271 54 LINE",
"193 305 LINE",
"138 534 LINE",
"108 300 LINE",
"69 47 LINE",
"64 47 LINE",
"97 300 LINE",
"135 547 LINE",
"138 547 LINE",
"206 299 LINE",
"273 57 LINE",
"303 300 LINE",
"341 547 LINE",
"346 547 LINE",
"314 300 LINE",
"255 -75 LINE SMOOTH",
"246 -135 OFFCURVE",
"222 -163 OFFCURVE",
"199 -178 CURVE SMOOTH",
"186 -186 OFFCURVE",
"171 -191 OFFCURVE",
"156 -192 CURVE"
);
}
);
userData = {
assembly = "PUSHW[ ]	/* 4 values pushed */\0120 6 31 4 \012CALL[ ]	/* CallFunction */\012PUSHW[ ]	/* 3 values pushed */\0124 31 0 \012SRP1[ ]	/* SetRefPoint1 */\012SRP2[ ]	/* SetRefPoint2 */\012IP[ ]	/* InterpolatePts */\012PUSHW[ ]	/* 1 value pushed */\01231 \012SRP0[ ]	/* SetRefPoint0 */\012PUSHW[ ]	/* 1 value pushed */\01233 \012MDRP[10000]	/* MoveDirectRelPt */\012PUSHW[ ]	/* 1 value pushed */\01233 \012MDAP[1]	/* MoveDirectAbsPt */\012PUSHW[ ]	/* 3 values pushed */\01238 31 0 \012SRP1[ ]	/* SetRefPoint1 */\012SRP2[ ]	/* SetRefPoint2 */\012IP[ ]	/* InterpolatePts */\012SVTCA[0]	/* SetFreedomAndProjectionVectorToAxis */\012PUSHW[ ]	/* 1 value pushed */\0120 \012RCVT[ ]	/* ReadCVT */\012IF[ ]	/* If */\012PUSHW[ ]	/* 1 value pushed */\01234 \012MDAP[1]	/* MoveDirectAbsPt */\012ELSE[ ]	/* Else */\012PUSHW[ ]	/* 2 values pushed */\01234 7 \012MIAP[0]	/* MoveIndirectAbsPt */\012EIF[ ]	/* EndIf */\012IUP[0]	/* InterpolateUntPts */\012IUP[1]	/* InterpolateUntPts */";
};
width = 399;
}
);
leftMetricsKey = H;
rightMetricsKey = H;
unicode = 014A;
},
{
glyphname = O;
lastChange = "2021-11-30 13:29:00 +0000";
layers = (
{
anchors = (
{
name = bottom;
position = "{165, 0}";
},
{
name = center;
position = "{178, 296}";
},
{
name = ogonek;
position = "{227, 0}";
},
{
name = top;
position = "{251, 591}";
},
{
name = topleft;
position = "{40, 591}";
},
{
name = topright;
position = "{292, 591}";
}
);
background = {
anchors = (
{
name = bottom;
position = "{141, 0}";
},
{
name = center;
position = "{183, 296}";
},
{
name = ogonek;
position = "{206, 0}";
},
{
name = top;
position = "{224, 591}";
},
{
name = topleft;
position = "{40, 591}";
},
{
name = topright;
position = "{264, 591}";
}
);
paths = (
{
closed = 1;
nodes = (
"247 -12 OFFCURVE",
"326 14 OFFCURVE",
"349 174 CURVE SMOOTH",
"390 465 LINE SMOOTH",
"404 564 OFFCURVE",
"333 600 OFFCURVE",
"224 600 CURVE SMOOTH",
"115 600 OFFCURVE",
"37 564 OFFCURVE",
"23 465 CURVE SMOOTH",
"-18 173 LINE SMOOTH",
"-40 14 OFFCURVE",
"29 -12 OFFCURVE",
"138 -12 CURVE SMOOTH"
);
},
{
closed = 1;
nodes = (
"141 80 OFFCURVE",
"126 87 OFFCURVE",
"129 110 CURVE SMOOTH",
"180 473 LINE SMOOTH",
"183 496 OFFCURVE",
"200 503 OFFCURVE",
"210 503 CURVE SMOOTH",
"219 503 OFFCURVE",
"235 496 OFFCURVE",
"232 473 CURVE SMOOTH",
"181 110 LINE SMOOTH",
"178 87 OFFCURVE",
"160 80 OFFCURVE",
"151 80 CURVE SMOOTH"
);
}
);
};
layerId = "DE28931B-8CFB-452E-AAB2-BC9BAE33C973";
paths = (
{
closed = 1;
nodes = (
"286 -12 OFFCURVE",
"346 24 OFFCURVE",
"367 174 CURVE SMOOTH",
"408 465 LINE SMOOTH",
"409 474 OFFCURVE",
"410 483 OFFCURVE",
"410 492 CURVE SMOOTH",
"410 571 OFFCURVE",
"351 600 OFFCURVE",
"252 600 CURVE SMOOTH",
"143 600 OFFCURVE",
"65 564 OFFCURVE",
"51 465 CURVE SMOOTH",
"10 173 LINE SMOOTH",
"7 153 OFFCURVE",
"6 134 OFFCURVE",
"6 118 CURVE SMOOTH",
"6 16 OFFCURVE",
"62 -12 OFFCURVE",
"166 -12 CURVE SMOOTH"
);
},
{
closed = 1;
nodes = (
"173 80 OFFCURVE",
"169 82 OFFCURVE",
"167 87 CURVE SMOOTH",
"166 89 OFFCURVE",
"166 92 OFFCURVE",
"166 96 CURVE SMOOTH",
"166 100 OFFCURVE",
"166 105 OFFCURVE",
"167 110 CURVE SMOOTH",
"218 473 LINE SMOOTH",
"221 496 OFFCURVE",
"227 503 OFFCURVE",
"238 503 CURVE SMOOTH",
"243 503 OFFCURVE",
"246 501 OFFCURVE",
"249 497 CURVE SMOOTH",
"250 494 OFFCURVE",
"251 490 OFFCURVE",
"251 484 CURVE SMOOTH",
"251 481 OFFCURVE",
"251 477 OFFCURVE",
"250 473 CURVE SMOOTH",
"199 110 LINE SMOOTH",
"197 99 OFFCURVE",
"194 91 OFFCURVE",
"191 87 CURVE SMOOTH",
"187 82 OFFCURVE",
"183 80 OFFCURVE",
"178 80 CURVE SMOOTH"
);
},
{
closed = 1;
nodes = (
"99 45 OFFCURVE",
"80 65 OFFCURVE",
"80 101 CURVE SMOOTH",
"80 105 OFFCURVE",
"80 109 OFFCURVE",
"81 114 CURVE SMOOTH",
"103 300 LINE",
"134 493 LINE SMOOTH",
"141 534 OFFCURVE",
"171 550 OFFCURVE",
"214 549 CURVE SMOOTH",
"244 548 LINE",
"269 549 LINE SMOOTH",
"312 551 OFFCURVE",
"338 535 OFFCURVE",
"333 493 CURVE SMOOTH",
"310 300 LINE",
"280 114 LINE SMOOTH",
"273 70 OFFCURVE",
"248 45 OFFCURVE",
"205 45 CURVE SMOOTH",
"181 45 LINE SMOOTH",
"178 45 OFFCURVE",
"176 45 OFFCURVE",
"174 46 CURVE",
"171 45 OFFCURVE",
"168 45 OFFCURVE",
"165 45 CURVE SMOOTH",
"138 45 LINE SMOOTH"
);
},
{
closed = 1;
nodes = (
"181 48 LINE SMOOTH",
"184 48 OFFCURVE",
"187 49 OFFCURVE",
"191 49 CURVE SMOOTH",
"205 49 LINE SMOOTH",
"246 49 OFFCURVE",
"271 71 OFFCURVE",
"276 114 CURVE SMOOTH",
"297 301 LINE",
"329 493 LINE SMOOTH",
"335 532 OFFCURVE",
"310 543 OFFCURVE",
"269 545 CURVE SMOOTH",
"244 546 LINE",
"214 545 LINE SMOOTH",
"173 544 OFFCURVE",
"145 532 OFFCURVE",
"138 493 CURVE",
"116 301 LINE",
"85 114 LINE SMOOTH",
"84 108 OFFCURVE",
"84 103 OFFCURVE",
"84 98 CURVE SMOOTH",
"84 65 OFFCURVE",
"103 49 OFFCURVE",
"138 49 CURVE SMOOTH",
"143 49 OFFCURVE",
"148 49 OFFCURVE",
"153 49 CURVE SMOOTH",
"165 48 LINE"
);
}
);
userData = {
assembly = "PUSHW[ ]	/* 1 value pushed */\01280 \012MDAP[1]	/* MoveDirectAbsPt */\012PUSHW[ ]	/* 1 value pushed */\01232 \012MDAP[1]	/* MoveDirectAbsPt */\012PUSHW[ ]	/* 1 value pushed */\01280 \012SRP0[ ]	/* SetRefPoint0 */\012PUSHW[ ]	/* 1 value pushed */\0125 \012MDRP[10000]	/* MoveDirectRelPt */\012PUSHW[ ]	/* 1 value pushed */\0125 \012MDAP[1]	/* MoveDirectAbsPt */\012PUSHW[ ]	/* 2 values pushed */\0120 5 \012MIRP[10100]	/* MoveIndirectRelPt */\012PUSHW[ ]	/* 1 value pushed */\01232 \012SRP0[ ]	/* SetRefPoint0 */\012PUSHW[ ]	/* 2 values pushed */\01213 5 \012MIRP[10100]	/* MoveIndirectRelPt */\012PUSHW[ ]	/* 1 value pushed */\0120 \012SRP0[ ]	/* SetRefPoint0 */\012PUSHW[ ]	/* 1 value pushed */\01227 \012MDRP[10000]	/* MoveDirectRelPt */\012PUSHW[ ]	/* 1 value pushed */\01227 \012MDAP[1]	/* MoveDirectAbsPt */\012PUSHW[ ]	/* 1 value pushed */\01232 \012SRP0[ ]	/* SetRefPoint0 */\012PUSHW[ ]	/* 1 value pushed */\01249 \012MDRP[10000]	/* MoveDirectRelPt */\012PUSHW[ ]	/* 1 value pushed */\0120 \012SRP0[ ]	/* SetRefPoint0 */\012PUSHW[ ]	/* 1 value pushed */\01254 \012MDRP[10000]	/* MoveDirectRelPt */\012PUSHW[ ]	/* 1 value pushed */\01254 \012MDAP[1]	/* MoveDirectAbsPt */\012PUSHW[ ]	/* 1 value pushed */\01232 \012SRP0[ ]	/* SetRefPoint0 */\012PUSHW[ ]	/* 1 value pushed */\01269 \012MDRP[10000]	/* MoveDirectRelPt */\012PUSHW[ ]	/* 1 value pushed */\01269 \012MDAP[1]	/* MoveDirectAbsPt */\012PUSHW[ ]	/* 1 value pushed */\0120 \012SRP0[ ]	/* SetRefPoint0 */\012PUSHW[ ]	/* 1 value pushed */\01277 \012MDRP[10000]	/* MoveDirectRelPt */\012PUSHW[ ]	/* 1 value pushed */\01277 \012MDAP[1]	/* MoveDirectAbsPt */\012PUSHW[ ]	/* 1 value pushed */\01213 \012SRP0[ ]	/* SetRefPoint0 */\012PUSHW[ ]	/* 1 value pushed */\01281 \012MDRP[11100]	/* MoveDirectRelPt */\012IUP[0]	/* InterpolateUntPts */\012IUP[1]	/* InterpolateUntPts */";
};
width = 397;
}
);
leftKerningGroup = O;
note = O;
rightKerningGroup = O;
unicode = 004F;
},
{
glyphname = Oslash;
lastChange = "2021-11-30 13:20:42 +0000";
layers = (
{
anchors = (
{
name = bottom;
position = "{141, 0}";
},
{
name = top;
position = "{259, 591}";
}
);
background = {
anchors = (
{
name = bottom;
position = "{148, 0}";
},
{
name = top;
position = "{223, 591}";
}
);
paths = (
{
closed = 1;
nodes = (
"3 -42 LINE",
"437 630 LINE",
"370 630 LINE",
"-63 -42 LINE"
);
},
{
closed = 1;
nodes = (
"250 -12 OFFCURVE",
"319 14 OFFCURVE",
"342 174 CURVE SMOOTH",
"383 465 LINE SMOOTH",
"397 564 OFFCURVE",
"336 600 OFFCURVE",
"227 600 CURVE SMOOTH",
"118 600 OFFCURVE",
"40 564 OFFCURVE",
"26 465 CURVE SMOOTH",
"-15 173 LINE SMOOTH",
"-37 14 OFFCURVE",
"32 -12 OFFCURVE",
"141 -12 CURVE SMOOTH"
);
},
{
closed = 1;
nodes = (
"144 80 OFFCURVE",
"139 87 OFFCURVE",
"142 110 CURVE SMOOTH",
"193 473 LINE SMOOTH",
"196 496 OFFCURVE",
"204 503 OFFCURVE",
"214 503 CURVE SMOOTH",
"223 503 OFFCURVE",
"228 496 OFFCURVE",
"225 473 CURVE SMOOTH",
"174 110 LINE SMOOTH",
"171 87 OFFCURVE",
"163 80 OFFCURVE",
"154 80 CURVE SMOOTH"
);
}
);
};
layerId = "DE28931B-8CFB-452E-AAB2-BC9BAE33C973";
paths = (
{
closed = 1;
nodes = (
"27 -44 LINE",
"61 9 LINE",
"89 -7 OFFCURVE",
"126 -12 OFFCURVE",
"173 -12 CURVE SMOOTH",
"293 -12 OFFCURVE",
"353 24 OFFCURVE",
"374 174 CURVE SMOOTH",
"415 465 LINE SMOOTH",
"417 475 OFFCURVE",
"417 484 OFFCURVE",
"417 493 CURVE SMOOTH",
"417 512 OFFCURVE",
"414 528 OFFCURVE",
"406 542 CURVE",
"463 630 LINE",
"395 630 LINE",
"363 581 LINE",
"338 594 OFFCURVE",
"303 600 OFFCURVE",
"259 600 CURVE SMOOTH",
"152 600 OFFCURVE",
"72 565 OFFCURVE",
"58 465 CURVE SMOOTH",
"17 173 LINE SMOOTH",
"14 153 OFFCURVE",
"13 134 OFFCURVE",
"13 118 CURVE SMOOTH",
"13 92 OFFCURVE",
"16 70 OFFCURVE",
"23 54 CURVE",
"-40 -44 LINE"
);
},
{
closed = 1;
nodes = (
"181 80 OFFCURVE",
"177 82 OFFCURVE",
"175 87 CURVE SMOOTH",
"174 89 OFFCURVE",
"173 93 OFFCURVE",
"173 99 CURVE SMOOTH",
"173 102 OFFCURVE",
"173 106 OFFCURVE",
"174 110 CURVE SMOOTH",
"190 224 LINE",
"231 287 LINE",
"206 110 LINE SMOOTH",
"204 99 OFFCURVE",
"202 91 OFFCURVE",
"199 87 CURVE SMOOTH",
"195 82 OFFCURVE",
"191 80 OFFCURVE",
"186 80 CURVE SMOOTH"
);
},
{
closed = 1;
nodes = (
"104 45 OFFCURVE",
"85 65 OFFCURVE",
"85 101 CURVE SMOOTH",
"85 105 OFFCURVE",
"85 109 OFFCURVE",
"86 114 CURVE SMOOTH",
"108 300 LINE",
"139 493 LINE SMOOTH",
"146 534 OFFCURVE",
"176 550 OFFCURVE",
"219 549 CURVE SMOOTH",
"249 548 LINE",
"274 549 LINE SMOOTH",
"317 551 OFFCURVE",
"343 535 OFFCURVE",
"338 493 CURVE SMOOTH",
"315 300 LINE",
"285 114 LINE SMOOTH",
"278 70 OFFCURVE",
"253 45 OFFCURVE",
"210 45 CURVE SMOOTH",
"186 45 LINE SMOOTH",
"183 45 OFFCURVE",
"181 45 OFFCURVE",
"179 46 CURVE",
"176 45 OFFCURVE",
"173 45 OFFCURVE",
"170 45 CURVE SMOOTH",
"143 45 LINE SMOOTH"
);
},
{
closed = 1;
nodes = (
"186 48 LINE SMOOTH",
"189 48 OFFCURVE",
"192 48 OFFCURVE",
"196 49 CURVE SMOOTH",
"210 49 LINE SMOOTH",
"251 50 OFFCURVE",
"276 71 OFFCURVE",
"281 114 CURVE SMOOTH",
"302 301 LINE",
"334 493 LINE SMOOTH",
"340 532 OFFCURVE",
"315 543 OFFCURVE",
"274 545 CURVE SMOOTH",
"249 546 LINE",
"219 545 LINE SMOOTH",
"178 544 OFFCURVE",
"150 532 OFFCURVE",
"143 493 CURVE",
"121 301 LINE",
"90 114 LINE SMOOTH",
"89 108 OFFCURVE",
"89 103 OFFCURVE",
"89 98 CURVE SMOOTH",
"89 65 OFFCURVE",
"108 49 OFFCURVE",
"143 49 CURVE SMOOTH",
"148 49 OFFCURVE",
"153 49 OFFCURVE",
"158 49 CURVE SMOOTH",
"170 48 LINE"
);
},
{
closed = 1;
nodes = (
"225 473 LINE SMOOTH",
"228 496 OFFCURVE",
"234 503 OFFCURVE",
"245 503 CURVE SMOOTH",
"250 503 OFFCURVE",
"253 501 OFFCURVE",
"256 497 CURVE SMOOTH",
"257 494 OFFCURVE",
"258 490 OFFCURVE",
"258 484 CURVE SMOOTH",
"258 481 OFFCURVE",
"258 477 OFFCURVE",
"257 473 CURVE SMOOTH",
"244 380 LINE",
"203 317 LINE"
);
}
);
userData = {
assembly = "SVTCA[0]	/* SetFreedomAndProjectionVectorToAxis */\012PUSHW[ ]	/* 3 values pushed */\01217 4 3 \012CALL[ ]	/* CallFunction */\012PUSHW[ ]	/* 3 values pushed */\01232 4 17 \012SRP1[ ]	/* SetRefPoint1 */\012SRP2[ ]	/* SetRefPoint2 */\012IP[ ]	/* InterpolatePts */\012PUSHW[ ]	/* 3 values pushed */\01237 4 17 \012SRP1[ ]	/* SetRefPoint1 */\012SRP2[ ]	/* SetRefPoint2 */\012IP[ ]	/* InterpolatePts */\012IUP[0]	/* InterpolateUntPts */\012IUP[1]	/* InterpolateUntPts */";
};
width = 414;
}
);
note = Oslash;
unicode = 00D8;
},
{
glyphname = OE;
lastChange = "2021-11-26 10:44:26 +0000";
layers = (
{
background = {
paths = (
{
closed = 1;
nodes = (
"229 -12 OFFCURVE",
"299 14 OFFCURVE",
"321 174 CURVE SMOOTH",
"362 465 LINE SMOOTH",
"376 564 OFFCURVE",
"315 600 OFFCURVE",
"221 600 CURVE SMOOTH",
"115 600 OFFCURVE",
"39 564 OFFCURVE",
"25 465 CURVE SMOOTH",
"-16 173 LINE SMOOTH",
"-38 14 OFFCURVE",
"29 -12 OFFCURVE",
"135 -12 CURVE SMOOTH"
);
},
{
closed = 1;
nodes = (
"136 80 OFFCURVE",
"129 92 OFFCURVE",
"131 110 CURVE SMOOTH",
"182 473 LINE SMOOTH",
"185 491 OFFCURVE",
"195 503 OFFCURVE",
"207 503 CURVE SMOOTH",
"219 503 OFFCURVE",
"227 491 OFFCURVE",
"224 473 CURVE SMOOTH",
"173 110 LINE SMOOTH",
"171 92 OFFCURVE",
"160 80 OFFCURVE",
"148 80 CURVE SMOOTH"
);
},
{
closed = 1;
nodes = (
"465 0 LINE",
"480 108 LINE",
"332 108 LINE",
"350 240 LINE",
"488 240 LINE",
"506 365 LINE",
"368 365 LINE",
"384 480 LINE",
"532 480 LINE",
"548 591 LINE",
"242 591 LINE",
"159 0 LINE"
);
}
);
};
layerId = "DE28931B-8CFB-452E-AAB2-BC9BAE33C973";
paths = (
{
closed = 1;
nodes = (
"201 -12 OFFCURVE",
"231 -9 OFFCURVE",
"256 0 CURVE",
"461 0 LINE",
"476 108 LINE",
"356 108 LINE",
"375 240 LINE",
"485 240 LINE",
"502 365 LINE",
"392 365 LINE",
"409 480 LINE",
"529 480 LINE",
"544 591 LINE",
"329 591 LINE",
"308 597 OFFCURVE",
"282 600 OFFCURVE",
"252 600 CURVE SMOOTH",
"143 600 OFFCURVE",
"65 564 OFFCURVE",
"51 465 CURVE SMOOTH",
"10 173 LINE SMOOTH",
"7 153 OFFCURVE",
"6 134 OFFCURVE",
"6 118 CURVE SMOOTH",
"6 16 OFFCURVE",
"62 -12 OFFCURVE",
"166 -12 CURVE SMOOTH"
);
},
{
closed = 1;
nodes = (
"101 45 OFFCURVE",
"82 65 OFFCURVE",
"82 101 CURVE SMOOTH",
"82 105 OFFCURVE",
"82 109 OFFCURVE",
"83 114 CURVE SMOOTH",
"105 300 LINE",
"136 493 LINE SMOOTH",
"143 534 OFFCURVE",
"173 550 OFFCURVE",
"216 549 CURVE SMOOTH",
"246 548 LINE",
"246 546 LINE",
"216 545 LINE SMOOTH",
"175 544 OFFCURVE",
"147 532 OFFCURVE",
"140 493 CURVE",
"118 301 LINE",
"87 114 LINE SMOOTH",
"86 108 OFFCURVE",
"86 103 OFFCURVE",
"86 98 CURVE SMOOTH",
"86 65 OFFCURVE",
"105 49 OFFCURVE",
"140 49 CURVE SMOOTH",
"145 49 OFFCURVE",
"150 49 OFFCURVE",
"155 49 CURVE SMOOTH",
"167 48 LINE",
"176 46 LINE",
"173 45 OFFCURVE",
"170 45 OFFCURVE",
"167 45 CURVE SMOOTH",
"140 45 LINE SMOOTH"
);
},
{
closed = 1;
nodes = (
"173 80 OFFCURVE",
"169 82 OFFCURVE",
"167 87 CURVE SMOOTH",
"166 89 OFFCURVE",
"166 92 OFFCURVE",
"166 96 CURVE SMOOTH",
"166 100 OFFCURVE",
"166 105 OFFCURVE",
"167 110 CURVE SMOOTH",
"218 473 LINE SMOOTH",
"221 496 OFFCURVE",
"227 503 OFFCURVE",
"238 503 CURVE SMOOTH",
"243 503 OFFCURVE",
"246 501 OFFCURVE",
"249 497 CURVE SMOOTH",
"250 494 OFFCURVE",
"251 490 OFFCURVE",
"251 484 CURVE SMOOTH",
"251 481 OFFCURVE",
"251 477 OFFCURVE",
"250 473 CURVE SMOOTH",
"199 110 LINE SMOOTH",
"197 99 OFFCURVE",
"194 91 OFFCURVE",
"191 87 CURVE SMOOTH",
"187 82 OFFCURVE",
"183 80 OFFCURVE",
"178 80 CURVE SMOOTH"
);
},
{
closed = 1;
nodes = (
"309 300 LINE",
"346 536 LINE",
"511 535 LINE",
"510 533 LINE",
"350 532 LINE",
"322 302 LINE",
"453 301 LINE",
"453 299 LINE",
"321 298 LINE",
"284 59 LINE",
"444 58 LINE",
"443 56 LINE",
"278 55 LINE"
);
}
);
userData = {
assembly = "PUSHW[ ]	/* 4 values pushed */\01218 5 35 4 \012CALL[ ]	/* CallFunction */\012PUSHW[ ]	/* 1 value pushed */\01218 \012SRP0[ ]	/* SetRefPoint0 */\012PUSHW[ ]	/* 1 value pushed */\01240 \012MDRP[11100]	/* MoveDirectRelPt */\012SVTCA[0]	/* SetFreedomAndProjectionVectorToAxis */\012PUSHW[ ]	/* 1 value pushed */\0120 \012RCVT[ ]	/* ReadCVT */\012IF[ ]	/* If */\012PUSHW[ ]	/* 1 value pushed */\01211 \012MDAP[1]	/* MoveDirectAbsPt */\012ELSE[ ]	/* Else */\012PUSHW[ ]	/* 2 values pushed */\01211 13 \012MIAP[0]	/* MoveIndirectAbsPt */\012EIF[ ]	/* EndIf */\012PUSHW[ ]	/* 1 value pushed */\0120 \012RCVT[ ]	/* ReadCVT */\012IF[ ]	/* If */\012PUSHW[ ]	/* 1 value pushed */\01221 \012MDAP[1]	/* MoveDirectAbsPt */\012ELSE[ ]	/* Else */\012PUSHW[ ]	/* 2 values pushed */\01221 7 \012MIAP[0]	/* MoveIndirectAbsPt */\012EIF[ ]	/* EndIf */\012PUSHW[ ]	/* 2 values pushed */\01219 4 \012MIRP[10100]	/* MoveIndirectRelPt */\012PUSHW[ ]	/* 1 value pushed */\01211 \012SRP0[ ]	/* SetRefPoint0 */\012PUSHW[ ]	/* 2 values pushed */\01232 1 \012MIRP[10100]	/* MoveIndirectRelPt */\012NPUSHW[ ]	/* 5 values pushed */\012121 32 137 32 2 \012DELTAP1[ ]	/* DeltaExceptionP1 */\012NPUSHW[ ]	/* 15 values pushed */\0128 32 24 32 40 32 56 32 72 32 88 32 104 32 7 \012DELTAP1[ ]	/* DeltaExceptionP1 */\012IUP[0]	/* InterpolateUntPts */\012IUP[1]	/* InterpolateUntPts */";
};
width = 513;
}
);
leftMetricsKey = O;
note = OE;
rightMetricsKey = E;
unicode = 0152;
},
{
glyphname = P;
lastChange = "2021-11-30 13:29:00 +0000";
layers = (
{
background = {
paths = (
{
closed = 1;
nodes = (
"131 0 LINE",
"163 224 LINE",
"237 224 LINE SMOOTH",
"329 224 OFFCURVE",
"365 303 OFFCURVE",
"378 392 CURVE SMOOTH",
"391 490 LINE SMOOTH",
"400 549 OFFCURVE",
"369 591 OFFCURVE",
"281 591 CURVE SMOOTH",
"49 591 LINE",
"-35 0 LINE"
);
},
{
closed = 1;
nodes = (
"203 507 LINE",
"218 507 LINE SMOOTH",
"235 507 OFFCURVE",
"232 483 OFFCURVE",
"223 418 CURVE SMOOTH",
"222 408 LINE SMOOTH",
"212 335 OFFCURVE",
"201 310 OFFCURVE",
"187 310 CURVE SMOOTH",
"175 310 LINE"
);
}
);
};
layerId = "DE28931B-8CFB-452E-AAB2-BC9BAE33C973";
paths = (
{
closed = 1;
nodes = (
"156 0 LINE",
"187 224 LINE",
"261 224 LINE SMOOTH",
"352 224 OFFCURVE",
"388 300 OFFCURVE",
"402 392 CURVE SMOOTH",
"415 490 LINE SMOOTH",
"416 497 OFFCURVE",
"416 503 OFFCURVE",
"416 509 CURVE SMOOTH",
"416 559 OFFCURVE",
"383 591 OFFCURVE",
"305 591 CURVE SMOOTH",
"73 591 LINE",
"-10 0 LINE"
);
},
{
closed = 1;
nodes = (
"109 300 LINE",
"148 547 LINE",
"152 547 LINE",
"122 300 LINE",
"81 47 LINE",
"77 47 LINE"
);
},
{
closed = 1;
nodes = (
"227 507 LINE",
"242 507 LINE SMOOTH",
"250 507 OFFCURVE",
"255 501 OFFCURVE",
"255 489 CURVE SMOOTH",
"255 487 OFFCURVE",
"255 486 OFFCURVE",
"255 485 CURVE SMOOTH",
"254 470 OFFCURVE",
"251 445 OFFCURVE",
"246 408 CURVE SMOOTH",
"241 371 OFFCURVE",
"235 346 OFFCURVE",
"230 332 CURVE SMOOTH",
"225 317 OFFCURVE",
"218 310 OFFCURVE",
"211 310 CURVE SMOOTH",
"199 310 LINE"
);
},
{
closed = 1;
nodes = (
"196 268 LINE",
"236 269 LINE SMOOTH",
"293 269 OFFCURVE",
"311 351 OFFCURVE",
"319 418 CURVE SMOOTH",
"323 448 OFFCURVE",
"327 473 OFFCURVE",
"327 492 CURVE SMOOTH",
"327 527 OFFCURVE",
"314 545 OFFCURVE",
"265 545 CURVE SMOOTH",
"233 546 LINE",
"234 548 LINE",
"266 549 LINE",
"323 547 OFFCURVE",
"338 523 OFFCURVE",
"338 484 CURVE SMOOTH",
"338 467 OFFCURVE",
"335 446 OFFCURVE",
"331 423 CURVE SMOOTH",
"319 343 OFFCURVE",
"296 266 OFFCURVE",
"236 266 CURVE SMOOTH",
"196 266 LINE"
);
}
);
userData = {
assembly = "SVTCA[0]	/* SetFreedomAndProjectionVectorToAxis */\012PUSHW[ ]	/* 1 value pushed */\0120 \012RCVT[ ]	/* ReadCVT */\012IF[ ]	/* If */\012PUSHW[ ]	/* 1 value pushed */\01212 \012MDAP[1]	/* MoveDirectAbsPt */\012ELSE[ ]	/* Else */\012PUSHW[ ]	/* 2 values pushed */\01212 7 \012MIAP[0]	/* MoveIndirectAbsPt */\012EIF[ ]	/* EndIf */\012IUP[0]	/* InterpolateUntPts */\012IUP[1]	/* InterpolateUntPts */";
};
width = 398;
}
);
leftKerningGroup = H;
leftMetricsKey = H;
note = P;
rightKerningGroup = P;
unicode = 0050;
},
{
glyphname = Thorn;
lastChange = "2021-11-30 13:20:42 +0000";
layers = (
{
background = {
paths = (
{
closed = 1;
nodes = (
"117 0 LINE",
"135 127 LINE",
"209 127 LINE SMOOTH",
"301 127 OFFCURVE",
"337 206 OFFCURVE",
"350 295 CURVE SMOOTH",
"364 393 LINE SMOOTH",
"372 453 OFFCURVE",
"341 494 OFFCURVE",
"253 494 CURVE SMOOTH",
"188 494 LINE",
"202 591 LINE",
"35 591 LINE",
"-49 0 LINE"
);
},
{
closed = 1;
nodes = (
"175 410 LINE",
"190 410 LINE SMOOTH",
"208 410 OFFCURVE",
"205 387 OFFCURVE",
"196 321 CURVE SMOOTH",
"194 311 LINE SMOOTH",
"184 238 OFFCURVE",
"174 213 OFFCURVE",
"159 213 CURVE SMOOTH",
"147 213 LINE"
);
}
);
};
layerId = "DE28931B-8CFB-452E-AAB2-BC9BAE33C973";
paths = (
{
closed = 1;
nodes = (
"149 0 LINE",
"166 127 LINE",
"240 127 LINE SMOOTH",
"331 127 OFFCURVE",
"367 203 OFFCURVE",
"381 295 CURVE SMOOTH",
"395 393 LINE SMOOTH",
"396 399 OFFCURVE",
"396 405 OFFCURVE",
"396 410 CURVE SMOOTH",
"396 461 OFFCURVE",
"363 494 OFFCURVE",
"284 494 CURVE SMOOTH",
"219 494 LINE",
"233 591 LINE",
"66 591 LINE",
"-17 0 LINE"
);
},
{
closed = 1;
nodes = (
"98 279 LINE",
"142 565 LINE",
"146 565 LINE",
"111 279 LINE",
"70 21 LINE",
"66 21 LINE"
);
},
{
closed = 1;
nodes = (
"206 410 LINE",
"221 410 LINE SMOOTH",
"229 410 OFFCURVE",
"234 404 OFFCURVE",
"234 392 CURVE SMOOTH",
"234 390 OFFCURVE",
"234 389 OFFCURVE",
"234 388 CURVE SMOOTH",
"233 373 OFFCURVE",
"230 348 OFFCURVE",
"225 311 CURVE SMOOTH",
"220 274 OFFCURVE",
"214 249 OFFCURVE",
"209 235 CURVE SMOOTH",
"204 220 OFFCURVE",
"197 213 OFFCURVE",
"190 213 CURVE SMOOTH",
"178 213 LINE"
);
},
{
closed = 1;
nodes = (
"241 187 LINE",
"266 187 OFFCURVE",
"279 206 OFFCURVE",
"287 257 CURVE SMOOTH",
"303 374 LINE SMOOTH",
"304 383 OFFCURVE",
"305 391 OFFCURVE",
"305 398 CURVE SMOOTH",
"305 430 OFFCURVE",
"292 448 OFFCURVE",
"257 448 CURVE",
"258 450 LINE",
"298 450 OFFCURVE",
"315 431 OFFCURVE",
"315 395 CURVE SMOOTH",
"315 389 OFFCURVE",
"314 382 OFFCURVE",
"313 374 CURVE SMOOTH",
"297 257 LINE SMOOTH",
"289 204 OFFCURVE",
"268 185 OFFCURVE",
"241 185 CURVE"
);
}
);
userData = {
assembly = "SVTCA[0]	/* SetFreedomAndProjectionVectorToAxis */\012PUSHW[ ]	/* 1 value pushed */\0120 \012RCVT[ ]	/* ReadCVT */\012IF[ ]	/* If */\012PUSHW[ ]	/* 1 value pushed */\01214 \012MDAP[1]	/* MoveDirectAbsPt */\012ELSE[ ]	/* Else */\012PUSHW[ ]	/* 2 values pushed */\01214 7 \012MIAP[0]	/* MoveIndirectAbsPt */\012EIF[ ]	/* EndIf */\012IUP[0]	/* InterpolateUntPts */\012IUP[1]	/* InterpolateUntPts */";
};
width = 406;
}
);
note = Thorn;
unicode = 00DE;
},
{
glyphname = Q;
lastChange = "2021-11-30 13:29:00 +0000";
layers = (
{
background = {
paths = (
{
closed = 1;
nodes = (
"311 -68 LINE",
"272 24 LINE",
"309 51 OFFCURVE",
"335 97 OFFCURVE",
"346 178 CURVE SMOOTH",
"386 465 LINE SMOOTH",
"400 564 OFFCURVE",
"337 600 OFFCURVE",
"226 600 CURVE SMOOTH",
"115 600 OFFCURVE",
"35 564 OFFCURVE",
"21 465 CURVE SMOOTH",
"-19 177 LINE SMOOTH",
"-42 18 OFFCURVE",
"28 -8 OFFCURVE",
"134 -8 CURVE SMOOTH",
"139 -8 OFFCURVE",
"143 -8 OFFCURVE",
"148 -8 CURVE",
"199 -129 LINE"
);
},
{
closed = 1;
nodes = (
"142 84 OFFCURVE",
"135 91 OFFCURVE",
"138 114 CURVE SMOOTH",
"188 473 LINE SMOOTH",
"192 496 OFFCURVE",
"201 503 OFFCURVE",
"213 503 CURVE SMOOTH",
"224 503 OFFCURVE",
"232 496 OFFCURVE",
"228 473 CURVE SMOOTH",
"178 114 LINE SMOOTH",
"175 91 OFFCURVE",
"165 84 OFFCURVE",
"154 84 CURVE SMOOTH"
);
}
);
};
layerId = "DE28931B-8CFB-452E-AAB2-BC9BAE33C973";
paths = (
{
closed = 1;
nodes = (
"337 -68 LINE",
"298 20 LINE",
"333 47 OFFCURVE",
"356 93 OFFCURVE",
"367 174 CURVE SMOOTH",
"408 465 LINE SMOOTH",
"409 474 OFFCURVE",
"410 482 OFFCURVE",
"410 490 CURVE SMOOTH",
"410 570 OFFCURVE",
"351 600 OFFCURVE",
"252 600 CURVE SMOOTH",
"145 600 OFFCURVE",
"64 565 OFFCURVE",
"51 465 CURVE SMOOTH",
"10 173 LINE SMOOTH",
"7 153 OFFCURVE",
"6 135 OFFCURVE",
"6 119 CURVE SMOOTH",
"6 15 OFFCURVE",
"61 -12 OFFCURVE",
"166 -12 CURVE SMOOTH",
"173 -12 LINE",
"225 -129 LINE"
);
},
{
closed = 1;
nodes = (
"174 80 OFFCURVE",
"170 82 OFFCURVE",
"168 87 CURVE SMOOTH",
"167 89 OFFCURVE",
"166 93 OFFCURVE",
"166 98 CURVE SMOOTH",
"166 101 OFFCURVE",
"167 105 OFFCURVE",
"167 110 CURVE SMOOTH",
"218 473 LINE SMOOTH",
"221 496 OFFCURVE",
"227 503 OFFCURVE",
"238 503 CURVE SMOOTH",
"243 503 OFFCURVE",
"246 501 OFFCURVE",
"249 497 CURVE SMOOTH",
"250 494 OFFCURVE",
"251 490 OFFCURVE",
"251 485 CURVE SMOOTH",
"251 482 OFFCURVE",
"250 478 OFFCURVE",
"250 473 CURVE SMOOTH",
"199 110 LINE SMOOTH",
"198 99 OFFCURVE",
"195 91 OFFCURVE",
"192 87 CURVE SMOOTH",
"188 82 OFFCURVE",
"184 80 OFFCURVE",
"179 80 CURVE SMOOTH"
);
},
{
closed = 1;
nodes = (
"101 45 OFFCURVE",
"81 64 OFFCURVE",
"81 98 CURVE SMOOTH",
"81 103 OFFCURVE",
"81 108 OFFCURVE",
"82 114 CURVE SMOOTH",
"104 300 LINE",
"135 493 LINE SMOOTH",
"142 534 OFFCURVE",
"172 549 OFFCURVE",
"215 549 CURVE SMOOTH",
"245 548 LINE",
"270 549 LINE SMOOTH",
"309 549 OFFCURVE",
"335 537 OFFCURVE",
"335 505 CURVE SMOOTH",
"335 501 OFFCURVE",
"335 497 OFFCURVE",
"334 493 CURVE SMOOTH",
"311 300 LINE",
"281 114 LINE SMOOTH",
"274 70 OFFCURVE",
"248 45 OFFCURVE",
"205 45 CURVE SMOOTH",
"181 45 LINE SMOOTH",
"178 45 OFFCURVE",
"176 45 OFFCURVE",
"174 46 CURVE",
"171 45 OFFCURVE",
"168 45 OFFCURVE",
"165 45 CURVE SMOOTH",
"138 45 LINE SMOOTH"
);
},
{
closed = 1;
nodes = (
"181 48 LINE SMOOTH",
"184 48 OFFCURVE",
"187 48 OFFCURVE",
"191 49 CURVE SMOOTH",
"206 49 LINE SMOOTH",
"247 49 OFFCURVE",
"271 71 OFFCURVE",
"277 114 CURVE SMOOTH",
"298 301 LINE",
"330 493 LINE SMOOTH",
"335 532 OFFCURVE",
"310 545 OFFCURVE",
"269 545 CURVE SMOOTH",
"244 546 LINE",
"214 545 LINE SMOOTH",
"173 545 OFFCURVE",
"144 532 OFFCURVE",
"139 493 CURVE SMOOTH",
"117 301 LINE",
"86 114 LINE SMOOTH",
"85 109 OFFCURVE",
"85 104 OFFCURVE",
"85 99 CURVE SMOOTH",
"85 66 OFFCURVE",
"103 49 OFFCURVE",
"139 49 CURVE SMOOTH",
"144 49 OFFCURVE",
"149 49 OFFCURVE",
"154 49 CURVE SMOOTH",
"165 48 LINE"
);
}
);
width = 401;
}
);
leftKerningGroup = O;
leftMetricsKey = O;
note = Q;
rightKerningGroup = O;
rightMetricsKey = O;
unicode = 0051;
},
{
glyphname = R;
lastChange = "2021-11-30 13:29:00 +0000";
layers = (
{
anchors = (
{
name = bottom;
position = "{174, 0}";
},
{
name = top;
position = "{259, 591}";
}
);
background = {
anchors = (
{
name = bottom;
position = "{152, 0}";
},
{
name = top;
position = "{235, 591}";
}
);
paths = (
{
closed = 1;
nodes = (
"131 0 LINE",
"165 237 LINE",
"168 237 LINE",
"173 237 OFFCURVE",
"175 221 OFFCURVE",
"176 194 CURVE SMOOTH",
"182 0 LINE",
"359 0 LINE",
"336 204 LINE SMOOTH",
"331 252 OFFCURVE",
"321 269 OFFCURVE",
"276 278 CURVE",
"276 280 LINE",
"348 288 OFFCURVE",
"379 342 OFFCURVE",
"387 400 CURVE SMOOTH",
"399 490 LINE SMOOTH",
"408 549 OFFCURVE",
"377 591 OFFCURVE",
"289 591 CURVE SMOOTH",
"49 591 LINE",
"-35 0 LINE"
);
},
{
closed = 1;
nodes = (
"203 507 LINE",
"222 507 LINE SMOOTH",
"239 507 OFFCURVE",
"244 497 OFFCURVE",
"239 461 CURVE SMOOTH",
"230 396 LINE SMOOTH",
"225 360 OFFCURVE",
"213 347 OFFCURVE",
"196 347 CURVE SMOOTH",
"180 347 LINE"
);
}
);
};
layerId = "DE28931B-8CFB-452E-AAB2-BC9BAE33C973";
paths = (
{
closed = 1;
nodes = (
"156 0 LINE",
"192 262 LINE",
"207 0 LINE",
"384 0 LINE",
"359 215 LINE",
"349 262 OFFCURVE",
"332 275 OFFCURVE",
"303 278 CURVE",
"371 295 OFFCURVE",
"396 344 OFFCURVE",
"403 400 CURVE SMOOTH",
"415 490 LINE SMOOTH",
"416 496 OFFCURVE",
"416 502 OFFCURVE",
"416 508 CURVE SMOOTH",
"416 558 OFFCURVE",
"384 591 OFFCURVE",
"305 591 CURVE SMOOTH",
"73 591 LINE",
"-10 0 LINE"
);
},
{
closed = 1;
nodes = (
"109 300 LINE",
"148 547 LINE",
"152 547 LINE",
"122 300 LINE",
"81 47 LINE",
"77 47 LINE"
);
},
{
closed = 1;
nodes = (
"279 107 OFFCURVE",
"281 234 OFFCURVE",
"248 265 CURVE",
"249 265 LINE",
"286 233 OFFCURVE",
"288 87 OFFCURVE",
"294 47 CURVE",
"286 47 LINE"
);
},
{
closed = 1;
nodes = (
"227 507 LINE",
"242 507 LINE SMOOTH",
"250 507 OFFCURVE",
"255 501 OFFCURVE",
"255 489 CURVE SMOOTH",
"255 487 OFFCURVE",
"255 486 OFFCURVE",
"255 485 CURVE SMOOTH",
"254 470 OFFCURVE",
"251 445 OFFCURVE",
"246 408 CURVE SMOOTH",
"238 352 OFFCURVE",
"231 320 OFFCURVE",
"212 320 CURVE SMOOTH",
"200 320 LINE"
);
},
{
closed = 1;
nodes = (
"221 292 LINE",
"243 293 LINE SMOOTH",
"303 296 OFFCURVE",
"320 380 OFFCURVE",
"329 438 CURVE SMOOTH",
"332 459 OFFCURVE",
"333 475 OFFCURVE",
"333 489 CURVE SMOOTH",
"333 529 OFFCURVE",
"319 544 OFFCURVE",
"272 545 CURVE SMOOTH",
"240 546 LINE",
"241 548 LINE",
"273 549 LINE SMOOTH",
"323 551 OFFCURVE",
"344 533 OFFCURVE",
"344 482 CURVE SMOOTH",
"344 470 OFFCURVE",
"342 455 OFFCURVE",
"340 438 CURVE SMOOTH",
"330 367 OFFCURVE",
"303 290 OFFCURVE",
"242 290 CURVE SMOOTH",
"220 290 LINE"
);
}
);
userData = {
assembly = "SVTCA[0]	/* SetFreedomAndProjectionVectorToAxis */\012PUSHW[ ]	/* 1 value pushed */\0120 \012RCVT[ ]	/* ReadCVT */\012IF[ ]	/* If */\012PUSHW[ ]	/* 1 value pushed */\01226 \012MDAP[1]	/* MoveDirectAbsPt */\012ELSE[ ]	/* Else */\012PUSHW[ ]	/* 2 values pushed */\01226 7 \012MIAP[0]	/* MoveIndirectAbsPt */\012EIF[ ]	/* EndIf */\012PUSHW[ ]	/* 1 value pushed */\0120 \012RCVT[ ]	/* ReadCVT */\012IF[ ]	/* If */\012PUSHW[ ]	/* 1 value pushed */\01229 \012MDAP[1]	/* MoveDirectAbsPt */\012ELSE[ ]	/* Else */\012PUSHW[ ]	/* 2 values pushed */\01229 7 \012MIAP[0]	/* MoveIndirectAbsPt */\012EIF[ ]	/* EndIf */\012IUP[0]	/* InterpolateUntPts */\012IUP[1]	/* InterpolateUntPts */";
};
width = 424;
}
);
leftKerningGroup = H;
leftMetricsKey = H;
note = R;
rightKerningGroup = R;
unicode = 0052;
},
{
glyphname = S;
lastChange = "2021-11-30 13:29:00 +0000";
layers = (
{
anchors = (
{
name = bottom;
position = "{170, 0}";
},
{
name = top;
position = "{260, 591}";
}
);
background = {
anchors = (
{
name = bottom;
position = "{136, 0}";
},
{
name = top;
position = "{229, 591}";
}
);
paths = (
{
closed = 1;
nodes = (
"247 -8 OFFCURVE",
"329 36 OFFCURVE",
"348 171 CURVE SMOOTH",
"365 290 OFFCURVE",
"331 313 OFFCURVE",
"247 345 CURVE SMOOTH",
"193 366 OFFCURVE",
"170 377 OFFCURVE",
"177 427 CURVE SMOOTH",
"181 456 OFFCURVE",
"186 467 OFFCURVE",
"203 467 CURVE SMOOTH",
"224 467 OFFCURVE",
"222 453 OFFCURVE",
"214 399 CURVE SMOOTH",
"210 373 LINE",
"263 373 OFFCURVE",
"316 373 OFFCURVE",
"369 373 CURVE",
"380 449 LINE SMOOTH",
"394 546 OFFCURVE",
"338 593 OFFCURVE",
"218 593 CURVE SMOOTH",
"78 593 OFFCURVE",
"29 548 OFFCURVE",
"11 422 CURVE SMOOTH",
"-1 332 OFFCURVE",
"12 279 OFFCURVE",
"82 246 CURVE SMOOTH",
"158 211 OFFCURVE",
"185 211 OFFCURVE",
"176 147 CURVE SMOOTH",
"169 101 OFFCURVE",
"163 92 OFFCURVE",
"148 92 CURVE SMOOTH",
"134 92 OFFCURVE",
"129 101 OFFCURVE",
"136 155 CURVE SMOOTH",
"143 206 LINE",
"-24 206 LINE",
"-29 169 LINE SMOOTH",
"-48 26 OFFCURVE",
"9 -8 OFFCURVE",
"143 -8 CURVE SMOOTH"
);
}
);
};
layerId = "DE28931B-8CFB-452E-AAB2-BC9BAE33C973";
paths = (
{
closed = 1;
nodes = (
"284 -8 OFFCURVE",
"363 40 OFFCURVE",
"381 171 CURVE SMOOTH",
"384 191 OFFCURVE",
"385 208 OFFCURVE",
"385 223 CURVE SMOOTH",
"385 293 OFFCURVE",
"354 316 OFFCURVE",
"280 345 CURVE SMOOTH",
"237 362 OFFCURVE",
"209 369 OFFCURVE",
"209 410 CURVE SMOOTH",
"209 415 OFFCURVE",
"209 421 OFFCURVE",
"210 427 CURVE SMOOTH",
"214 456 OFFCURVE",
"220 481 OFFCURVE",
"237 481 CURVE SMOOTH",
"248 481 OFFCURVE",
"253 474 OFFCURVE",
"253 461 CURVE SMOOTH",
"252 447 OFFCURVE",
"252 426 OFFCURVE",
"247 399 CURVE SMOOTH",
"244 383 LINE",
"403 383 LINE",
"413 449 LINE SMOOTH",
"415 459 OFFCURVE",
"415 469 OFFCURVE",
"415 478 CURVE SMOOTH",
"415 555 OFFCURVE",
"359 593 OFFCURVE",
"251 593 CURVE SMOOTH",
"114 593 OFFCURVE",
"63 550 OFFCURVE",
"44 422 CURVE SMOOTH",
"41 402 OFFCURVE",
"39 384 OFFCURVE",
"39 368 CURVE SMOOTH",
"39 310 OFFCURVE",
"59 272 OFFCURVE",
"115 246 CURVE SMOOTH",
"180 216 OFFCURVE",
"208 204 OFFCURVE",
"208 156 CURVE SMOOTH",
"208 150 OFFCURVE",
"208 143 OFFCURVE",
"207 136 CURVE SMOOTH",
"204 113 OFFCURVE",
"200 98 OFFCURVE",
"196 91 CURVE SMOOTH",
"192 84 OFFCURVE",
"186 81 OFFCURVE",
"179 81 CURVE SMOOTH",
"168 81 OFFCURVE",
"163 88 OFFCURVE",
"163 105 CURVE SMOOTH",
"163 114 OFFCURVE",
"165 127 OFFCURVE",
"167 144 CURVE SMOOTH",
"173 188 LINE",
"6 188 LINE",
"3 169 LINE SMOOTH",
"0 150 OFFCURVE",
"-2 132 OFFCURVE",
"-2 116 CURVE SMOOTH",
"-2 21 OFFCURVE",
"55 -8 OFFCURVE",
"161 -8 CURVE SMOOTH"
);
},
{
closed = 1;
nodes = (
"161 39 OFFCURVE",
"140 41 OFFCURVE",
"132 42 CURVE SMOOTH",
"94 48 OFFCURVE",
"77 67 OFFCURVE",
"77 109 CURVE SMOOTH",
"77 123 OFFCURVE",
"79 141 OFFCURVE",
"83 161 CURVE",
"86 161 LINE",
"83 143 OFFCURVE",
"82 128 OFFCURVE",
"82 115 CURVE SMOOTH",
"82 72 OFFCURVE",
"97 52 OFFCURVE",
"133 45 CURVE SMOOTH",
"142 42 OFFCURVE",
"161 41 OFFCURVE",
"172 41 CURVE SMOOTH",
"187 41 OFFCURVE",
"207 43 OFFCURVE",
"218 46 CURVE SMOOTH",
"262 55 OFFCURVE",
"278 88 OFFCURVE",
"289 160 CURVE SMOOTH",
"291 173 OFFCURVE",
"292 184 OFFCURVE",
"292 194 CURVE SMOOTH",
"292 233 OFFCURVE",
"277 257 OFFCURVE",
"238 275 CURVE SMOOTH",
"210 288 LINE",
"182 300 LINE SMOOTH",
"140 318 OFFCURVE",
"119 350 OFFCURVE",
"119 396 CURVE SMOOTH",
"119 404 OFFCURVE",
"120 412 OFFCURVE",
"121 421 CURVE SMOOTH",
"132 493 OFFCURVE",
"157 524 OFFCURVE",
"209 533 CURVE SMOOTH",
"219 535 OFFCURVE",
"231 536 OFFCURVE",
"246 536 CURVE SMOOTH",
"257 536 OFFCURVE",
"268 535 OFFCURVE",
"277 534 CURVE SMOOTH",
"317 528 OFFCURVE",
"336 510 OFFCURVE",
"336 468 CURVE SMOOTH",
"336 455 OFFCURVE",
"334 439 OFFCURVE",
"330 421 CURVE",
"327 421 LINE",
"329 436 OFFCURVE",
"331 449 OFFCURVE",
"331 461 CURVE SMOOTH",
"331 504 OFFCURVE",
"314 525 OFFCURVE",
"276 531 CURVE SMOOTH",
"268 533 OFFCURVE",
"258 534 OFFCURVE",
"246 534 CURVE SMOOTH",
"233 534 OFFCURVE",
"219 533 OFFCURVE",
"208 530 CURVE SMOOTH",
"161 521 OFFCURVE",
"143 489 OFFCURVE",
"134 421 CURVE SMOOTH",
"132 410 OFFCURVE",
"132 399 OFFCURVE",
"132 389 CURVE SMOOTH",
"132 350 OFFCURVE",
"146 324 OFFCURVE",
"184 304 CURVE SMOOTH",
"211 290 LINE",
"241 279 LINE SMOOTH",
"283 264 OFFCURVE",
"303 235 OFFCURVE",
"303 189 CURVE SMOOTH",
"303 180 OFFCURVE",
"302 170 OFFCURVE",
"301 160 CURVE SMOOTH",
"290 84 OFFCURVE",
"267 54 OFFCURVE",
"219 43 CURVE SMOOTH",
"207 40 OFFCURVE",
"187 39 OFFCURVE",
"172 39 CURVE SMOOTH"
);
}
);
userData = {
assembly = "PUSHW[ ]	/* 4 values pushed */\01218 5 15 4 \012CALL[ ]	/* CallFunction */\012PUSHW[ ]	/* 3 values pushed */\01288 15 18 \012SRP1[ ]	/* SetRefPoint1 */\012SRP2[ ]	/* SetRefPoint2 */\012IP[ ]	/* InterpolatePts */\012SVTCA[0]	/* SetFreedomAndProjectionVectorToAxis */\012PUSHW[ ]	/* 1 value pushed */\0120 \012RCVT[ ]	/* ReadCVT */\012IF[ ]	/* If */\012PUSHW[ ]	/* 1 value pushed */\01241 \012MDAP[1]	/* MoveDirectAbsPt */\012ELSE[ ]	/* Else */\012PUSHW[ ]	/* 2 values pushed */\01241 13 \012MIAP[0]	/* MoveIndirectAbsPt */\012EIF[ ]	/* EndIf */\012PUSHW[ ]	/* 1 value pushed */\0120 \012RCVT[ ]	/* ReadCVT */\012IF[ ]	/* If */\012PUSHW[ ]	/* 1 value pushed */\01210 \012MDAP[1]	/* MoveDirectAbsPt */\012ELSE[ ]	/* Else */\012PUSHW[ ]	/* 2 values pushed */\01210 7 \012MIAP[0]	/* MoveIndirectAbsPt */\012EIF[ ]	/* EndIf */\012PUSHW[ ]	/* 2 values pushed */\01223 1 \012MIRP[10100]	/* MoveIndirectRelPt */\012NPUSHW[ ]	/* 15 values pushed */\0127 23 23 23 39 23 55 23 71 23 87 23 103 23 7 \012DELTAP1[ ]	/* DeltaExceptionP1 */\012NPUSHW[ ]	/* 5 values pushed */\012118 23 134 23 2 \012DELTAP1[ ]	/* DeltaExceptionP1 */\012PUSHW[ ]	/* 1 value pushed */\01241 \012SRP0[ ]	/* SetRefPoint0 */\012PUSHW[ ]	/* 2 values pushed */\01249 4 \012MIRP[10100]	/* MoveIndirectRelPt */\012NPUSHW[ ]	/* 9 values pushed */\0128 49 24 49 40 49 56 49 4 \012DELTAP1[ ]	/* DeltaExceptionP1 */\012PUSHW[ ]	/* 3 values pushed */\01288 10 41 \012SRP1[ ]	/* SetRefPoint1 */\012SRP2[ ]	/* SetRefPoint2 */\012IP[ ]	/* InterpolatePts */\012IUP[0]	/* InterpolateUntPts */\012IUP[1]	/* InterpolateUntPts */";
};
width = 406;
}
);
leftKerningGroup = S;
note = S;
rightKerningGroup = S;
unicode = 0053;
},
{
glyphname = Germandbls;
lastChange = "2021-11-30 13:20:42 +0000";
layers = (
{
background = {
paths = (
{
closed = 1;
nodes = (
"167 -25 LINE",
"240 507 LINE SMOOTH",
"242 521 OFFCURVE",
"249 523 OFFCURVE",
"286 523 CURVE SMOOTH",
"330 523 OFFCURVE",
"327 503 OFFCURVE",
"320 448 CURVE SMOOTH",
"318 435 LINE SMOOTH",
"312 396 OFFCURVE",
"305 373 OFFCURVE",
"283 373 CURVE SMOOTH",
"246 373 LINE",
"234 293 LINE",
"252 293 LINE SMOOTH",
"297 293 OFFCURVE",
"294 270 OFFCURVE",
"289 239 CURVE SMOOTH",
"282 186 LINE SMOOTH",
"269 94 OFFCURVE",
"264 78 OFFCURVE",
"227 78 CURVE SMOOTH",
"207 78 LINE",
"196 0 LINE",
"240 0 LINE SMOOTH",
"353 0 OFFCURVE",
"431 16 OFFCURVE",
"446 121 CURVE SMOOTH",
"463 244 LINE SMOOTH",
"471 303 OFFCURVE",
"421 334 OFFCURVE",
"373 338 CURVE",
"374 342 LINE",
"416 345 OFFCURVE",
"464 382 OFFCURVE",
"472 438 CURVE SMOOTH",
"481 498 LINE SMOOTH",
"491 571 OFFCURVE",
"423 596 OFFCURVE",
"294 596 CURVE SMOOTH",
"127 596 OFFCURVE",
"95 589 OFFCURVE",
"90 549 CURVE",
"10 -25 LINE"
);
}
);
};
layerId = "DE28931B-8CFB-452E-AAB2-BC9BAE33C973";
paths = (
{
closed = 1;
nodes = (
"160 -116 LINE",
"245 498 LINE SMOOTH",
"250 536 OFFCURVE",
"260 558 OFFCURVE",
"297 558 CURVE SMOOTH",
"327 558 OFFCURVE",
"335 549 OFFCURVE",
"335 526 CURVE SMOOTH",
"335 515 OFFCURVE",
"333 501 OFFCURVE",
"331 483 CURVE SMOOTH",
"324 435 LINE SMOOTH",
"318 396 OFFCURVE",
"311 373 OFFCURVE",
"289 373 CURVE SMOOTH",
"252 373 LINE",
"240 293 LINE",
"258 293 LINE SMOOTH",
"290 293 OFFCURVE",
"298 281 OFFCURVE",
"298 264 CURVE SMOOTH",
"298 256 OFFCURVE",
"296 248 OFFCURVE",
"295 239 CURVE SMOOTH",
"288 186 LINE SMOOTH",
"275 94 OFFCURVE",
"270 78 OFFCURVE",
"233 78 CURVE SMOOTH",
"213 78 LINE",
"202 0 LINE",
"246 0 LINE SMOOTH",
"359 0 OFFCURVE",
"437 16 OFFCURVE",
"452 121 CURVE SMOOTH",
"469 244 LINE SMOOTH",
"477 303 OFFCURVE",
"427 334 OFFCURVE",
"379 338 CURVE",
"380 342 LINE",
"422 345 OFFCURVE",
"470 382 OFFCURVE",
"478 438 CURVE SMOOTH",
"492 533 LINE SMOOTH",
"502 606 OFFCURVE",
"434 631 OFFCURVE",
"305 631 CURVE SMOOTH",
"138 631 OFFCURVE",
"102 597 OFFCURVE",
"92 522 CURVE",
"3 -116 LINE"
);
},
{
closed = 1;
nodes = (
"128 271 LINE",
"168 520 LINE SMOOTH",
"174 555 OFFCURVE",
"198 591 OFFCURVE",
"241 591 CURVE",
"240 589 LINE",
"206 586 OFFCURVE",
"180 564 OFFCURVE",
"173 517 CURVE",
"141 271 LINE",
"100 14 LINE",
"93 14 LINE"
);
},
{
closed = 1;
nodes = (
"243 41 LINE",
"243 43 LINE",
"275 44 LINE SMOOTH",
"341 46 OFFCURVE",
"352 81 OFFCURVE",
"367 187 CURVE SMOOTH",
"371 217 OFFCURVE",
"375 242 OFFCURVE",
"375 261 CURVE SMOOTH",
"375 290 OFFCURVE",
"366 305 OFFCURVE",
"338 305 CURVE",
"338 307 LINE",
"371 307 OFFCURVE",
"381 287 OFFCURVE",
"381 253 CURVE SMOOTH",
"381 235 OFFCURVE",
"378 213 OFFCURVE",
"375 187 CURVE SMOOTH",
"360 77 OFFCURVE",
"344 38 OFFCURVE",
"275 40 CURVE SMOOTH"
);
},
{
closed = 1;
nodes = (
"345 361 LINE",
"392 361 OFFCURVE",
"397 403 OFFCURVE",
"408 479 CURVE SMOOTH",
"411 503 OFFCURVE",
"413 522 OFFCURVE",
"413 537 CURVE SMOOTH",
"413 575 OFFCURVE",
"399 585 OFFCURVE",
"351 586 CURVE SMOOTH",
"319 587 LINE",
"319 589 LINE",
"351 589 LINE SMOOTH",
"404 589 OFFCURVE",
"421 578 OFFCURVE",
"421 534 CURVE SMOOTH",
"421 520 OFFCURVE",
"419 502 OFFCURVE",
"416 479 CURVE SMOOTH",
"406 405 OFFCURVE",
"396 359 OFFCURVE",
"345 359 CURVE"
);
}
);
width = 500;
}
);
unicode = 1E9E;
},
{
glyphname = Schwa;
lastChange = "2021-11-30 13:20:42 +0000";
layers = (
{
background = {
paths = (
{
closed = 1;
nodes = (
"270 -12 OFFCURVE",
"347 14 OFFCURVE",
"369 173 CURVE SMOOTH",
"410 465 LINE SMOOTH",
"424 564 OFFCURVE",
"356 600 OFFCURVE",
"247 600 CURVE SMOOTH",
"138 600 OFFCURVE",
"67 564 OFFCURVE",
"53 465 CURVE SMOOTH",
"34 327 LINE",
"193 327 LINE",
"213 473 LINE SMOOTH",
"216 496 OFFCURVE",
"224 503 OFFCURVE",
"233 503 CURVE SMOOTH",
"243 503 OFFCURVE",
"248 496 OFFCURVE",
"245 473 CURVE SMOOTH",
"194 110 LINE SMOOTH",
"191 87 OFFCURVE",
"184 80 OFFCURVE",
"174 80 CURVE SMOOTH",
"165 80 OFFCURVE",
"159 87 OFFCURVE",
"162 110 CURVE SMOOTH",
"182 248 LINE",
"23 248 LINE",
"12 174 LINE SMOOTH",
"-10 14 OFFCURVE",
"52 -12 OFFCURVE",
"161 -12 CURVE SMOOTH"
);
},
{
closed = 1;
nodes = (
"230 216 LINE",
"240 289 LINE",
"28 289 LINE",
"18 216 LINE"
);
}
);
};
layerId = "DE28931B-8CFB-452E-AAB2-BC9BAE33C973";
paths = (
{
closed = 1;
nodes = (
"268 -9 OFFCURVE",
"346 27 OFFCURVE",
"360 126 CURVE SMOOTH",
"401 418 LINE SMOOTH",
"404 439 OFFCURVE",
"405 457 OFFCURVE",
"405 473 CURVE SMOOTH",
"405 576 OFFCURVE",
"349 603 OFFCURVE",
"245 603 CURVE SMOOTH",
"125 603 OFFCURVE",
"65 567 OFFCURVE",
"44 417 CURVE SMOOTH",
"36 362 LINE",
"195 362 LINE",
"212 481 LINE SMOOTH",
"213 492 OFFCURVE",
"215 500 OFFCURVE",
"219 504 CURVE SMOOTH",
"223 509 OFFCURVE",
"227 511 OFFCURVE",
"232 511 CURVE SMOOTH",
"237 511 OFFCURVE",
"241 509 OFFCURVE",
"243 504 CURVE SMOOTH",
"244 502 OFFCURVE",
"245 498 OFFCURVE",
"245 493 CURVE SMOOTH",
"245 490 OFFCURVE",
"244 486 OFFCURVE",
"244 481 CURVE SMOOTH",
"193 118 LINE SMOOTH",
"191 107 OFFCURVE",
"189 99 OFFCURVE",
"186 94 CURVE SMOOTH",
"182 90 OFFCURVE",
"178 88 OFFCURVE",
"173 88 CURVE SMOOTH",
"168 88 OFFCURVE",
"164 90 OFFCURVE",
"162 94 CURVE SMOOTH",
"160 97 OFFCURVE",
"160 100 OFFCURVE",
"160 105 CURVE SMOOTH",
"160 109 OFFCURVE",
"160 113 OFFCURVE",
"161 118 CURVE SMOOTH",
"172 195 LINE",
"222 195 LINE",
"234 283 LINE",
"25 283 LINE",
"3 126 LINE SMOOTH",
"2 117 OFFCURVE",
"1 108 OFFCURVE",
"1 99 CURVE SMOOTH",
"1 20 OFFCURVE",
"60 -9 OFFCURVE",
"159 -9 CURVE SMOOTH"
);
},
{
closed = 1;
nodes = (
"138 43 OFFCURVE",
"134 44 OFFCURVE",
"130 45 CURVE SMOOTH",
"94 54 OFFCURVE",
"79 74 OFFCURVE",
"79 103 CURVE SMOOTH",
"79 107 OFFCURVE",
"79 113 OFFCURVE",
"80 118 CURVE SMOOTH",
"100 245 LINE",
"102 245 LINE",
"85 118 LINE SMOOTH",
"84 113 OFFCURVE",
"84 109 OFFCURVE",
"84 104 CURVE SMOOTH",
"84 77 OFFCURVE",
"98 57 OFFCURVE",
"131 49 CURVE SMOOTH",
"142 46 OFFCURVE",
"152 45 OFFCURVE",
"167 45 CURVE SMOOTH",
"181 45 OFFCURVE",
"194 47 OFFCURVE",
"206 50 CURVE SMOOTH",
"247 59 OFFCURVE",
"265 85 OFFCURVE",
"270 125 CURVE SMOOTH",
"290 297 LINE",
"313 435 LINE SMOOTH",
"316 450 OFFCURVE",
"317 463 OFFCURVE",
"317 474 CURVE SMOOTH",
"317 512 OFFCURVE",
"303 531 OFFCURVE",
"278 539 CURVE SMOOTH",
"266 543 OFFCURVE",
"253 545 OFFCURVE",
"237 545 CURVE SMOOTH",
"222 545 OFFCURVE",
"207 543 OFFCURVE",
"196 539 CURVE SMOOTH",
"155 527 OFFCURVE",
"138 499 OFFCURVE",
"128 435 CURVE SMOOTH",
"120 385 LINE",
"118 385 LINE",
"123 435 LINE SMOOTH",
"130 504 OFFCURVE",
"153 531 OFFCURVE",
"194 543 CURVE SMOOTH",
"207 547 OFFCURVE",
"221 547 OFFCURVE",
"237 547 CURVE SMOOTH",
"254 547 OFFCURVE",
"269 547 OFFCURVE",
"280 543 CURVE SMOOTH",
"307 534 OFFCURVE",
"319 514 OFFCURVE",
"319 472 CURVE SMOOTH",
"319 461 OFFCURVE",
"319 449 OFFCURVE",
"317 435 CURVE SMOOTH",
"303 297 LINE",
"274 125 LINE SMOOTH",
"267 82 OFFCURVE",
"248 55 OFFCURVE",
"206 46 CURVE SMOOTH",
"196 43 OFFCURVE",
"181 43 OFFCURVE",
"166 43 CURVE SMOOTH",
"145 43 LINE SMOOTH"
);
}
);
width = 397;
}
);
unicode = 018F;
},
{
glyphname = T;
lastChange = "2021-11-30 13:29:00 +0000";
layers = (
{
anchors = (
{
name = bottom;
position = "{142, 0}";
},
{
name = center;
position = "{187, 353}";
},
{
name = top;
position = "{223, 591}";
}
);
background = {
anchors = (
{
name = bottom;
position = "{112, 0}";
},
{
name = center;
position = "{166, 379}";
},
{
name = top;
position = "{195, 591}";
}
);
paths = (
{
closed = 1;
nodes = (
"191 0 LINE",
"259 480 LINE",
"344 480 LINE",
"360 591 LINE",
"31 591 LINE",
"15 480 LINE",
"100 480 LINE",
"32 0 LINE"
);
}
);
};
layerId = "DE28931B-8CFB-452E-AAB2-BC9BAE33C973";
paths = (
{
closed = 1;
nodes = (
"218 0 LINE",
"285 480 LINE",
"370 480 LINE",
"386 591 LINE",
"57 591 LINE",
"41 480 LINE",
"126 480 LINE",
"59 0 LINE"
);
},
{
closed = 1;
nodes = (
"173 300 LINE",
"210 536 LINE",
"102 538 LINE",
"102 540 LINE",
"214 542 LINE",
"330 540 LINE",
"330 538 LINE",
"215 536 LINE",
"186 300 LINE",
"146 47 LINE",
"141 47 LINE"
);
}
);
userData = {
assembly = "SVTCA[0]	/* SetFreedomAndProjectionVectorToAxis */\012PUSHW[ ]	/* 1 value pushed */\0120 \012RCVT[ ]	/* ReadCVT */\012IF[ ]	/* If */\012PUSHW[ ]	/* 1 value pushed */\01212 \012MDAP[1]	/* MoveDirectAbsPt */\012ELSE[ ]	/* Else */\012PUSHW[ ]	/* 2 values pushed */\01212 7 \012MIAP[0]	/* MoveIndirectAbsPt */\012EIF[ ]	/* EndIf */\012IUP[0]	/* InterpolateUntPts */\012IUP[1]	/* InterpolateUntPts */";
};
width = 346;
}
);
leftKerningGroup = T;
note = T;
rightKerningGroup = T;
unicode = 0054;
},
{
glyphname = U;
lastChange = "2021-11-30 13:29:00 +0000";
layers = (
{
anchors = (
{
name = bottom;
position = "{166, 0}";
},
{
name = ogonek;
position = "{232, 0}";
},
{
name = top;
position = "{251, 591}";
},
{
name = topright;
position = "{294, 591}";
}
);
background = {
anchors = (
{
name = bottom;
position = "{140, 0}";
},
{
name = ogonek;
position = "{201, 0}";
},
{
name = top;
position = "{223, 591}";
},
{
name = topright;
position = "{269, 591}";
}
);
paths = (
{
closed = 1;
nodes = (
"245 -12 OFFCURVE",
"317 4 OFFCURVE",
"339 164 CURVE SMOOTH",
"399 591 LINE",
"240 591 LINE",
"173 115 LINE SMOOTH",
"170 92 OFFCURVE",
"162 85 OFFCURVE",
"152 85 CURVE SMOOTH",
"142 85 OFFCURVE",
"136 92 OFFCURVE",
"139 115 CURVE SMOOTH",
"206 591 LINE",
"47 591 LINE",
"-13 163 LINE SMOOTH",
"-35 4 OFFCURVE",
"33 -12 OFFCURVE",
"139 -12 CURVE SMOOTH"
);
}
);
};
layerId = "DE28931B-8CFB-452E-AAB2-BC9BAE33C973";
paths = (
{
closed = 1;
nodes = (
"283 -12 OFFCURVE",
"344 15 OFFCURVE",
"365 164 CURVE SMOOTH",
"425 591 LINE",
"266 591 LINE",
"199 115 LINE SMOOTH",
"196 92 OFFCURVE",
"189 85 OFFCURVE",
"178 85 CURVE SMOOTH",
"173 85 OFFCURVE",
"169 87 OFFCURVE",
"167 92 CURVE SMOOTH",
"165 95 OFFCURVE",
"164 99 OFFCURVE",
"164 104 CURVE SMOOTH",
"164 108 OFFCURVE",
"164 111 OFFCURVE",
"165 115 CURVE SMOOTH",
"232 591 LINE",
"73 591 LINE",
"13 163 LINE SMOOTH",
"10 142 OFFCURVE",
"8 123 OFFCURVE",
"8 106 CURVE SMOOTH",
"8 8 OFFCURVE",
"61 -12 OFFCURVE",
"165 -12 CURVE SMOOTH"
);
},
{
closed = 1;
nodes = (
"102 45 OFFCURVE",
"83 65 OFFCURVE",
"83 101 CURVE SMOOTH",
"83 105 OFFCURVE",
"83 109 OFFCURVE",
"84 114 CURVE SMOOTH",
"104 300 LINE",
"145 547 LINE",
"149 547 LINE",
"118 301 LINE",
"88 114 LINE SMOOTH",
"87 108 OFFCURVE",
"87 103 OFFCURVE",
"87 98 CURVE SMOOTH",
"87 65 OFFCURVE",
"106 49 OFFCURVE",
"141 49 CURVE SMOOTH",
"146 49 OFFCURVE",
"151 49 OFFCURVE",
"156 49 CURVE SMOOTH",
"168 48 LINE",
"184 48 LINE SMOOTH",
"187 48 OFFCURVE",
"190 48 OFFCURVE",
"194 49 CURVE SMOOTH",
"208 49 LINE SMOOTH",
"249 50 OFFCURVE",
"274 71 OFFCURVE",
"279 114 CURVE SMOOTH",
"301 301 LINE",
"340 547 LINE",
"344 547 LINE",
"315 300 LINE",
"283 114 LINE SMOOTH",
"275 70 OFFCURVE",
"251 45 OFFCURVE",
"208 45 CURVE SMOOTH",
"184 45 LINE SMOOTH",
"181 45 OFFCURVE",
"179 45 OFFCURVE",
"177 46 CURVE",
"174 45 OFFCURVE",
"171 45 OFFCURVE",
"168 45 CURVE SMOOTH",
"141 45 LINE SMOOTH"
);
}
);
userData = {
assembly = "PUSHW[ ]	/* 4 values pushed */\0121 5 26 4 \012CALL[ ]	/* CallFunction */\012PUSHW[ ]	/* 1 value pushed */\0121 \012SRP0[ ]	/* SetRefPoint0 */\012PUSHW[ ]	/* 1 value pushed */\01257 \012MDRP[11100]	/* MoveDirectRelPt */\012IUP[0]	/* InterpolateUntPts */\012IUP[1]	/* InterpolateUntPts */";
};
width = 402;
}
);
leftKerningGroup = U;
leftMetricsKey = "=O+5";
note = U;
rightKerningGroup = U;
rightMetricsKey = "=O+5";
unicode = 0055;
},
{
glyphname = V;
lastChange = "2021-11-30 13:29:00 +0000";
layers = (
{
background = {
paths = (
{
closed = 1;
nodes = (
"265 0 LINE",
"437 591 LINE",
"278 591 LINE",
"176 157 LINE",
"174 157 LINE",
"199 591 LINE",
"34 591 LINE",
"36 0 LINE"
);
}
);
};
layerId = "DE28931B-8CFB-452E-AAB2-BC9BAE33C973";
paths = (
{
closed = 1;
nodes = (
"288 0 LINE",
"459 591 LINE",
"300 591 LINE",
"197 157 LINE",
"221 591 LINE",
"56 591 LINE",
"59 0 LINE"
);
},
{
closed = 1;
nodes = (
"126 312 LINE",
"132 547 LINE",
"136 547 LINE",
"139 313 LINE",
"138 51 LINE",
"183 50 LINE",
"229 51 LINE",
"299 314 LINE",
"363 547 LINE",
"367 547 LINE",
"312 314 LINE",
"232 47 LINE",
"182 49 LINE",
"133 47 LINE"
);
}
);
userData = {
assembly = "SVTCA[0]	/* SetFreedomAndProjectionVectorToAxis */\012PUSHW[ ]	/* 1 value pushed */\0120 \012RCVT[ ]	/* ReadCVT */\012IF[ ]	/* If */\012PUSHW[ ]	/* 1 value pushed */\0122 \012MDAP[1]	/* MoveDirectAbsPt */\012ELSE[ ]	/* Else */\012PUSHW[ ]	/* 2 values pushed */\0122 7 \012MIAP[0]	/* MoveIndirectAbsPt */\012EIF[ ]	/* EndIf */\012IUP[0]	/* InterpolateUntPts */\012IUP[1]	/* InterpolateUntPts */";
};
width = 419;
}
);
leftKerningGroup = V;
note = V;
rightKerningGroup = V;
unicode = 0056;
},
{
glyphname = W;
lastChange = "2021-11-30 13:29:00 +0000";
layers = (
{
anchors = (
{
name = bottom;
position = "{289, 0}";
},
{
name = top;
position = "{365, 591}";
}
);
background = {
anchors = (
{
name = bottom;
position = "{257, 0}";
},
{
name = top;
position = "{340, 591}";
}
);
paths = (
{
closed = 1;
nodes = (
"217 0 LINE",
"292 258 LINE",
"294 0 LINE",
"480 0 LINE",
"650 591 LINE",
"485 591 LINE",
"389 200 LINE",
"406 591 LINE",
"273 591 LINE",
"180 200 LINE",
"194 591 LINE",
"29 591 LINE",
"31 0 LINE"
);
}
);
};
layerId = "DE28931B-8CFB-452E-AAB2-BC9BAE33C973";
paths = (
{
closed = 1;
nodes = (
"245 0 LINE",
"319 258 LINE",
"322 0 LINE",
"508 0 LINE",
"677 591 LINE",
"512 591 LINE",
"416 200 LINE",
"433 591 LINE",
"300 591 LINE",
"207 200 LINE",
"221 591 LINE",
"56 591 LINE",
"59 0 LINE"
);
},
{
closed = 1;
nodes = (
"131 294 LINE",
"131 547 LINE",
"135 547 LINE",
"142 297 LINE",
"141 47 LINE",
"139 47 LINE"
);
},
{
closed = 1;
nodes = (
"228 125 LINE SMOOTH",
"235 148 OFFCURVE",
"243 175 OFFCURVE",
"252 205 CURVE SMOOTH",
"279 295 LINE SMOOTH",
"293 343 OFFCURVE",
"317 413 OFFCURVE",
"330 451 CURVE SMOOTH",
"341 485 OFFCURVE",
"354 531 OFFCURVE",
"354 525 CURVE SMOOTH",
"358 453 LINE SMOOTH",
"360 410 OFFCURVE",
"363 353 OFFCURVE",
"366 294 CURVE SMOOTH",
"367 263 OFFCURVE",
"368 233 OFFCURVE",
"369 204 CURVE SMOOTH",
"370 125 LINE SMOOTH",
"371 98 OFFCURVE",
"371 72 OFFCURVE",
"371 47 CURVE",
"369 47 LINE",
"356 293 LINE",
"352 511 LINE",
"346 489 OFFCURVE",
"340 466 OFFCURVE",
"333 442 CURVE SMOOTH",
"313 373 LINE SMOOTH",
"306 347 OFFCURVE",
"298 321 OFFCURVE",
"289 294 CURVE SMOOTH",
"270 234 OFFCURVE",
"250 172 OFFCURVE",
"234 125 CURVE SMOOTH",
"207 47 LINE",
"205 47 LINE"
);
},
{
closed = 1;
nodes = (
"504 297 LINE",
"581 547 LINE",
"585 547 LINE",
"515 294 LINE",
"437 47 LINE",
"435 47 LINE"
);
}
);
userData = {
assembly = "SVTCA[0]	/* SetFreedomAndProjectionVectorToAxis */\012PUSHW[ ]	/* 1 value pushed */\0120 \012RCVT[ ]	/* ReadCVT */\012IF[ ]	/* If */\012PUSHW[ ]	/* 1 value pushed */\0123 \012MDAP[1]	/* MoveDirectAbsPt */\012ELSE[ ]	/* Else */\012PUSHW[ ]	/* 2 values pushed */\0123 7 \012MIAP[0]	/* MoveIndirectAbsPt */\012EIF[ ]	/* EndIf */\012PUSHW[ ]	/* 1 value pushed */\0120 \012RCVT[ ]	/* ReadCVT */\012IF[ ]	/* If */\012PUSHW[ ]	/* 1 value pushed */\0126 \012MDAP[1]	/* MoveDirectAbsPt */\012ELSE[ ]	/* Else */\012PUSHW[ ]	/* 2 values pushed */\0126 7 \012MIAP[0]	/* MoveIndirectAbsPt */\012EIF[ ]	/* EndIf */\012IUP[0]	/* InterpolateUntPts */\012IUP[1]	/* InterpolateUntPts */";
};
width = 637;
}
);
leftKerningGroup = W;
note = W;
rightKerningGroup = W;
unicode = 0057;
},
{
glyphname = X;
lastChange = "2021-11-30 13:29:00 +0000";
layers = (
{
background = {
paths = (
{
closed = 1;
nodes = (
"102 0 LINE",
"153 154 LINE",
"166 0 LINE",
"325 0 LINE",
"294 307 LINE",
"411 591 LINE",
"242 591 LINE",
"191 436 LINE",
"178 591 LINE",
"19 591 LINE",
"58 307 LINE",
"-67 0 LINE"
);
}
);
};
layerId = "DE28931B-8CFB-452E-AAB2-BC9BAE33C973";
paths = (
{
closed = 1;
nodes = (
"138 0 LINE",
"188 154 LINE",
"202 0 LINE",
"361 0 LINE",
"329 307 LINE",
"446 591 LINE",
"277 591 LINE",
"226 436 LINE",
"213 591 LINE",
"54 591 LINE",
"93 307 LINE",
"-31 0 LINE"
);
},
{
closed = 1;
nodes = (
"173 307 LINE",
"173 311 OFFCURVE",
"157 398 OFFCURVE",
"153 429 CURVE SMOOTH",
"135 547 LINE",
"138 547 LINE",
"181 310 LINE",
"209 308 LINE",
"238 310 LINE",
"347 547 LINE",
"350 547 LINE",
"331 503 OFFCURVE",
"314 464 OFFCURVE",
"299 429 CURVE SMOOTH",
"287 402 OFFCURVE",
"246 308 OFFCURVE",
"246 307 CURVE SMOOTH",
"275 47 LINE",
"272 47 LINE",
"236 305 LINE",
"209 307 LINE",
"180 305 LINE",
"73 47 LINE",
"70 47 LINE"
);
}
);
userData = {
assembly = "SVTCA[0]	/* SetFreedomAndProjectionVectorToAxis */\012PUSHW[ ]	/* 1 value pushed */\0120 \012RCVT[ ]	/* ReadCVT */\012IF[ ]	/* If */\012PUSHW[ ]	/* 1 value pushed */\01228 \012MDAP[1]	/* MoveDirectAbsPt */\012ELSE[ ]	/* Else */\012PUSHW[ ]	/* 2 values pushed */\01228 7 \012MIAP[0]	/* MoveIndirectAbsPt */\012EIF[ ]	/* EndIf */\012PUSHW[ ]	/* 1 value pushed */\0120 \012RCVT[ ]	/* ReadCVT */\012IF[ ]	/* If */\012PUSHW[ ]	/* 1 value pushed */\01237 \012MDAP[1]	/* MoveDirectAbsPt */\012ELSE[ ]	/* Else */\012PUSHW[ ]	/* 2 values pushed */\01237 7 \012MIAP[0]	/* MoveIndirectAbsPt */\012EIF[ ]	/* EndIf */\012IUP[0]	/* InterpolateUntPts */\012IUP[1]	/* InterpolateUntPts */";
};
width = 402;
}
);
leftKerningGroup = X;
note = X;
rightKerningGroup = X;
unicode = 0058;
},
{
glyphname = Y;
lastChange = "2021-11-30 13:20:42 +0000";
layers = (
{
anchors = (
{
name = bottom;
position = "{161, 0}";
},
{
name = top;
position = "{245, 591}";
},
{
name = topleft;
position = "{37, 591}";
}
);
background = {
anchors = (
{
name = bottom;
position = "{130, 0}";
},
{
name = top;
position = "{213, 591}";
},
{
name = topleft;
position = "{37, 591}";
}
);
paths = (
{
closed = 1;
nodes = (
"207 0 LINE",
"241 236 LINE",
"405 591 LINE",
"261 591 LINE",
"210 467 LINE",
"194 415 LINE",
"192 467 LINE",
"178 591 LINE",
"21 591 LINE",
"83 245 LINE",
"48 0 LINE"
);
}
);
};
layerId = "DE28931B-8CFB-452E-AAB2-BC9BAE33C973";
paths = (
{
closed = 1;
nodes = (
"239 0 LINE",
"272 236 LINE",
"436 591 LINE",
"292 591 LINE",
"241 467 LINE",
"225 415 LINE",
"223 467 LINE",
"209 591 LINE",
"52 591 LINE",
"114 245 LINE",
"80 0 LINE"
);
},
{
closed = 1;
nodes = (
"188 238 LINE SMOOTH",
"188 242 OFFCURVE",
"167 360 OFFCURVE",
"161 395 CURVE SMOOTH",
"154 440 OFFCURVE",
"145 490 OFFCURVE",
"134 547 CURVE",
"137 547 LINE",
"196 252 LINE",
"339 547 LINE",
"342 547 LINE",
"272 395 LINE SMOOTH",
"254 356 OFFCURVE",
"200 242 OFFCURVE",
"200 238 CURVE",
"168 47 LINE",
"166 47 LINE"
);
}
);
userData = {
assembly = "SVTCA[0]	/* SetFreedomAndProjectionVectorToAxis */\012PUSHW[ ]	/* 1 value pushed */\0120 \012RCVT[ ]	/* ReadCVT */\012IF[ ]	/* If */\012PUSHW[ ]	/* 1 value pushed */\0122 \012MDAP[1]	/* MoveDirectAbsPt */\012ELSE[ ]	/* Else */\012PUSHW[ ]	/* 2 values pushed */\0122 7 \012MIAP[0]	/* MoveIndirectAbsPt */\012EIF[ ]	/* EndIf */\012IUP[0]	/* InterpolateUntPts */\012IUP[1]	/* InterpolateUntPts */";
};
width = 392;
}
);
leftKerningGroup = Y;
note = Y;
rightKerningGroup = Y;
unicode = 0059;
},
{
glyphname = Z;
lastChange = "2021-11-30 13:20:42 +0000";
layers = (
{
anchors = (
{
name = bottom;
position = "{109, 0}";
},
{
name = center;
position = "{130, 296}";
},
{
name = top;
position = "{202, 591}";
}
);
background = {
anchors = (
{
name = bottom;
position = "{88, 0}";
},
{
name = center;
position = "{130, 296}";
},
{
name = top;
position = "{171, 591}";
}
);
paths = (
{
closed = 1;
nodes = (
"225 0 LINE",
"241 111 LINE",
"126 111 LINE",
"298 516 LINE",
"309 591 LINE",
"31 591 LINE",
"15 480 LINE",
"112 480 LINE",
"-49 98 LINE",
"-63 0 LINE"
);
}
);
};
layerId = "DE28931B-8CFB-452E-AAB2-BC9BAE33C973";
paths = (
{
closed = 1;
nodes = (
"257 0 LINE",
"272 111 LINE",
"157 111 LINE",
"329 516 LINE",
"340 591 LINE",
"62 591 LINE",
"46 480 LINE",
"143 480 LINE",
"-18 98 LINE",
"-31 0 LINE"
);
},
{
closed = 1;
nodes = (
"145 307 LINE",
"245 535 LINE",
"101 536 LINE",
"101 538 LINE",
"250 540 LINE",
"157 304 LINE",
"47 55 LINE",
"212 54 LINE",
"212 52 LINE",
"42 50 LINE"
);
}
);
userData = {
assembly = "SVTCA[0]	/* SetFreedomAndProjectionVectorToAxis */\012PUSHW[ ]	/* 1 value pushed */\0120 \012RCVT[ ]	/* ReadCVT */\012IF[ ]	/* If */\012PUSHW[ ]	/* 1 value pushed */\01210 \012MDAP[1]	/* MoveDirectAbsPt */\012ELSE[ ]	/* Else */\012PUSHW[ ]	/* 2 values pushed */\01210 7 \012MIAP[0]	/* MoveIndirectAbsPt */\012EIF[ ]	/* EndIf */\012PUSHW[ ]	/* 2 values pushed */\01217 4 \012MIRP[10100]	/* MoveIndirectRelPt */\012PUSHW[ ]	/* 3 values pushed */\0126 10 17 \012SRP1[ ]	/* SetRefPoint1 */\012SRP2[ ]	/* SetRefPoint2 */\012IP[ ]	/* InterpolatePts */\012PUSHW[ ]	/* 3 values pushed */\0128 10 17 \012SRP1[ ]	/* SetRefPoint1 */\012SRP2[ ]	/* SetRefPoint2 */\012IP[ ]	/* InterpolatePts */\012PUSHW[ ]	/* 3 values pushed */\0129 10 17 \012SRP1[ ]	/* SetRefPoint1 */\012SRP2[ ]	/* SetRefPoint2 */\012IP[ ]	/* InterpolatePts */\012IUP[0]	/* InterpolateUntPts */\012IUP[1]	/* InterpolateUntPts */";
};
width = 308;
}
);
leftKerningGroup = Z;
note = Z;
rightKerningGroup = Z;
unicode = 005A;
},
{
glyphname = a;
lastChange = "2021-11-30 13:29:00 +0000";
layers = (
{
anchors = (
{
name = bottom;
position = "{151, 0}";
},
{
name = ogonek;
position = "{328, 0}";
},
{
name = top;
position = "{235, 495}";
}
);
background = {
anchors = (
{
name = bottom;
position = "{142, 0}";
},
{
name = ogonek;
position = "{303, 0}";
},
{
name = top;
position = "{216, 495}";
}
);
paths = (
{
closed = 1;
nodes = (
"160 -8 OFFCURVE",
"183 23 OFFCURVE",
"199 47 CURVE",
"191 0 LINE",
"312 0 LINE",
"382 495 LINE",
"227 495 LINE",
"222 459 LINE",
"212 476 OFFCURVE",
"196 500 OFFCURVE",
"143 500 CURVE SMOOTH",
"106 500 OFFCURVE",
"36 489 OFFCURVE",
"22 391 CURVE SMOOTH",
"-12 153 LINE SMOOTH",
"-33 3 OFFCURVE",
"29 -8 OFFCURVE",
"102 -8 CURVE SMOOTH"
);
},
{
closed = 1;
nodes = (
"135 81 OFFCURVE",
"134 93 OFFCURVE",
"138 123 CURVE SMOOTH",
"172 359 LINE SMOOTH",
"179 401 OFFCURVE",
"182 409 OFFCURVE",
"198 409 CURVE SMOOTH",
"206 409 OFFCURVE",
"210 407 OFFCURVE",
"214 405 CURVE",
"176 138 LINE SMOOTH",
"173 115 OFFCURVE",
"169 81 OFFCURVE",
"150 81 CURVE SMOOTH"
);
}
);
};
layerId = "DE28931B-8CFB-452E-AAB2-BC9BAE33C973";
paths = (
{
closed = 1;
nodes = (
"172 -7 OFFCURVE",
"195 20 OFFCURVE",
"217 47 CURVE",
"210 0 LINE",
"331 0 LINE",
"401 494 LINE",
"245 494 LINE",
"241 460 LINE",
"232 479 OFFCURVE",
"214 500 OFFCURVE",
"161 500 CURVE SMOOTH",
"111 500 OFFCURVE",
"53 477 OFFCURVE",
"41 391 CURVE SMOOTH",
"7 154 LINE SMOOTH",
"4 133 OFFCURVE",
"3 115 OFFCURVE",
"3 98 CURVE SMOOTH",
"3 12 OFFCURVE",
"45 -7 OFFCURVE",
"122 -7 CURVE SMOOTH"
);
},
{
closed = 1;
nodes = (
"97 33 OFFCURVE",
"68 61 OFFCURVE",
"73 103 CURVE SMOOTH",
"90 245 LINE",
"112 383 LINE SMOOTH",
"120 433 OFFCURVE",
"158 457 OFFCURVE",
"205 457 CURVE",
"205 455 LINE",
"169 455 OFFCURVE",
"125 428 OFFCURVE",
"122 389 CURVE",
"104 245 LINE",
"81 102 LINE SMOOTH",
"80 98 OFFCURVE",
"80 93 OFFCURVE",
"80 89 CURVE SMOOTH",
"80 54 OFFCURVE",
"106 35 OFFCURVE",
"128 35 CURVE",
"128 33 LINE"
);
},
{
closed = 1;
nodes = (
"164 80 OFFCURVE",
"160 82 OFFCURVE",
"158 87 CURVE SMOOTH",
"156 90 OFFCURVE",
"155 94 OFFCURVE",
"155 99 CURVE SMOOTH",
"155 103 OFFCURVE",
"155 106 OFFCURVE",
"156 110 CURVE SMOOTH",
"195 378 LINE SMOOTH",
"198 401 OFFCURVE",
"205 408 OFFCURVE",
"216 408 CURVE SMOOTH",
"220 408 OFFCURVE",
"224 407 OFFCURVE",
"228 406 CURVE SMOOTH",
"233 405 LINE",
"190 110 LINE SMOOTH",
"187 87 OFFCURVE",
"180 80 OFFCURVE",
"169 80 CURVE SMOOTH"
);
},
{
closed = 1;
nodes = (
"277 240 LINE",
"309 429 LINE",
"313 429 LINE",
"290 240 LINE",
"258 47 LINE",
"254 47 LINE"
);
}
);
userData = {
assembly = "SVTCA[0]	/* SetFreedomAndProjectionVectorToAxis */\012PUSHW[ ]	/* 1 value pushed */\0120 \012RCVT[ ]	/* ReadCVT */\012IF[ ]	/* If */\012PUSHW[ ]	/* 1 value pushed */\01217 \012MDAP[1]	/* MoveDirectAbsPt */\012ELSE[ ]	/* Else */\012PUSHW[ ]	/* 2 values pushed */\01217 11 \012MIAP[0]	/* MoveIndirectAbsPt */\012EIF[ ]	/* EndIf */\012PUSHW[ ]	/* 1 value pushed */\0120 \012RCVT[ ]	/* ReadCVT */\012IF[ ]	/* If */\012PUSHW[ ]	/* 1 value pushed */\01221 \012MDAP[1]	/* MoveDirectAbsPt */\012ELSE[ ]	/* Else */\012PUSHW[ ]	/* 2 values pushed */\01221 11 \012MIAP[0]	/* MoveIndirectAbsPt */\012EIF[ ]	/* EndIf */\012PUSHW[ ]	/* 1 value pushed */\0120 \012RCVT[ ]	/* ReadCVT */\012IF[ ]	/* If */\012PUSHW[ ]	/* 1 value pushed */\0126 \012MDAP[1]	/* MoveDirectAbsPt */\012ELSE[ ]	/* Else */\012PUSHW[ ]	/* 2 values pushed */\0126 7 \012MIAP[0]	/* MoveIndirectAbsPt */\012EIF[ ]	/* EndIf */\012PUSHW[ ]	/* 1 value pushed */\0120 \012RCVT[ ]	/* ReadCVT */\012IF[ ]	/* If */\012PUSHW[ ]	/* 1 value pushed */\01223 \012MDAP[1]	/* MoveDirectAbsPt */\012ELSE[ ]	/* Else */\012PUSHW[ ]	/* 2 values pushed */\01223 7 \012MIAP[0]	/* MoveIndirectAbsPt */\012EIF[ ]	/* EndIf */\012PUSHW[ ]	/* 1 value pushed */\0126 \012SRP0[ ]	/* SetRefPoint0 */\012PUSHW[ ]	/* 2 values pushed */\01230 1 \012MIRP[10100]	/* MoveIndirectRelPt */\012NPUSHW[ ]	/* 15 values pushed */\0127 30 23 30 39 30 55 30 71 30 87 30 103 30 7 \012DELTAP1[ ]	/* DeltaExceptionP1 */\012NPUSHW[ ]	/* 5 values pushed */\012118 30 134 30 2 \012DELTAP1[ ]	/* DeltaExceptionP1 */\012PUSHW[ ]	/* 3 values pushed */\0122 6 30 \012SRP1[ ]	/* SetRefPoint1 */\012SRP2[ ]	/* SetRefPoint2 */\012IP[ ]	/* InterpolatePts */\012PUSHW[ ]	/* 1 value pushed */\01221 \012SRP0[ ]	/* SetRefPoint0 */\012PUSHW[ ]	/* 2 values pushed */\01238 1 \012MIRP[10100]	/* MoveIndirectRelPt */\012NPUSHW[ ]	/* 5 values pushed */\012121 38 137 38 2 \012DELTAP1[ ]	/* DeltaExceptionP1 */\012NPUSHW[ ]	/* 15 values pushed */\0128 38 24 38 40 38 56 38 72 38 88 38 104 38 7 \012DELTAP1[ ]	/* DeltaExceptionP1 */\012PUSHW[ ]	/* 3 values pushed */\0125 21 38 \012SRP1[ ]	/* SetRefPoint1 */\012SRP2[ ]	/* SetRefPoint2 */\012IP[ ]	/* InterpolatePts */\012PUSHW[ ]	/* 3 values pushed */\01225 6 30 \012SRP1[ ]	/* SetRefPoint1 */\012SRP2[ ]	/* SetRefPoint2 */\012IP[ ]	/* InterpolatePts */\012PUSHW[ ]	/* 3 values pushed */\01256 6 30 \012SRP1[ ]	/* SetRefPoint1 */\012SRP2[ ]	/* SetRefPoint2 */\012IP[ ]	/* InterpolatePts */\012IUP[0]	/* InterpolateUntPts */\012IUP[1]	/* InterpolateUntPts */";
};
width = 391;
}
);
leftKerningGroup = o;
leftMetricsKey = o;
note = a;
rightKerningGroup = d;
rightMetricsKey = "=n+5";
unicode = 0061;
},
{
glyphname = ae;
lastChange = "2021-11-30 13:29:00 +0000";
layers = (
{
anchors = (
{
name = bottom;
position = "{232, 0}";
},
{
name = top;
position = "{334, 494}";
}
);
background = {
anchors = (
{
name = bottom;
position = "{228, 0}";
},
{
name = top;
position = "{311, 495}";
}
);
paths = (
{
closed = 1;
nodes = (
"109 -7 OFFCURVE",
"164 13 OFFCURVE",
"196 78 CURVE",
"280 0 LINE",
"334 386 LINE SMOOTH",
"345 464 OFFCURVE",
"317 505 OFFCURVE",
"205 505 CURVE SMOOTH",
"68 505 OFFCURVE",
"39 452 OFFCURVE",
"29 378 CURVE SMOOTH",
"21 321 LINE",
"162 321 LINE",
"168 363 LINE SMOOTH",
"175 410 OFFCURVE",
"179 423 OFFCURVE",
"193 423 CURVE SMOOTH",
"207 423 OFFCURVE",
"209 412 OFFCURVE",
"207 397 CURVE SMOOTH",
"202 365 LINE SMOOTH",
"194 311 OFFCURVE",
"178 308 OFFCURVE",
"118 289 CURVE SMOOTH",
"50 267 OFFCURVE",
"-1 239 OFFCURVE",
"-10 170 CURVE SMOOTH",
"-21 89 LINE SMOOTH",
"-34 -10 OFFCURVE",
"34 -7 OFFCURVE",
"63 -7 CURVE SMOOTH"
);
},
{
closed = 1;
nodes = (
"131 93 OFFCURVE",
"132 111 OFFCURVE",
"135 129 CURVE SMOOTH",
"144 190 LINE SMOOTH",
"146 207 OFFCURVE",
"151 214 OFFCURVE",
"161 224 CURVE SMOOTH",
"170 232 OFFCURVE",
"181 236 OFFCURVE",
"185 241 CURVE",
"171 140 LINE SMOOTH",
"166 106 OFFCURVE",
"163 93 OFFCURVE",
"147 93 CURVE SMOOTH"
);
},
{
closed = 1;
nodes = (
"433 -2 OFFCURVE",
"500 7 OFFCURVE",
"523 167 CURVE SMOOTH",
"526 188 LINE",
"370 188 LINE",
"358 98 LINE SMOOTH",
"355 75 OFFCURVE",
"347 68 OFFCURVE",
"337 68 CURVE SMOOTH",
"327 68 OFFCURVE",
"321 75 OFFCURVE",
"324 98 CURVE SMOOTH",
"343 233 LINE",
"533 233 LINE",
"552 373 LINE SMOOTH",
"565 472 OFFCURVE",
"509 503 OFFCURVE",
"398 503 CURVE SMOOTH",
"300 503 OFFCURVE",
"236 445 OFFCURVE",
"226 373 CURVE SMOOTH",
"197 166 LINE SMOOTH",
"175 7 OFFCURVE",
"233 -2 OFFCURVE",
"327 -2 CURVE SMOOTH"
);
},
{
closed = 1;
nodes = (
"365 393 LINE SMOOTH",
"368 416 OFFCURVE",
"376 423 OFFCURVE",
"386 423 CURVE SMOOTH",
"396 423 OFFCURVE",
"402 416 OFFCURVE",
"399 393 CURVE SMOOTH",
"386 300 LINE",
"352 300 LINE"
);
}
);
};
layerId = "DE28931B-8CFB-452E-AAB2-BC9BAE33C973";
paths = (
{
closed = 1;
nodes = (
"468 -12 OFFCURVE",
"525 18 OFFCURVE",
"546 167 CURVE SMOOTH",
"549 188 LINE",
"393 188 LINE",
"380 98 LINE SMOOTH",
"377 75 OFFCURVE",
"370 68 OFFCURVE",
"359 68 CURVE SMOOTH",
"350 68 OFFCURVE",
"345 73 OFFCURVE",
"345 86 CURVE SMOOTH",
"345 90 OFFCURVE",
"345 94 OFFCURVE",
"346 98 CURVE SMOOTH",
"364 224 LINE",
"399 225 OFFCURVE",
"432 230 OFFCURVE",
"461 241 CURVE SMOOTH",
"521 263 OFFCURVE",
"577 309 OFFCURVE",
"577 399 CURVE SMOOTH",
"577 477 OFFCURVE",
"520 503 OFFCURVE",
"420 503 CURVE SMOOTH",
"387 503 OFFCURVE",
"359 500 OFFCURVE",
"334 494 CURVE",
"245 494 LINE",
"241 460 LINE",
"232 479 OFFCURVE",
"214 500 OFFCURVE",
"161 500 CURVE SMOOTH",
"111 500 OFFCURVE",
"53 477 OFFCURVE",
"41 391 CURVE SMOOTH",
"7 154 LINE SMOOTH",
"4 133 OFFCURVE",
"3 115 OFFCURVE",
"3 98 CURVE SMOOTH",
"3 12 OFFCURVE",
"45 -7 OFFCURVE",
"122 -7 CURVE SMOOTH",
"170 -7 OFFCURVE",
"197 20 OFFCURVE",
"210 37 CURVE",
"211 36 OFFCURVE",
"212 34 OFFCURVE",
"213 34 CURVE SMOOTH",
"214 30 LINE",
"210 0 LINE",
"254 0 LINE",
"279 -11 OFFCURVE",
"312 -12 OFFCURVE",
"349 -12 CURVE SMOOTH"
);
},
{
closed = 1;
nodes = (
"97 33 OFFCURVE",
"68 61 OFFCURVE",
"73 103 CURVE SMOOTH",
"90 245 LINE",
"112 383 LINE SMOOTH",
"120 433 OFFCURVE",
"158 457 OFFCURVE",
"205 457 CURVE",
"205 455 LINE",
"169 455 OFFCURVE",
"125 428 OFFCURVE",
"122 389 CURVE",
"104 245 LINE",
"81 102 LINE SMOOTH",
"80 98 OFFCURVE",
"80 93 OFFCURVE",
"80 89 CURVE SMOOTH",
"80 54 OFFCURVE",
"106 35 OFFCURVE",
"128 35 CURVE",
"128 33 LINE"
);
},
{
closed = 1;
nodes = (
"164 80 OFFCURVE",
"160 82 OFFCURVE",
"158 87 CURVE SMOOTH",
"156 90 OFFCURVE",
"155 94 OFFCURVE",
"155 99 CURVE SMOOTH",
"155 103 OFFCURVE",
"155 106 OFFCURVE",
"156 110 CURVE SMOOTH",
"195 378 LINE SMOOTH",
"198 401 OFFCURVE",
"205 408 OFFCURVE",
"216 408 CURVE SMOOTH",
"220 408 OFFCURVE",
"224 407 OFFCURVE",
"228 406 CURVE SMOOTH",
"233 405 LINE",
"190 110 LINE SMOOTH",
"187 87 OFFCURVE",
"180 80 OFFCURVE",
"169 80 CURVE SMOOTH"
);
},
{
closed = 1;
nodes = (
"373 35 LINE",
"420 35 OFFCURVE",
"450 72 OFFCURVE",
"456 113 CURVE SMOOTH",
"462 157 LINE",
"470 157 LINE",
"464 113 LINE SMOOTH",
"458 69 OFFCURVE",
"421 33 OFFCURVE",
"373 33 CURVE"
);
},
{
closed = 1;
nodes = (
"287 33 OFFCURVE",
"257 61 OFFCURVE",
"262 103 CURVE SMOOTH",
"280 245 LINE",
"302 383 LINE SMOOTH",
"310 432 OFFCURVE",
"348 457 OFFCURVE",
"395 457 CURVE",
"395 455 LINE",
"357 455 OFFCURVE",
"316 429 OFFCURVE",
"311 389 CURVE SMOOTH",
"294 245 LINE",
"271 102 LINE SMOOTH",
"270 97 OFFCURVE",
"270 93 OFFCURVE",
"270 89 CURVE SMOOTH",
"270 54 OFFCURVE",
"295 35 OFFCURVE",
"317 35 CURVE",
"317 33 LINE"
);
},
{
closed = 1;
nodes = (
"388 393 LINE SMOOTH",
"391 416 OFFCURVE",
"398 423 OFFCURVE",
"409 423 CURVE SMOOTH",
"414 423 OFFCURVE",
"418 421 OFFCURVE",
"421 417 CURVE SMOOTH",
"422 414 OFFCURVE",
"423 410 OFFCURVE",
"423 405 CURVE SMOOTH",
"423 402 OFFCURVE",
"422 398 OFFCURVE",
"422 393 CURVE SMOOTH",
"415 349 OFFCURVE",
"405 325 OFFCURVE",
"394 313 CURVE SMOOTH",
"388 306 OFFCURVE",
"382 301 OFFCURVE",
"375 300 CURVE"
);
},
{
closed = 1;
nodes = (
"399 268 LINE",
"444 268 OFFCURVE",
"480 336 OFFCURVE",
"487 364 CURVE SMOOTH",
"491 380 OFFCURVE",
"493 393 OFFCURVE",
"493 405 CURVE SMOOTH",
"493 439 OFFCURVE",
"477 456 OFFCURVE",
"442 456 CURVE",
"442 458 LINE",
"480 458 OFFCURVE",
"500 439 OFFCURVE",
"500 400 CURVE SMOOTH",
"500 389 OFFCURVE",
"498 377 OFFCURVE",
"495 363 CURVE SMOOTH",
"485 319 OFFCURVE",
"441 265 OFFCURVE",
"398 265 CURVE"
);
}
);
userData = {
assembly = "PUSHW[ ]	/* 4 values pushed */\01247 5 14 4 \012CALL[ ]	/* CallFunction */\012PUSHW[ ]	/* 3 values pushed */\0126 14 47 \012SRP1[ ]	/* SetRefPoint1 */\012SRP2[ ]	/* SetRefPoint2 */\012IP[ ]	/* InterpolatePts */\012PUSHW[ ]	/* 1 value pushed */\0126 \012MDAP[1]	/* MoveDirectAbsPt */\012PUSHW[ ]	/* 1 value pushed */\01214 \012SRP0[ ]	/* SetRefPoint0 */\012PUSHW[ ]	/* 1 value pushed */\01210 \012MDRP[10000]	/* MoveDirectRelPt */\012PUSHW[ ]	/* 3 values pushed */\01231 14 47 \012SRP1[ ]	/* SetRefPoint1 */\012SRP2[ ]	/* SetRefPoint2 */\012IP[ ]	/* InterpolatePts */\012PUSHW[ ]	/* 1 value pushed */\0126 \012SRP0[ ]	/* SetRefPoint0 */\012PUSHW[ ]	/* 1 value pushed */\01248 \012MDRP[10000]	/* MoveDirectRelPt */\012PUSHW[ ]	/* 1 value pushed */\01248 \012MDAP[1]	/* MoveDirectAbsPt */\012PUSHW[ ]	/* 1 value pushed */\0126 \012SRP0[ ]	/* SetRefPoint0 */\012PUSHW[ ]	/* 2 values pushed */\01267 5 \012MIRP[10100]	/* MoveIndirectRelPt */\012PUSHW[ ]	/* 1 value pushed */\01259 \012MDRP[10000]	/* MoveDirectRelPt */\012PUSHW[ ]	/* 1 value pushed */\01259 \012MDAP[1]	/* MoveDirectAbsPt */\012PUSHW[ ]	/* 3 values pushed */\012116 14 47 \012SRP1[ ]	/* SetRefPoint1 */\012SRP2[ ]	/* SetRefPoint2 */\012IP[ ]	/* InterpolatePts */\012SVTCA[0]	/* SetFreedomAndProjectionVectorToAxis */\012PUSHW[ ]	/* 1 value pushed */\0120 \012RCVT[ ]	/* ReadCVT */\012IF[ ]	/* If */\012PUSHW[ ]	/* 1 value pushed */\01228 \012MDAP[1]	/* MoveDirectAbsPt */\012ELSE[ ]	/* Else */\012PUSHW[ ]	/* 2 values pushed */\01228 11 \012MIAP[0]	/* MoveIndirectAbsPt */\012EIF[ ]	/* EndIf */\012PUSHW[ ]	/* 1 value pushed */\0120 \012RCVT[ ]	/* ReadCVT */\012IF[ ]	/* If */\012PUSHW[ ]	/* 1 value pushed */\01232 \012MDAP[1]	/* MoveDirectAbsPt */\012ELSE[ ]	/* Else */\012PUSHW[ ]	/* 2 values pushed */\01232 11 \012MIAP[0]	/* MoveIndirectAbsPt */\012EIF[ ]	/* EndIf */\012PUSHW[ ]	/* 1 value pushed */\0120 \012RCVT[ ]	/* ReadCVT */\012IF[ ]	/* If */\012PUSHW[ ]	/* 1 value pushed */\01235 \012MDAP[1]	/* MoveDirectAbsPt */\012ELSE[ ]	/* Else */\012PUSHW[ ]	/* 2 values pushed */\01235 11 \012MIAP[0]	/* MoveIndirectAbsPt */\012EIF[ ]	/* EndIf */\012PUSHW[ ]	/* 1 value pushed */\0120 \012RCVT[ ]	/* ReadCVT */\012IF[ ]	/* If */\012PUSHW[ ]	/* 1 value pushed */\0129 \012MDAP[1]	/* MoveDirectAbsPt */\012ELSE[ ]	/* Else */\012PUSHW[ ]	/* 2 values pushed */\0129 7 \012MIAP[0]	/* MoveIndirectAbsPt */\012EIF[ ]	/* EndIf */\012PUSHW[ ]	/* 1 value pushed */\0120 \012RCVT[ ]	/* ReadCVT */\012IF[ ]	/* If */\012PUSHW[ ]	/* 1 value pushed */\01217 \012MDAP[1]	/* MoveDirectAbsPt */\012ELSE[ ]	/* Else */\012PUSHW[ ]	/* 2 values pushed */\01217 7 \012MIAP[0]	/* MoveIndirectAbsPt */\012EIF[ ]	/* EndIf */\012PUSHW[ ]	/* 1 value pushed */\0120 \012RCVT[ ]	/* ReadCVT */\012IF[ ]	/* If */\012PUSHW[ ]	/* 1 value pushed */\0126 \012MDAP[1]	/* MoveDirectAbsPt */\012ELSE[ ]	/* Else */\012PUSHW[ ]	/* 2 values pushed */\0126 7 \012MIAP[0]	/* MoveIndirectAbsPt */\012EIF[ ]	/* EndIf */\012PUSHW[ ]	/* 1 value pushed */\01217 \012SRP0[ ]	/* SetRefPoint0 */\012PUSHW[ ]	/* 2 values pushed */\01256 1 \012MIRP[10100]	/* MoveIndirectRelPt */\012NPUSHW[ ]	/* 15 values pushed */\0127 56 23 56 39 56 55 56 71 56 87 56 103 56 7 \012DELTAP1[ ]	/* DeltaExceptionP1 */\012NPUSHW[ ]	/* 5 values pushed */\012118 56 134 56 2 \012DELTAP1[ ]	/* DeltaExceptionP1 */\012PUSHW[ ]	/* 3 values pushed */\01214 17 56 \012SRP1[ ]	/* SetRefPoint1 */\012SRP2[ ]	/* SetRefPoint2 */\012IP[ ]	/* InterpolatePts */\012PUSHW[ ]	/* 1 value pushed */\01232 \012SRP0[ ]	/* SetRefPoint0 */\012PUSHW[ ]	/* 2 values pushed */\01264 1 \012MIRP[10100]	/* MoveIndirectRelPt */\012NPUSHW[ ]	/* 5 values pushed */\012121 64 137 64 2 \012DELTAP1[ ]	/* DeltaExceptionP1 */\012NPUSHW[ ]	/* 15 values pushed */\0128 64 24 64 40 64 56 64 72 64 88 64 104 64 7 \012DELTAP1[ ]	/* DeltaExceptionP1 */\012PUSHW[ ]	/* 3 values pushed */\01282 17 56 \012SRP1[ ]	/* SetRefPoint1 */\012SRP2[ ]	/* SetRefPoint2 */\012IP[ ]	/* InterpolatePts */\012PUSHW[ ]	/* 3 values pushed */\01293 6 35 \012SRP1[ ]	/* SetRefPoint1 */\012SRP2[ ]	/* SetRefPoint2 */\012IP[ ]	/* InterpolatePts */\012PUSHW[ ]	/* 3 values pushed */\012116 17 56 \012SRP1[ ]	/* SetRefPoint1 */\012SRP2[ ]	/* SetRefPoint2 */\012IP[ ]	/* InterpolatePts */\012PUSHW[ ]	/* 3 values pushed */\012127 6 35 \012SRP1[ ]	/* SetRefPoint1 */\012SRP2[ ]	/* SetRefPoint2 */\012IP[ ]	/* InterpolatePts */\012PUSHW[ ]	/* 3 values pushed */\012135 32 64 \012SRP1[ ]	/* SetRefPoint1 */\012SRP2[ ]	/* SetRefPoint2 */\012IP[ ]	/* InterpolatePts */\012PUSHW[ ]	/* 3 values pushed */\012149 17 56 \012SRP1[ ]	/* SetRefPoint1 */\012SRP2[ ]	/* SetRefPoint2 */\012IP[ ]	/* InterpolatePts */\012IUP[0]	/* InterpolateUntPts */\012IUP[1]	/* InterpolateUntPts */";
};
width = 568;
}
);
leftMetricsKey = a;
note = ae;
rightMetricsKey = e;
unicode = 00E6;
},
{
glyphname = b;
lastChange = "2021-11-30 13:29:00 +0000";
layers = (
{
background = {
paths = (
{
closed = 1;
nodes = (
"254 -7 OFFCURVE",
"316 3 OFFCURVE",
"337 154 CURVE SMOOTH",
"370 391 LINE SMOOTH",
"384 489 OFFCURVE",
"327 505 OFFCURVE",
"278 505 CURVE SMOOTH",
"228 505 OFFCURVE",
"205 479 OFFCURVE",
"190 460 CURVE",
"214 630 LINE",
"58 630 LINE",
"-31 0 LINE",
"79 0 LINE",
"88 43 LINE",
"94 26 OFFCURVE",
"120 -7 OFFCURVE",
"178 -7 CURVE SMOOTH"
);
},
{
closed = 1;
nodes = (
"143 98 OFFCURVE",
"141 110 OFFCURVE",
"144 133 CURVE SMOOTH",
"178 378 LINE SMOOTH",
"182 401 OFFCURVE",
"190 408 OFFCURVE",
"200 408 CURVE SMOOTH",
"210 408 OFFCURVE",
"216 401 OFFCURVE",
"212 378 CURVE SMOOTH",
"178 133 LINE SMOOTH",
"175 110 OFFCURVE",
"171 98 OFFCURVE",
"156 98 CURVE SMOOTH"
);
}
);
};
layerId = "DE28931B-8CFB-452E-AAB2-BC9BAE33C973";
paths = (
{
closed = 1;
nodes = (
"282 -7 OFFCURVE",
"337 10 OFFCURVE",
"357 154 CURVE SMOOTH",
"390 391 LINE SMOOTH",
"391 401 OFFCURVE",
"392 410 OFFCURVE",
"392 418 CURVE SMOOTH",
"392 485 OFFCURVE",
"350 503 OFFCURVE",
"295 503 CURVE SMOOTH",
"249 503 OFFCURVE",
"230 483 OFFCURVE",
"210 460 CURVE",
"234 630 LINE",
"79 630 LINE",
"6 111 LINE SMOOTH",
"4 101 OFFCURVE",
"4 92 OFFCURVE",
"4 84 CURVE SMOOTH",
"4 8 OFFCURVE",
"68 -7 OFFCURVE",
"155 -7 CURVE SMOOTH"
);
},
{
closed = 1;
nodes = (
"164 80 OFFCURVE",
"159 84 OFFCURVE",
"159 97 CURVE SMOOTH",
"159 101 OFFCURVE",
"159 105 OFFCURVE",
"160 110 CURVE SMOOTH",
"198 378 LINE SMOOTH",
"201 401 OFFCURVE",
"209 408 OFFCURVE",
"220 408 CURVE SMOOTH",
"225 408 OFFCURVE",
"229 406 OFFCURVE",
"231 402 CURVE SMOOTH",
"232 399 OFFCURVE",
"233 395 OFFCURVE",
"233 390 CURVE SMOOTH",
"233 387 OFFCURVE",
"232 383 OFFCURVE",
"232 378 CURVE SMOOTH",
"194 110 LINE SMOOTH",
"190 87 OFFCURVE",
"184 80 OFFCURVE",
"173 80 CURVE SMOOTH"
);
},
{
closed = 1;
nodes = (
"109 333 LINE",
"151 591 LINE",
"155 591 LINE",
"122 333 LINE",
"81 85 LINE",
"77 85 LINE"
);
},
{
closed = 1;
nodes = (
"163 40 LINE",
"172 37 OFFCURVE",
"181 35 OFFCURVE",
"189 35 CURVE SMOOTH",
"229 35 OFFCURVE",
"263 70 OFFCURVE",
"270 125 CURVE SMOOTH",
"283 245 LINE",
"306 383 LINE SMOOTH",
"307 389 OFFCURVE",
"308 394 OFFCURVE",
"308 399 CURVE SMOOTH",
"308 428 OFFCURVE",
"291 449 OFFCURVE",
"262 449 CURVE SMOOTH",
"254 449 OFFCURVE",
"245 447 OFFCURVE",
"236 444 CURVE",
"237 446 LINE",
"248 450 OFFCURVE",
"258 451 OFFCURVE",
"267 451 CURVE SMOOTH",
"298 451 OFFCURVE",
"315 429 OFFCURVE",
"315 398 CURVE SMOOTH",
"315 393 OFFCURVE",
"315 388 OFFCURVE",
"314 383 CURVE SMOOTH",
"298 245 LINE",
"277 122 LINE SMOOTH",
"267 66 OFFCURVE",
"233 32 OFFCURVE",
"193 32 CURVE SMOOTH",
"184 32 OFFCURVE",
"174 34 OFFCURVE",
"164 38 CURVE"
);
}
);
userData = {
assembly = "SVTCA[0]	/* SetFreedomAndProjectionVectorToAxis */\012PUSHW[ ]	/* 1 value pushed */\0120 \012RCVT[ ]	/* ReadCVT */\012IF[ ]	/* If */\012PUSHW[ ]	/* 1 value pushed */\01230 \012MDAP[1]	/* MoveDirectAbsPt */\012ELSE[ ]	/* Else */\012PUSHW[ ]	/* 2 values pushed */\01230 7 \012MIAP[0]	/* MoveIndirectAbsPt */\012EIF[ ]	/* EndIf */\012PUSHW[ ]	/* 2 values pushed */\01225 1 \012MIRP[10100]	/* MoveIndirectRelPt */\012PUSHW[ ]	/* 3 values pushed */\01213 30 25 \012SRP1[ ]	/* SetRefPoint1 */\012SRP2[ ]	/* SetRefPoint2 */\012IP[ ]	/* InterpolatePts */\012PUSHW[ ]	/* 1 value pushed */\01254 \012MDRP[10000]	/* MoveDirectRelPt */\012IUP[0]	/* InterpolateUntPts */\012IUP[1]	/* InterpolateUntPts */";
};
width = 390;
}
);
leftKerningGroup = b;
leftMetricsKey = n;
note = b;
rightKerningGroup = o;
rightMetricsKey = o;
unicode = 0062;
},
{
glyphname = c;
lastChange = "2021-11-30 13:29:00 +0000";
layers = (
{
anchors = (
{
name = bottom;
position = "{163, 0}";
},
{
name = top;
position = "{227, 495}";
}
);
background = {
anchors = (
{
name = bottom;
position = "{128, 0}";
},
{
name = top;
position = "{198, 495}";
}
);
paths = (
{
closed = 1;
nodes = (
"235 -12 OFFCURVE",
"304 7 OFFCURVE",
"327 167 CURVE SMOOTH",
"333 213 LINE",
"177 213 LINE",
"161 98 LINE SMOOTH",
"158 75 OFFCURVE",
"150 68 OFFCURVE",
"140 68 CURVE SMOOTH",
"130 68 OFFCURVE",
"124 75 OFFCURVE",
"127 98 CURVE SMOOTH",
"169 393 LINE SMOOTH",
"172 416 OFFCURVE",
"180 423 OFFCURVE",
"190 423 CURVE SMOOTH",
"200 423 OFFCURVE",
"206 416 OFFCURVE",
"203 393 CURVE SMOOTH",
"189 294 LINE",
"345 294 LINE",
"356 373 LINE SMOOTH",
"370 472 OFFCURVE",
"312 503 OFFCURVE",
"201 503 CURVE SMOOTH",
"90 503 OFFCURVE",
"24 472 OFFCURVE",
"10 373 CURVE SMOOTH",
"-19 166 LINE SMOOTH",
"-42 7 OFFCURVE",
"23 -12 OFFCURVE",
"129 -12 CURVE SMOOTH"
);
}
);
};
layerId = "DE28931B-8CFB-452E-AAB2-BC9BAE33C973";
paths = (
{
closed = 1;
nodes = (
"276 -12 OFFCURVE",
"336 18 OFFCURVE",
"355 167 CURVE SMOOTH",
"361 213 LINE",
"205 213 LINE",
"189 98 LINE SMOOTH",
"186 75 OFFCURVE",
"179 68 OFFCURVE",
"168 68 CURVE SMOOTH",
"163 68 OFFCURVE",
"159 70 OFFCURVE",
"157 75 CURVE SMOOTH",
"155 78 OFFCURVE",
"154 82 OFFCURVE",
"154 87 CURVE SMOOTH",
"154 91 OFFCURVE",
"154 94 OFFCURVE",
"155 98 CURVE SMOOTH",
"196 393 LINE SMOOTH",
"199 416 OFFCURVE",
"207 423 OFFCURVE",
"218 423 CURVE SMOOTH",
"223 423 OFFCURVE",
"227 421 OFFCURVE",
"230 417 CURVE SMOOTH",
"231 415 OFFCURVE",
"231 412 OFFCURVE",
"231 409 CURVE SMOOTH",
"231 405 OFFCURVE",
"231 399 OFFCURVE",
"230 393 CURVE SMOOTH",
"217 294 LINE",
"373 294 LINE",
"384 373 LINE SMOOTH",
"385 383 OFFCURVE",
"386 392 OFFCURVE",
"386 400 CURVE SMOOTH",
"386 478 OFFCURVE",
"328 503 OFFCURVE",
"229 503 CURVE SMOOTH",
"118 503 OFFCURVE",
"52 472 OFFCURVE",
"38 373 CURVE SMOOTH",
"9 166 LINE SMOOTH",
"6 145 OFFCURVE",
"4 126 OFFCURVE",
"4 109 CURVE SMOOTH",
"4 10 OFFCURVE",
"57 -12 OFFCURVE",
"157 -12 CURVE SMOOTH"
);
},
{
closed = 1;
nodes = (
"182 35 LINE",
"229 35 OFFCURVE",
"258 72 OFFCURVE",
"264 113 CURVE SMOOTH",
"274 185 LINE",
"282 185 LINE",
"272 113 LINE SMOOTH",
"266 69 OFFCURVE",
"230 33 OFFCURVE",
"182 33 CURVE"
);
},
{
closed = 1;
nodes = (
"95 33 OFFCURVE",
"66 61 OFFCURVE",
"71 103 CURVE SMOOTH",
"88 245 LINE",
"110 383 LINE SMOOTH",
"118 432 OFFCURVE",
"155 457 OFFCURVE",
"202 457 CURVE",
"202 455 LINE",
"166 455 OFFCURVE",
"122 428 OFFCURVE",
"119 389 CURVE",
"102 245 LINE",
"79 102 LINE SMOOTH",
"78 98 OFFCURVE",
"78 93 OFFCURVE",
"78 89 CURVE SMOOTH",
"78 54 OFFCURVE",
"104 35 OFFCURVE",
"126 35 CURVE",
"126 33 LINE"
);
},
{
closed = 1;
nodes = (
"302 382 LINE SMOOTH",
"303 388 OFFCURVE",
"303 395 OFFCURVE",
"303 400 CURVE SMOOTH",
"303 432 OFFCURVE",
"289 456 OFFCURVE",
"249 456 CURVE",
"250 458 LINE",
"292 458 OFFCURVE",
"311 433 OFFCURVE",
"311 398 CURVE SMOOTH",
"311 393 OFFCURVE",
"311 387 OFFCURVE",
"310 382 CURVE SMOOTH",
"303 334 LINE",
"295 334 LINE"
);
}
);
userData = {
assembly = "PUSHW[ ]	/* 4 values pushed */\01221 5 26 4 \012CALL[ ]	/* CallFunction */\012PUSHW[ ]	/* 3 values pushed */\01265 26 21 \012SRP1[ ]	/* SetRefPoint1 */\012SRP2[ ]	/* SetRefPoint2 */\012IP[ ]	/* InterpolatePts */\012PUSHW[ ]	/* 1 value pushed */\01221 \012SRP0[ ]	/* SetRefPoint0 */\012PUSHW[ ]	/* 1 value pushed */\01281 \012MDRP[11100]	/* MoveDirectRelPt */\012IUP[0]	/* InterpolateUntPts */\012IUP[1]	/* InterpolateUntPts */";
};
width = 381;
}
);
leftKerningGroup = o;
leftMetricsKey = o;
note = c;
rightKerningGroup = c;
rightMetricsKey = "=o-5";
unicode = 0063;
},
{
glyphname = d;
lastChange = "2021-11-30 13:29:00 +0000";
layers = (
{
anchors = (
{
name = bottom;
position = "{158, 0}";
},
{
name = center;
position = "{312, 554}";
},
{
name = top;
position = "{335, 630}";
},
{
name = topright;
position = "{413, 485}";
}
);
background = {
anchors = (
{
name = bottom;
position = "{138, 0}";
},
{
name = center;
position = "{173, 248}";
},
{
name = top;
position = "{227, 630}";
},
{
name = topright;
position = "{390, 485}";
}
);
paths = (
{
closed = 1;
nodes = (
"155 -7 OFFCURVE",
"184 33 OFFCURVE",
"194 47 CURVE",
"203 0 LINE",
"308 0 LINE",
"397 630 LINE",
"241 630 LINE",
"217 460 LINE",
"208 479 OFFCURVE",
"190 500 OFFCURVE",
"137 500 CURVE SMOOTH",
"103 500 OFFCURVE",
"31 489 OFFCURVE",
"17 391 CURVE SMOOTH",
"-16 154 LINE SMOOTH",
"-37 3 OFFCURVE",
"22 -7 OFFCURVE",
"97 -7 CURVE SMOOTH"
);
},
{
closed = 1;
nodes = (
"136 80 OFFCURVE",
"131 87 OFFCURVE",
"134 110 CURVE SMOOTH",
"171 378 LINE SMOOTH",
"174 401 OFFCURVE",
"183 408 OFFCURVE",
"193 408 CURVE SMOOTH",
"202 408 OFFCURVE",
"209 405 OFFCURVE",
"209 405 CURVE",
"195 307 OFFCURVE",
"181 208 OFFCURVE",
"168 110 CURVE SMOOTH",
"164 87 OFFCURVE",
"156 80 OFFCURVE",
"146 80 CURVE SMOOTH"
);
}
);
};
layerId = "DE28931B-8CFB-452E-AAB2-BC9BAE33C973";
paths = (
{
closed = 1;
nodes = (
"260 -7 OFFCURVE",
"333 12 OFFCURVE",
"347 111 CURVE SMOOTH",
"420 630 LINE",
"264 630 LINE",
"240 460 LINE",
"230 484 OFFCURVE",
"210 503 OFFCURVE",
"167 503 CURVE SMOOTH",
"106 503 OFFCURVE",
"53 481 OFFCURVE",
"40 391 CURVE SMOOTH",
"7 154 LINE SMOOTH",
"4 133 OFFCURVE",
"3 115 OFFCURVE",
"3 100 CURVE SMOOTH",
"3 5 OFFCURVE",
"54 -7 OFFCURVE",
"165 -7 CURVE SMOOTH"
);
},
{
closed = 1;
nodes = (
"157 34 OFFCURVE",
"146 32 OFFCURVE",
"137 32 CURVE SMOOTH",
"101 32 OFFCURVE",
"78 58 OFFCURVE",
"78 104 CURVE SMOOTH",
"78 110 OFFCURVE",
"78 116 OFFCURVE",
"79 122 CURVE SMOOTH",
"92 245 LINE",
"116 383 LINE SMOOTH",
"123 422 OFFCURVE",
"147 451 OFFCURVE",
"183 451 CURVE SMOOTH",
"192 451 OFFCURVE",
"201 450 OFFCURVE",
"211 446 CURVE",
"210 444 LINE",
"201 447 OFFCURVE",
"193 449 OFFCURVE",
"185 449 CURVE SMOOTH",
"151 449 OFFCURVE",
"128 419 OFFCURVE",
"124 383 CURVE SMOOTH",
"107 245 LINE",
"88 125 LINE SMOOTH",
"87 117 OFFCURVE",
"86 110 OFFCURVE",
"86 102 CURVE SMOOTH",
"86 60 OFFCURVE",
"108 35 OFFCURVE",
"141 35 CURVE SMOOTH",
"149 35 OFFCURVE",
"158 37 OFFCURVE",
"167 40 CURVE",
"168 38 LINE"
);
},
{
closed = 1;
nodes = (
"160 80 OFFCURVE",
"155 85 OFFCURVE",
"155 98 CURVE SMOOTH",
"155 102 OFFCURVE",
"155 106 OFFCURVE",
"156 110 CURVE SMOOTH",
"194 378 LINE SMOOTH",
"197 401 OFFCURVE",
"205 408 OFFCURVE",
"216 408 CURVE SMOOTH",
"221 408 OFFCURVE",
"225 406 OFFCURVE",
"227 402 CURVE SMOOTH",
"228 399 OFFCURVE",
"229 395 OFFCURVE",
"229 389 CURVE SMOOTH",
"229 386 OFFCURVE",
"229 382 OFFCURVE",
"228 378 CURVE SMOOTH",
"190 110 LINE SMOOTH",
"187 87 OFFCURVE",
"180 80 OFFCURVE",
"169 80 CURVE SMOOTH"
);
},
{
closed = 1;
nodes = (
"291 333 LINE",
"332 591 LINE",
"336 591 LINE",
"304 333 LINE",
"264 85 LINE",
"260 85 LINE"
);
}
);
userData = {
assembly = "SVTCA[0]	/* SetFreedomAndProjectionVectorToAxis */\012PUSHW[ ]	/* 1 value pushed */\0120 \012RCVT[ ]	/* ReadCVT */\012IF[ ]	/* If */\012PUSHW[ ]	/* 1 value pushed */\01230 \012MDAP[1]	/* MoveDirectAbsPt */\012ELSE[ ]	/* Else */\012PUSHW[ ]	/* 2 values pushed */\01230 7 \012MIAP[0]	/* MoveIndirectAbsPt */\012EIF[ ]	/* EndIf */\012PUSHW[ ]	/* 4 values pushed */\01241 1 61 4 \012CALL[ ]	/* CallFunction */\012PUSHW[ ]	/* 1 value pushed */\01230 \012SRP0[ ]	/* SetRefPoint0 */\012PUSHW[ ]	/* 2 values pushed */\0123 1 \012MIRP[10100]	/* MoveIndirectRelPt */\012PUSHW[ ]	/* 3 values pushed */\01217 30 3 \012SRP1[ ]	/* SetRefPoint1 */\012SRP2[ ]	/* SetRefPoint2 */\012IP[ ]	/* InterpolatePts */\012PUSHW[ ]	/* 3 values pushed */\01246 61 41 \012SRP1[ ]	/* SetRefPoint1 */\012SRP2[ ]	/* SetRefPoint2 */\012IP[ ]	/* InterpolatePts */\012PUSHW[ ]	/* 1 value pushed */\01254 \012MDRP[10000]	/* MoveDirectRelPt */\012IUP[0]	/* InterpolateUntPts */\012IUP[1]	/* InterpolateUntPts */";
};
width = 391;
}
);
leftKerningGroup = o;
leftMetricsKey = o;
note = d;
rightKerningGroup = d;
unicode = 0064;
},
{
glyphname = eth;
lastChange = "2021-11-26 10:44:26 +0000";
layers = (
{
background = {
paths = (
{
closed = 1;
nodes = (
"243 -8 OFFCURVE",
"311 11 OFFCURVE",
"334 171 CURVE SMOOTH",
"361 358 LINE SMOOTH",
"393 590 OFFCURVE",
"371 662 OFFCURVE",
"209 662 CURVE SMOOTH",
"151 662 OFFCURVE",
"119 657 OFFCURVE",
"92 651 CURVE",
"78 553 LINE",
"116 559 OFFCURVE",
"138 562 OFFCURVE",
"166 562 CURVE SMOOTH",
"213 562 OFFCURVE",
"226 521 OFFCURVE",
"220 479 CURVE",
"209 479 OFFCURVE",
"199 479 OFFCURVE",
"188 479 CURVE SMOOTH",
"94 479 OFFCURVE",
"27 448 OFFCURVE",
"13 349 CURVE SMOOTH",
"-12 170 LINE SMOOTH",
"-35 11 OFFCURVE",
"29 -8 OFFCURVE",
"136 -8 CURVE SMOOTH"
);
},
{
closed = 1;
nodes = (
"136 72 OFFCURVE",
"131 79 OFFCURVE",
"134 102 CURVE SMOOTH",
"172 369 LINE SMOOTH",
"175 392 OFFCURVE",
"182 399 OFFCURVE",
"193 399 CURVE SMOOTH",
"204 399 OFFCURVE",
"209 392 OFFCURVE",
"206 369 CURVE SMOOTH",
"168 102 LINE SMOOTH",
"165 79 OFFCURVE",
"158 72 OFFCURVE",
"147 72 CURVE SMOOTH"
);
},
{
closed = 1;
nodes = (
"372 651 LINE",
"342 691 LINE",
"118 528 LINE",
"146 487 LINE"
);
}
);
};
layerId = "DE28931B-8CFB-452E-AAB2-BC9BAE33C973";
paths = (
{
closed = 1;
nodes = (
"276 -12 OFFCURVE",
"333 18 OFFCURVE",
"355 167 CURVE SMOOTH",
"382 358 LINE SMOOTH",
"389 416 OFFCURVE",
"393 463 OFFCURVE",
"393 502 CURVE SMOOTH",
"393 537 OFFCURVE",
"389 565 OFFCURVE",
"382 587 CURVE SMOOTH",
"367 631 OFFCURVE",
"338 650 OFFCURVE",
"293 657 CURVE",
"327 707 LINE",
"261 707 LINE",
"229 662 LINE",
"224 662 LINE SMOOTH",
"183 662 OFFCURVE",
"154 661 OFFCURVE",
"137 658 CURVE SMOOTH",
"120 655 OFFCURVE",
"112 653 OFFCURVE",
"113 652 CURVE",
"113 651 OFFCURVE",
"112 646 OFFCURVE",
"111 636 CURVE SMOOTH",
"106 602 LINE SMOOTH",
"103 587 OFFCURVE",
"101 571 OFFCURVE",
"99 553 CURVE",
"117 556 LINE SMOOTH",
"128 559 OFFCURVE",
"143 560 OFFCURVE",
"160 561 CURVE",
"118 500 LINE",
"184 500 LINE",
"220 551 LINE",
"237 535 OFFCURVE",
"241 506 OFFCURVE",
"241 479 CURVE",
"226 479 LINE SMOOTH",
"115 479 OFFCURVE",
"47 448 OFFCURVE",
"34 349 CURVE SMOOTH",
"9 166 LINE SMOOTH",
"6 144 OFFCURVE",
"4 125 OFFCURVE",
"4 108 CURVE SMOOTH",
"4 10 OFFCURVE",
"57 -12 OFFCURVE",
"157 -12 CURVE SMOOTH"
);
},
{
closed = 1;
nodes = (
"104 23 OFFCURVE",
"74 42 OFFCURVE",
"74 100 CURVE SMOOTH",
"74 107 OFFCURVE",
"74 114 OFFCURVE",
"75 122 CURVE SMOOTH",
"89 245 LINE",
"107 363 LINE SMOOTH",
"114 405 OFFCURVE",
"136 436 OFFCURVE",
"178 436 CURVE SMOOTH",
"184 436 OFFCURVE",
"191 436 OFFCURVE",
"199 434 CURVE",
"199 432 LINE",
"193 433 OFFCURVE",
"187 434 OFFCURVE",
"182 434 CURVE SMOOTH",
"141 434 OFFCURVE",
"120 403 OFFCURVE",
"115 363 CURVE SMOOTH",
"104 245 LINE",
"84 125 LINE SMOOTH",
"82 114 OFFCURVE",
"81 104 OFFCURVE",
"81 95 CURVE SMOOTH",
"81 46 OFFCURVE",
"108 25 OFFCURVE",
"159 25 CURVE",
"158 23 LINE"
);
},
{
closed = 1;
nodes = (
"163 68 OFFCURVE",
"159 70 OFFCURVE",
"157 75 CURVE SMOOTH",
"155 78 OFFCURVE",
"154 82 OFFCURVE",
"154 87 CURVE SMOOTH",
"154 90 OFFCURVE",
"155 94 OFFCURVE",
"155 98 CURVE SMOOTH",
"193 369 LINE SMOOTH",
"196 392 OFFCURVE",
"203 399 OFFCURVE",
"214 399 CURVE SMOOTH",
"219 399 OFFCURVE",
"223 397 OFFCURVE",
"226 393 CURVE SMOOTH",
"227 390 OFFCURVE",
"228 386 OFFCURVE",
"228 381 CURVE SMOOTH",
"228 378 OFFCURVE",
"227 374 OFFCURVE",
"227 369 CURVE SMOOTH",
"189 98 LINE SMOOTH",
"186 75 OFFCURVE",
"179 68 OFFCURVE",
"168 68 CURVE SMOOTH"
);
},
{
closed = 1;
nodes = (
"159 25 LINE",
"228 25 OFFCURVE",
"256 54 OFFCURVE",
"263 105 CURVE SMOOTH",
"287 300 LINE",
"316 491 LINE SMOOTH",
"317 499 OFFCURVE",
"318 507 OFFCURVE",
"318 515 CURVE SMOOTH",
"318 564 OFFCURVE",
"295 612 OFFCURVE",
"242 612 CURVE",
"242 614 LINE",
"301 614 OFFCURVE",
"322 566 OFFCURVE",
"322 515 CURVE SMOOTH",
"322 508 OFFCURVE",
"322 501 OFFCURVE",
"321 494 CURVE SMOOTH",
"299 300 LINE",
"267 105 LINE SMOOTH",
"259 52 OFFCURVE",
"230 23 OFFCURVE",
"158 23 CURVE"
);
}
);
userData = {
assembly = "PUSHW[ ]	/* 4 values pushed */\0120 5 33 4 \012CALL[ ]	/* CallFunction */\012PUSHW[ ]	/* 1 value pushed */\0120 \012SRP0[ ]	/* SetRefPoint0 */\012PUSHW[ ]	/* 1 value pushed */\01255 \012MDRP[10000]	/* MoveDirectRelPt */\012PUSHW[ ]	/* 1 value pushed */\01255 \012MDAP[1]	/* MoveDirectAbsPt */\012PUSHW[ ]	/* 3 values pushed */\01267 33 0 \012SRP1[ ]	/* SetRefPoint1 */\012SRP2[ ]	/* SetRefPoint2 */\012IP[ ]	/* InterpolatePts */\012PUSHW[ ]	/* 3 values pushed */\01289 33 0 \012SRP1[ ]	/* SetRefPoint1 */\012SRP2[ ]	/* SetRefPoint2 */\012IP[ ]	/* InterpolatePts */\012SVTCA[0]	/* SetFreedomAndProjectionVectorToAxis */\012PUSHW[ ]	/* 4 values pushed */\01215 2 17 4 \012CALL[ ]	/* CallFunction */\012PUSHW[ ]	/* 1 value pushed */\01217 \012SRP0[ ]	/* SetRefPoint0 */\012PUSHW[ ]	/* 1 value pushed */\01213 \012MDRP[10000]	/* MoveDirectRelPt */\012PUSHW[ ]	/* 1 value pushed */\01213 \012MDAP[1]	/* MoveDirectAbsPt */\012PUSHW[ ]	/* 2 values pushed */\0120 3 \012MIRP[10100]	/* MoveIndirectRelPt */\012PUSHW[ ]	/* 1 value pushed */\01213 \012SRP0[ ]	/* SetRefPoint0 */\012PUSHW[ ]	/* 2 values pushed */\01242 4 \012MIRP[10100]	/* MoveIndirectRelPt */\012IUP[0]	/* InterpolateUntPts */\012IUP[1]	/* InterpolateUntPts */";
};
width = 386;
}
);
leftMetricsKey = o;
note = eth;
rightKerningGroup = a;
rightMetricsKey = o;
unicode = 00F0;
},
{
glyphname = dcroat;
lastChange = "2021-11-30 13:20:42 +0000";
layers = (
{
anchors = (
{
name = bottom;
position = "{158, 0}";
},
{
name = top;
position = "{335, 630}";
},
{
name = topright;
position = "{441, 495}";
}
);
background = {
components = (
{
name = d;
transform = "{1, 0, 0, 1, -23, 0}";
}
);
paths = (
{
closed = 1;
nodes = (
"417 530 LINE",
"425 585 LINE",
"177 585 LINE",
"169 530 LINE"
);
}
);
};
layerId = "DE28931B-8CFB-452E-AAB2-BC9BAE33C973";
paths = (
{
closed = 1;
nodes = (
"260 -7 OFFCURVE",
"333 12 OFFCURVE",
"347 111 CURVE SMOOTH",
"420 630 LINE",
"264 630 LINE",
"240 460 LINE",
"230 484 OFFCURVE",
"210 503 OFFCURVE",
"167 503 CURVE SMOOTH",
"106 503 OFFCURVE",
"53 481 OFFCURVE",
"40 391 CURVE SMOOTH",
"7 154 LINE SMOOTH",
"4 133 OFFCURVE",
"3 115 OFFCURVE",
"3 100 CURVE SMOOTH",
"3 5 OFFCURVE",
"54 -7 OFFCURVE",
"165 -7 CURVE SMOOTH"
);
},
{
closed = 1;
nodes = (
"157 34 OFFCURVE",
"146 32 OFFCURVE",
"137 32 CURVE SMOOTH",
"101 32 OFFCURVE",
"78 58 OFFCURVE",
"78 104 CURVE SMOOTH",
"78 110 OFFCURVE",
"78 116 OFFCURVE",
"79 122 CURVE SMOOTH",
"92 245 LINE",
"116 383 LINE SMOOTH",
"123 422 OFFCURVE",
"147 451 OFFCURVE",
"183 451 CURVE SMOOTH",
"192 451 OFFCURVE",
"201 450 OFFCURVE",
"211 446 CURVE",
"210 444 LINE",
"201 447 OFFCURVE",
"193 449 OFFCURVE",
"185 449 CURVE SMOOTH",
"151 449 OFFCURVE",
"128 419 OFFCURVE",
"124 383 CURVE SMOOTH",
"107 245 LINE",
"88 125 LINE SMOOTH",
"87 117 OFFCURVE",
"86 110 OFFCURVE",
"86 102 CURVE SMOOTH",
"86 60 OFFCURVE",
"108 35 OFFCURVE",
"141 35 CURVE SMOOTH",
"149 35 OFFCURVE",
"158 37 OFFCURVE",
"167 40 CURVE",
"168 38 LINE"
);
},
{
closed = 1;
nodes = (
"160 80 OFFCURVE",
"155 85 OFFCURVE",
"155 98 CURVE SMOOTH",
"155 102 OFFCURVE",
"155 106 OFFCURVE",
"156 110 CURVE SMOOTH",
"194 378 LINE SMOOTH",
"197 401 OFFCURVE",
"205 408 OFFCURVE",
"216 408 CURVE SMOOTH",
"221 408 OFFCURVE",
"225 406 OFFCURVE",
"227 402 CURVE SMOOTH",
"228 399 OFFCURVE",
"229 395 OFFCURVE",
"229 389 CURVE SMOOTH",
"229 386 OFFCURVE",
"229 382 OFFCURVE",
"228 378 CURVE SMOOTH",
"190 110 LINE SMOOTH",
"187 87 OFFCURVE",
"180 80 OFFCURVE",
"169 80 CURVE SMOOTH"
);
},
{
closed = 1;
nodes = (
"291 333 LINE",
"332 591 LINE",
"336 591 LINE",
"304 333 LINE",
"264 85 LINE",
"260 85 LINE"
);
},
{
closed = 1;
nodes = (
"293 522 LINE",
"301 583 LINE",
"169 583 LINE",
"161 522 LINE"
);
},
{
closed = 1;
nodes = (
"446 522 LINE",
"454 583 LINE",
"362 583 LINE",
"354 522 LINE"
);
}
);
userData = {
assembly = "SVTCA[0]	/* SetFreedomAndProjectionVectorToAxis */\012PUSHW[ ]	/* 1 value pushed */\0120 \012RCVT[ ]	/* ReadCVT */\012IF[ ]	/* If */\012PUSHW[ ]	/* 1 value pushed */\01243 \012MDAP[1]	/* MoveDirectAbsPt */\012ELSE[ ]	/* Else */\012PUSHW[ ]	/* 2 values pushed */\01243 7 \012MIAP[0]	/* MoveIndirectAbsPt */\012EIF[ ]	/* EndIf */\012PUSHW[ ]	/* 4 values pushed */\01235 2 36 4 \012CALL[ ]	/* CallFunction */\012PUSHW[ ]	/* 4 values pushed */\01254 1 69 4 \012CALL[ ]	/* CallFunction */\012PUSHW[ ]	/* 3 values pushed */\0121 36 35 \012SRP1[ ]	/* SetRefPoint1 */\012SRP2[ ]	/* SetRefPoint2 */\012IP[ ]	/* InterpolatePts */\012PUSHW[ ]	/* 1 value pushed */\01243 \012SRP0[ ]	/* SetRefPoint0 */\012PUSHW[ ]	/* 2 values pushed */\0123 1 \012MIRP[10100]	/* MoveIndirectRelPt */\012PUSHW[ ]	/* 3 values pushed */\01217 43 3 \012SRP1[ ]	/* SetRefPoint1 */\012SRP2[ ]	/* SetRefPoint2 */\012IP[ ]	/* InterpolatePts */\012PUSHW[ ]	/* 1 value pushed */\01235 \012SRP0[ ]	/* SetRefPoint0 */\012PUSHW[ ]	/* 1 value pushed */\01230 \012MDRP[10000]	/* MoveDirectRelPt */\012PUSHW[ ]	/* 3 values pushed */\01259 69 54 \012SRP1[ ]	/* SetRefPoint1 */\012SRP2[ ]	/* SetRefPoint2 */\012IP[ ]	/* InterpolatePts */\012PUSHW[ ]	/* 1 value pushed */\01236 \012SRP0[ ]	/* SetRefPoint0 */\012PUSHW[ ]	/* 1 value pushed */\01260 \012MDRP[10000]	/* MoveDirectRelPt */\012PUSHW[ ]	/* 1 value pushed */\0123 \012SRP0[ ]	/* SetRefPoint0 */\012PUSHW[ ]	/* 1 value pushed */\01262 \012MDRP[10000]	/* MoveDirectRelPt */\012IUP[0]	/* InterpolateUntPts */\012IUP[1]	/* InterpolateUntPts */";
};
width = 397;
}
);
unicode = 0111;
},
{
glyphname = e;
lastChange = "2021-11-30 13:29:00 +0000";
layers = (
{
anchors = (
{
name = bottom;
position = "{166, 0}";
},
{
name = ogonek;
position = "{223, 0}";
},
{
name = top;
position = "{223, 495}";
}
);
background = {
anchors = (
{
name = bottom;
position = "{125, 0}";
},
{
name = ogonek;
position = "{195, 0}";
},
{
name = top;
position = "{195, 495}";
}
);
paths = (
{
closed = 1;
nodes = (
"252 -13 OFFCURVE",
"305 10 OFFCURVE",
"322 137 CURVE SMOOTH",
"329 189 LINE",
"175 189 LINE",
"164 112 LINE SMOOTH",
"159 78 OFFCURVE",
"150 72 OFFCURVE",
"140 72 CURVE SMOOTH",
"126 72 OFFCURVE",
"122 84 OFFCURVE",
"126 117 CURVE SMOOTH",
"140 225 LINE",
"206 225 OFFCURVE",
"339 252 OFFCURVE",
"355 370 CURVE SMOOTH",
"369 472 OFFCURVE",
"313 502 OFFCURVE",
"182 502 CURVE SMOOTH",
"89 502 OFFCURVE",
"24 472 OFFCURVE",
"10 373 CURVE SMOOTH",
"-20 163 LINE SMOOTH",
"-41 15 OFFCURVE",
"22 -13 OFFCURVE",
"129 -13 CURVE SMOOTH"
);
},
{
closed = 1;
nodes = (
"160 358 LINE SMOOTH",
"167 416 OFFCURVE",
"174 424 OFFCURVE",
"189 424 CURVE SMOOTH",
"209 424 OFFCURVE",
"203 391 OFFCURVE",
"200 369 CURVE SMOOTH",
"191 303 OFFCURVE",
"164 299 OFFCURVE",
"153 300 CURVE"
);
}
);
};
layerId = "DE28931B-8CFB-452E-AAB2-BC9BAE33C973";
paths = (
{
closed = 1;
nodes = (
"278 -12 OFFCURVE",
"335 18 OFFCURVE",
"356 167 CURVE SMOOTH",
"359 188 LINE",
"203 188 LINE",
"190 98 LINE SMOOTH",
"187 75 OFFCURVE",
"180 68 OFFCURVE",
"169 68 CURVE SMOOTH",
"160 68 OFFCURVE",
"155 73 OFFCURVE",
"155 86 CURVE SMOOTH",
"155 90 OFFCURVE",
"155 94 OFFCURVE",
"156 98 CURVE SMOOTH",
"174 224 LINE",
"209 225 OFFCURVE",
"242 230 OFFCURVE",
"271 241 CURVE SMOOTH",
"331 263 OFFCURVE",
"387 309 OFFCURVE",
"387 399 CURVE SMOOTH",
"387 477 OFFCURVE",
"330 503 OFFCURVE",
"230 503 CURVE SMOOTH",
"119 503 OFFCURVE",
"53 472 OFFCURVE",
"39 373 CURVE SMOOTH",
"9 166 LINE SMOOTH",
"6 145 OFFCURVE",
"4 126 OFFCURVE",
"4 109 CURVE SMOOTH",
"4 10 OFFCURVE",
"57 -12 OFFCURVE",
"159 -12 CURVE SMOOTH"
);
},
{
closed = 1;
nodes = (
"183 35 LINE",
"230 35 OFFCURVE",
"260 72 OFFCURVE",
"266 113 CURVE SMOOTH",
"272 157 LINE",
"280 157 LINE",
"274 113 LINE SMOOTH",
"268 69 OFFCURVE",
"231 33 OFFCURVE",
"183 33 CURVE"
);
},
{
closed = 1;
nodes = (
"97 33 OFFCURVE",
"67 61 OFFCURVE",
"72 103 CURVE SMOOTH",
"90 245 LINE",
"112 383 LINE SMOOTH",
"120 432 OFFCURVE",
"158 457 OFFCURVE",
"205 457 CURVE",
"205 455 LINE",
"167 455 OFFCURVE",
"126 429 OFFCURVE",
"121 389 CURVE SMOOTH",
"104 245 LINE",
"81 102 LINE SMOOTH",
"80 97 OFFCURVE",
"80 93 OFFCURVE",
"80 89 CURVE SMOOTH",
"80 54 OFFCURVE",
"105 35 OFFCURVE",
"127 35 CURVE",
"127 33 LINE"
);
},
{
closed = 1;
nodes = (
"198 393 LINE SMOOTH",
"201 416 OFFCURVE",
"208 423 OFFCURVE",
"219 423 CURVE SMOOTH",
"224 423 OFFCURVE",
"228 421 OFFCURVE",
"231 417 CURVE SMOOTH",
"232 414 OFFCURVE",
"233 410 OFFCURVE",
"233 405 CURVE SMOOTH",
"233 402 OFFCURVE",
"232 398 OFFCURVE",
"232 393 CURVE SMOOTH",
"225 349 OFFCURVE",
"215 325 OFFCURVE",
"204 313 CURVE SMOOTH",
"198 306 OFFCURVE",
"192 301 OFFCURVE",
"185 300 CURVE"
);
},
{
closed = 1;
nodes = (
"209 268 LINE",
"254 268 OFFCURVE",
"290 336 OFFCURVE",
"297 364 CURVE SMOOTH",
"301 380 OFFCURVE",
"303 393 OFFCURVE",
"303 405 CURVE SMOOTH",
"303 439 OFFCURVE",
"287 456 OFFCURVE",
"252 456 CURVE",
"252 458 LINE",
"290 458 OFFCURVE",
"310 439 OFFCURVE",
"310 400 CURVE SMOOTH",
"310 389 OFFCURVE",
"308 377 OFFCURVE",
"305 363 CURVE SMOOTH",
"295 319 OFFCURVE",
"251 265 OFFCURVE",
"208 265 CURVE"
);
}
);
userData = {
assembly = "PUSHW[ ]	/* 4 values pushed */\01255 5 60 4 \012CALL[ ]	/* CallFunction */\012PUSHW[ ]	/* 3 values pushed */\01211 60 55 \012SRP1[ ]	/* SetRefPoint1 */\012SRP2[ ]	/* SetRefPoint2 */\012IP[ ]	/* InterpolatePts */\012PUSHW[ ]	/* 1 value pushed */\01255 \012SRP0[ ]	/* SetRefPoint0 */\012PUSHW[ ]	/* 1 value pushed */\01277 \012MDRP[10000]	/* MoveDirectRelPt */\012PUSHW[ ]	/* 1 value pushed */\01277 \012MDAP[1]	/* MoveDirectAbsPt */\012IUP[0]	/* InterpolateUntPts */\012IUP[1]	/* InterpolateUntPts */";
};
width = 378;
}
);
leftKerningGroup = o;
leftMetricsKey = o;
note = e;
rightKerningGroup = e;
rightMetricsKey = "=o-10";
unicode = 0065;
},
{
glyphname = f;
lastChange = "2021-11-30 13:29:00 +0000";
layers = (
{
background = {
paths = (
{
closed = 1;
nodes = (
"172 0 LINE",
"226 389 LINE",
"306 389 LINE",
"319 476 LINE",
"239 476 LINE",
"244 513 LINE SMOOTH",
"247 533 OFFCURVE",
"255 557 OFFCURVE",
"277 557 CURVE SMOOTH",
"303 557 OFFCURVE",
"330 554 OFFCURVE",
"330 554 CURVE",
"339 624 LINE",
"330 624 OFFCURVE",
"273 630 OFFCURVE",
"228 630 CURVE SMOOTH",
"173 630 OFFCURVE",
"103 624 OFFCURVE",
"88 512 CURVE SMOOTH",
"83 476 LINE",
"51 476 LINE",
"38 389 LINE",
"70 389 LINE",
"16 0 LINE"
);
}
);
};
layerId = "DE28931B-8CFB-452E-AAB2-BC9BAE33C973";
paths = (
{
closed = 1;
nodes = (
"-21 -113 OFFCURVE",
"0 -116 OFFCURVE",
"21 -116 CURVE SMOOTH",
"115 -116 OFFCURVE",
"193 -66 OFFCURVE",
"211 66 CURVE SMOOTH",
"258 389 LINE",
"338 389 LINE",
"350 476 LINE",
"270 476 LINE",
"275 513 LINE SMOOTH",
"278 533 OFFCURVE",
"286 557 OFFCURVE",
"309 557 CURVE SMOOTH",
"322 557 OFFCURVE",
"334 556 OFFCURVE",
"345 555 CURVE SMOOTH",
"361 554 LINE",
"371 624 LINE",
"360 624 OFFCURVE",
"287 630 OFFCURVE",
"260 630 CURVE SMOOTH",
"191 630 OFFCURVE",
"134 614 OFFCURVE",
"119 512 CURVE SMOOTH",
"114 476 LINE",
"82 476 LINE",
"70 389 LINE",
"103 389 LINE",
"48 9 LINE",
"47 -11 OFFCURVE",
"21 -32 OFFCURVE",
"0 -32 CURVE SMOOTH",
"-33 -32 LINE",
"-42 -109 LINE"
);
},
{
closed = 1;
nodes = (
"155 267 LINE",
"180 430 LINE",
"113 433 LINE",
"114 435 LINE",
"180 437 LINE",
"195 526 LINE SMOOTH",
"200 561 OFFCURVE",
"225 597 OFFCURVE",
"268 597 CURVE",
"268 596 LINE",
"233 593 OFFCURVE",
"207 570 OFFCURVE",
"200 523 CURVE SMOOTH",
"189 437 LINE",
"303 435 LINE",
"302 433 LINE",
"189 430 LINE",
"168 267 LINE",
"126 0 LINE",
"122 0 LINE"
);
}
);
userData = {
assembly = "SVTCA[0]	/* SetFreedomAndProjectionVectorToAxis */\012PUSHW[ ]	/* 1 value pushed */\0120 \012RCVT[ ]	/* ReadCVT */\012IF[ ]	/* If */\012PUSHW[ ]	/* 1 value pushed */\0123 \012MDAP[1]	/* MoveDirectAbsPt */\012ELSE[ ]	/* Else */\012PUSHW[ ]	/* 2 values pushed */\0123 7 \012MIAP[0]	/* MoveIndirectAbsPt */\012EIF[ ]	/* EndIf */\012PUSHW[ ]	/* 4 values pushed */\01229 3 17 4 \012CALL[ ]	/* CallFunction */\012PUSHW[ ]	/* 3 values pushed */\01214 17 29 \012SRP1[ ]	/* SetRefPoint1 */\012SRP2[ ]	/* SetRefPoint2 */\012IP[ ]	/* InterpolatePts */\012IUP[0]	/* InterpolateUntPts */\012IUP[1]	/* InterpolateUntPts */";
};
width = 324;
}
);
leftKerningGroup = f;
note = f;
rightKerningGroup = f;
unicode = 0066;
},
{
glyphname = g;
lastChange = "2021-11-30 13:29:00 +0000";
layers = (
{
anchors = (
{
name = bottom;
position = "{143, -110}";
},
{
name = top;
position = "{236, 495}";
}
);
background = {
anchors = (
{
name = bottom;
position = "{129, -116}";
},
{
name = top;
position = "{219, 495}";
}
);
paths = (
{
closed = 1;
nodes = (
"296 -121 OFFCURVE",
"317 11 OFFCURVE",
"329 99 CURVE SMOOTH",
"385 495 LINE",
"245 495 LINE",
"224 460 LINE",
"216 499 OFFCURVE",
"186 500 OFFCURVE",
"145 500 CURVE SMOOTH",
"111 500 OFFCURVE",
"38 489 OFFCURVE",
"24 391 CURVE SMOOTH",
"-3 196 LINE SMOOTH",
"-24 45 OFFCURVE",
"16 31 OFFCURVE",
"76 31 CURVE SMOOTH",
"149 31 OFFCURVE",
"162 75 OFFCURVE",
"172 89 CURVE",
"162 16 LINE SMOOTH",
"156 -26 OFFCURVE",
"119 -35 OFFCURVE",
"88 -35 CURVE SMOOTH",
"64 -35 OFFCURVE",
"19 -32 OFFCURVE",
"-1 -28 CURVE",
"-12 -109 LINE",
"-4 -112 OFFCURVE",
"88 -121 OFFCURVE",
"134 -121 CURVE SMOOTH"
);
},
{
closed = 1;
nodes = (
"150 122 OFFCURVE",
"144 129 OFFCURVE",
"147 153 CURVE SMOOTH",
"178 378 LINE SMOOTH",
"181 401 OFFCURVE",
"190 408 OFFCURVE",
"200 408 CURVE SMOOTH",
"209 408 OFFCURVE",
"212 406 OFFCURVE",
"216 405 CURVE",
"181 152 LINE SMOOTH",
"178 129 OFFCURVE",
"170 122 OFFCURVE",
"160 122 CURVE SMOOTH"
);
}
);
};
layerId = "DE28931B-8CFB-452E-AAB2-BC9BAE33C973";
paths = (
{
closed = 1;
nodes = (
"303 -114 OFFCURVE",
"328 -25 OFFCURVE",
"347 106 CURVE SMOOTH",
"402 495 LINE",
"262 495 LINE",
"242 460 LINE",
"233 479 OFFCURVE",
"215 500 OFFCURVE",
"162 500 CURVE SMOOTH",
"112 500 OFFCURVE",
"55 477 OFFCURVE",
"42 391 CURVE SMOOTH",
"15 210 LINE SMOOTH",
"11 181 OFFCURVE",
"8 157 OFFCURVE",
"8 136 CURVE SMOOTH",
"8 72 OFFCURVE",
"32 45 OFFCURVE",
"94 45 CURVE SMOOTH",
"160 45 OFFCURVE",
"163 68 OFFCURVE",
"191 103 CURVE",
"179 24 LINE SMOOTH",
"172 -19 OFFCURVE",
"154 -28 OFFCURVE",
"127 -28 CURVE SMOOTH",
"106 -28 OFFCURVE",
"98 -21 OFFCURVE",
"94 -14 CURVE SMOOTH",
"92 -11 OFFCURVE",
"91 -9 OFFCURVE",
"91 -5 CURVE SMOOTH",
"91 -4 OFFCURVE",
"92 -2 OFFCURVE",
"92 0 CURVE",
"-13 0 LINE",
"-16 -84 OFFCURVE",
"24 -114 OFFCURVE",
"129 -114 CURVE SMOOTH"
);
},
{
closed = 1;
nodes = (
"143 78 OFFCURVE",
"130 75 OFFCURVE",
"118 75 CURVE SMOOTH",
"93 75 OFFCURVE",
"77 93 OFFCURVE",
"77 126 CURVE SMOOTH",
"77 130 OFFCURVE",
"77 135 OFFCURVE",
"78 140 CURVE SMOOTH",
"94 268 LINE",
"114 377 LINE SMOOTH",
"124 427 OFFCURVE",
"150 450 OFFCURVE",
"183 450 CURVE SMOOTH",
"195 450 OFFCURVE",
"208 447 OFFCURVE",
"221 441 CURVE",
"221 439 LINE",
"209 444 OFFCURVE",
"197 446 OFFCURVE",
"186 446 CURVE SMOOTH",
"152 446 OFFCURVE",
"127 423 OFFCURVE",
"121 374 CURVE SMOOTH",
"108 268 LINE",
"87 140 LINE SMOOTH",
"86 134 OFFCURVE",
"85 128 OFFCURVE",
"85 122 CURVE SMOOTH",
"85 94 OFFCURVE",
"100 78 OFFCURVE",
"123 78 CURVE SMOOTH",
"133 78 OFFCURVE",
"145 81 OFFCURVE",
"158 88 CURVE",
"158 86 LINE"
);
},
{
closed = 1;
nodes = (
"170 -60 LINE",
"221 -60 OFFCURVE",
"248 -23 OFFCURVE",
"254 25 CURVE SMOOTH",
"277 204 LINE",
"319 471 LINE",
"323 471 LINE",
"290 204 LINE",
"261 21 LINE SMOOTH",
"255 -18 OFFCURVE",
"225 -66 OFFCURVE",
"170 -61 CURVE"
);
},
{
closed = 1;
nodes = (
"173 136 OFFCURVE",
"169 138 OFFCURVE",
"167 143 CURVE SMOOTH",
"165 146 OFFCURVE",
"164 150 OFFCURVE",
"164 155 CURVE SMOOTH",
"164 159 OFFCURVE",
"164 162 OFFCURVE",
"165 166 CURVE SMOOTH",
"196 378 LINE SMOOTH",
"199 401 OFFCURVE",
"205 408 OFFCURVE",
"216 408 CURVE SMOOTH",
"220 408 OFFCURVE",
"224 407 OFFCURVE",
"228 406 CURVE SMOOTH",
"230 405 OFFCURVE",
"232 405 OFFCURVE",
"234 405 CURVE",
"199 166 LINE SMOOTH",
"196 143 OFFCURVE",
"189 136 OFFCURVE",
"178 136 CURVE SMOOTH"
);
}
);
userData = {
assembly = "SVTCA[0]	/* SetFreedomAndProjectionVectorToAxis */\012PUSHW[ ]	/* 1 value pushed */\0120 \012RCVT[ ]	/* ReadCVT */\012IF[ ]	/* If */\012PUSHW[ ]	/* 1 value pushed */\01254 \012MDAP[1]	/* MoveDirectAbsPt */\012ELSE[ ]	/* Else */\012PUSHW[ ]	/* 2 values pushed */\01254 11 \012MIAP[0]	/* MoveIndirectAbsPt */\012EIF[ ]	/* EndIf */\012PUSHW[ ]	/* 1 value pushed */\0120 \012RCVT[ ]	/* ReadCVT */\012IF[ ]	/* If */\012PUSHW[ ]	/* 1 value pushed */\01258 \012MDAP[1]	/* MoveDirectAbsPt */\012ELSE[ ]	/* Else */\012PUSHW[ ]	/* 2 values pushed */\01258 11 \012MIAP[0]	/* MoveIndirectAbsPt */\012EIF[ ]	/* EndIf */\012PUSHW[ ]	/* 1 value pushed */\0120 \012RCVT[ ]	/* ReadCVT */\012IF[ ]	/* If */\012PUSHW[ ]	/* 1 value pushed */\01268 \012MDAP[1]	/* MoveDirectAbsPt */\012ELSE[ ]	/* Else */\012PUSHW[ ]	/* 2 values pushed */\01268 7 \012MIAP[0]	/* MoveIndirectAbsPt */\012EIF[ ]	/* EndIf */\012PUSHW[ ]	/* 3 values pushed */\0120 68 54 \012SRP1[ ]	/* SetRefPoint1 */\012SRP2[ ]	/* SetRefPoint2 */\012IP[ ]	/* InterpolatePts */\012PUSHW[ ]	/* 1 value pushed */\01258 \012SRP0[ ]	/* SetRefPoint0 */\012PUSHW[ ]	/* 2 values pushed */\01286 1 \012MIRP[10100]	/* MoveIndirectRelPt */\012NPUSHW[ ]	/* 5 values pushed */\012121 86 137 86 2 \012DELTAP1[ ]	/* DeltaExceptionP1 */\012NPUSHW[ ]	/* 15 values pushed */\0128 86 24 86 40 86 56 86 72 86 88 86 104 86 7 \012DELTAP1[ ]	/* DeltaExceptionP1 */\012PUSHW[ ]	/* 3 values pushed */\01213 58 86 \012SRP1[ ]	/* SetRefPoint1 */\012SRP2[ ]	/* SetRefPoint2 */\012IP[ ]	/* InterpolatePts */\012PUSHW[ ]	/* 3 values pushed */\01226 58 86 \012SRP1[ ]	/* SetRefPoint1 */\012SRP2[ ]	/* SetRefPoint2 */\012IP[ ]	/* InterpolatePts */\012PUSHW[ ]	/* 3 values pushed */\01238 68 54 \012SRP1[ ]	/* SetRefPoint1 */\012SRP2[ ]	/* SetRefPoint2 */\012IP[ ]	/* InterpolatePts */\012IUP[0]	/* InterpolateUntPts */\012IUP[1]	/* InterpolateUntPts */";
};
width = 392;
}
);
leftKerningGroup = o;
leftMetricsKey = o;
note = g;
rightKerningGroup = d;
rightMetricsKey = "=o+5";
unicode = 0067;
},
{
glyphname = h;
lastChange = "2021-11-30 13:29:00 +0000";
layers = (
{
anchors = (
{
name = bottom;
position = "{138, 0}";
},
{
name = center;
position = "{143, 542}";
},
{
name = top;
position = "{151, 630}";
}
);
background = {
anchors = (
{
name = bottom;
position = "{139, 0}";
},
{
name = center;
position = "{120, 559}";
},
{
name = top;
position = "{129, 630}";
}
);
paths = (
{
closed = 1;
nodes = (
"125 0 LINE",
"177 370 LINE",
"177 375 OFFCURVE",
"184 378 OFFCURVE",
"193 378 CURVE SMOOTH",
"206 378 OFFCURVE",
"211 368 OFFCURVE",
"208 350 CURVE SMOOTH",
"159 0 LINE",
"315 0 LINE",
"367 371 LINE SMOOTH",
"379 457 OFFCURVE",
"363 502 OFFCURVE",
"275 502 CURVE SMOOTH",
"232 502 OFFCURVE",
"188 477 OFFCURVE",
"174 430 CURVE",
"202 630 LINE",
"57 630 LINE",
"-31 0 LINE"
);
}
);
};
layerId = "DE28931B-8CFB-452E-AAB2-BC9BAE33C973";
paths = (
{
closed = 1;
nodes = (
"147 0 LINE",
"198 373 LINE SMOOTH",
"199 380 OFFCURVE",
"207 391 OFFCURVE",
"218 391 CURVE SMOOTH",
"227 391 OFFCURVE",
"233 390 OFFCURVE",
"233 378 CURVE SMOOTH",
"233 376 OFFCURVE",
"233 373 OFFCURVE",
"232 370 CURVE SMOOTH",
"181 0 LINE",
"337 0 LINE",
"393 408 LINE SMOOTH",
"394 417 OFFCURVE",
"395 425 OFFCURVE",
"395 433 CURVE SMOOTH",
"395 477 OFFCURVE",
"375 502 OFFCURVE",
"324 502 CURVE SMOOTH",
"257 502 OFFCURVE",
"210 451 OFFCURVE",
"192 406 CURVE",
"223 630 LINE",
"79 630 LINE",
"-8 0 LINE"
);
},
{
closed = 1;
nodes = (
"106 333 LINE",
"148 591 LINE",
"152 591 LINE",
"119 333 LINE",
"73 47 LINE",
"69 47 LINE"
);
},
{
closed = 1;
nodes = (
"286 245 LINE",
"312 399 LINE SMOOTH",
"316 420 OFFCURVE",
"308 447 OFFCURVE",
"281 447 CURVE SMOOTH",
"266 447 OFFCURVE",
"250 442 OFFCURVE",
"235 432 CURVE",
"236 434 LINE",
"249 443 OFFCURVE",
"266 449 OFFCURVE",
"281 449 CURVE SMOOTH",
"306 449 OFFCURVE",
"319 434 OFFCURVE",
"319 410 CURVE SMOOTH",
"319 406 OFFCURVE",
"318 403 OFFCURVE",
"318 399 CURVE SMOOTH",
"299 245 LINE",
"265 47 LINE",
"261 47 LINE"
);
}
);
userData = {
assembly = "SVTCA[0]	/* SetFreedomAndProjectionVectorToAxis */\012PUSHW[ ]	/* 1 value pushed */\0120 \012RCVT[ ]	/* ReadCVT */\012IF[ ]	/* If */\012PUSHW[ ]	/* 1 value pushed */\01243 \012MDAP[1]	/* MoveDirectAbsPt */\012ELSE[ ]	/* Else */\012PUSHW[ ]	/* 2 values pushed */\01243 11 \012MIAP[0]	/* MoveIndirectAbsPt */\012EIF[ ]	/* EndIf */\012PUSHW[ ]	/* 1 value pushed */\0120 \012RCVT[ ]	/* ReadCVT */\012IF[ ]	/* If */\012PUSHW[ ]	/* 1 value pushed */\01225 \012MDAP[1]	/* MoveDirectAbsPt */\012ELSE[ ]	/* Else */\012PUSHW[ ]	/* 2 values pushed */\01225 7 \012MIAP[0]	/* MoveIndirectAbsPt */\012EIF[ ]	/* EndIf */\012PUSHW[ ]	/* 1 value pushed */\0120 \012RCVT[ ]	/* ReadCVT */\012IF[ ]	/* If */\012PUSHW[ ]	/* 1 value pushed */\01234 \012MDAP[1]	/* MoveDirectAbsPt */\012ELSE[ ]	/* Else */\012PUSHW[ ]	/* 2 values pushed */\01234 7 \012MIAP[0]	/* MoveIndirectAbsPt */\012EIF[ ]	/* EndIf */\012PUSHW[ ]	/* 3 values pushed */\0122 25 43 \012SRP1[ ]	/* SetRefPoint1 */\012SRP2[ ]	/* SetRefPoint2 */\012IP[ ]	/* InterpolatePts */\012PUSHW[ ]	/* 3 values pushed */\0126 25 43 \012SRP1[ ]	/* SetRefPoint1 */\012SRP2[ ]	/* SetRefPoint2 */\012IP[ ]	/* InterpolatePts */\012PUSHW[ ]	/* 3 values pushed */\01216 25 43 \012SRP1[ ]	/* SetRefPoint1 */\012SRP2[ ]	/* SetRefPoint2 */\012IP[ ]	/* InterpolatePts */\012PUSHW[ ]	/* 3 values pushed */\01238 25 43 \012SRP1[ ]	/* SetRefPoint1 */\012SRP2[ ]	/* SetRefPoint2 */\012IP[ ]	/* InterpolatePts */\012IUP[0]	/* InterpolateUntPts */\012IUP[1]	/* InterpolateUntPts */";
};
width = 392;
}
);
leftKerningGroup = b;
leftMetricsKey = n;
note = h;
rightKerningGroup = n;
rightMetricsKey = n;
unicode = 0068;
},
{
glyphname = hbar;
lastChange = "2021-11-30 13:20:42 +0000";
layers = (
{
anchors = (
{
name = bottom;
position = "{145, 0}";
},
{
name = center;
position = "{150, 542}";
},
{
name = top;
position = "{161, 613}";
}
);
background = {
components = (
{
name = h;
transform = "{1, 0, 0, 1, -15, 0}";
},
{
name = strokeshortcomb;
transform = "{1, 0, 0, 1, 12, 290}";
}
);
};
layerId = "DE28931B-8CFB-452E-AAB2-BC9BAE33C973";
paths = (
{
closed = 1;
nodes = (
"154 0 LINE",
"205 373 LINE SMOOTH",
"206 380 OFFCURVE",
"214 391 OFFCURVE",
"225 391 CURVE SMOOTH",
"234 391 OFFCURVE",
"240 390 OFFCURVE",
"240 378 CURVE SMOOTH",
"240 376 OFFCURVE",
"240 373 OFFCURVE",
"239 370 CURVE SMOOTH",
"188 0 LINE",
"344 0 LINE",
"400 408 LINE SMOOTH",
"401 417 OFFCURVE",
"402 425 OFFCURVE",
"402 433 CURVE SMOOTH",
"402 477 OFFCURVE",
"382 502 OFFCURVE",
"331 502 CURVE SMOOTH",
"264 502 OFFCURVE",
"217 451 OFFCURVE",
"199 406 CURVE",
"230 630 LINE",
"86 630 LINE",
"-1 0 LINE"
);
},
{
closed = 1;
nodes = (
"113 333 LINE",
"155 591 LINE",
"159 591 LINE",
"126 333 LINE",
"80 47 LINE",
"76 47 LINE"
);
},
{
closed = 1;
nodes = (
"293 245 LINE",
"319 399 LINE SMOOTH",
"323 420 OFFCURVE",
"315 447 OFFCURVE",
"288 447 CURVE SMOOTH",
"273 447 OFFCURVE",
"257 442 OFFCURVE",
"242 432 CURVE",
"243 434 LINE",
"256 443 OFFCURVE",
"273 449 OFFCURVE",
"288 449 CURVE SMOOTH",
"313 449 OFFCURVE",
"326 434 OFFCURVE",
"326 410 CURVE SMOOTH",
"326 406 OFFCURVE",
"325 403 OFFCURVE",
"325 399 CURVE SMOOTH",
"306 245 LINE",
"272 47 LINE",
"268 47 LINE"
);
},
{
closed = 1;
nodes = (
"85 503 LINE",
"95 580 LINE",
"34 580 LINE",
"24 503 LINE"
);
},
{
closed = 1;
nodes = (
"259 503 LINE",
"269 580 LINE",
"208 580 LINE",
"198 503 LINE"
);
}
);
userData = {
assembly = "SVTCA[0]	/* SetFreedomAndProjectionVectorToAxis */\012PUSHW[ ]	/* 1 value pushed */\0120 \012RCVT[ ]	/* ReadCVT */\012IF[ ]	/* If */\012PUSHW[ ]	/* 1 value pushed */\0120 \012MDAP[1]	/* MoveDirectAbsPt */\012ELSE[ ]	/* Else */\012PUSHW[ ]	/* 2 values pushed */\0120 13 \012MIAP[0]	/* MoveIndirectAbsPt */\012EIF[ ]	/* EndIf */\012PUSHW[ ]	/* 1 value pushed */\0120 \012RCVT[ ]	/* ReadCVT */\012IF[ ]	/* If */\012PUSHW[ ]	/* 1 value pushed */\0124 \012MDAP[1]	/* MoveDirectAbsPt */\012ELSE[ ]	/* Else */\012PUSHW[ ]	/* 2 values pushed */\0124 13 \012MIAP[0]	/* MoveIndirectAbsPt */\012EIF[ ]	/* EndIf */\012PUSHW[ ]	/* 1 value pushed */\0120 \012RCVT[ ]	/* ReadCVT */\012IF[ ]	/* If */\012PUSHW[ ]	/* 1 value pushed */\01234 \012MDAP[1]	/* MoveDirectAbsPt */\012ELSE[ ]	/* Else */\012PUSHW[ ]	/* 2 values pushed */\01234 13 \012MIAP[0]	/* MoveIndirectAbsPt */\012EIF[ ]	/* EndIf */\012PUSHW[ ]	/* 1 value pushed */\0120 \012RCVT[ ]	/* ReadCVT */\012IF[ ]	/* If */\012PUSHW[ ]	/* 1 value pushed */\01213 \012MDAP[1]	/* MoveDirectAbsPt */\012ELSE[ ]	/* Else */\012PUSHW[ ]	/* 2 values pushed */\01213 11 \012MIAP[0]	/* MoveIndirectAbsPt */\012EIF[ ]	/* EndIf */\012PUSHW[ ]	/* 1 value pushed */\0120 \012RCVT[ ]	/* ReadCVT */\012IF[ ]	/* If */\012PUSHW[ ]	/* 1 value pushed */\01217 \012MDAP[1]	/* MoveDirectAbsPt */\012ELSE[ ]	/* Else */\012PUSHW[ ]	/* 2 values pushed */\01217 7 \012MIAP[0]	/* MoveIndirectAbsPt */\012EIF[ ]	/* EndIf */\012PUSHW[ ]	/* 1 value pushed */\0120 \012RCVT[ ]	/* ReadCVT */\012IF[ ]	/* If */\012PUSHW[ ]	/* 1 value pushed */\01226 \012MDAP[1]	/* MoveDirectAbsPt */\012ELSE[ ]	/* Else */\012PUSHW[ ]	/* 2 values pushed */\01226 7 \012MIAP[0]	/* MoveIndirectAbsPt */\012EIF[ ]	/* EndIf */\012PUSHW[ ]	/* 1 value pushed */\0124 \012SRP0[ ]	/* SetRefPoint0 */\012PUSHW[ ]	/* 2 values pushed */\0126 2 \012MIRP[10100]	/* MoveIndirectRelPt */\012PUSHW[ ]	/* 3 values pushed */\0128 17 0 \012SRP1[ ]	/* SetRefPoint1 */\012SRP2[ ]	/* SetRefPoint2 */\012IP[ ]	/* InterpolatePts */\012PUSHW[ ]	/* 1 value pushed */\01228 \012MDRP[10000]	/* MoveDirectRelPt */\012PUSHW[ ]	/* 1 value pushed */\01229 \012MDRP[10000]	/* MoveDirectRelPt */\012PUSHW[ ]	/* 3 values pushed */\01232 17 0 \012SRP1[ ]	/* SetRefPoint1 */\012SRP2[ ]	/* SetRefPoint2 */\012IP[ ]	/* InterpolatePts */\012PUSHW[ ]	/* 3 values pushed */\01236 17 0 \012SRP1[ ]	/* SetRefPoint1 */\012SRP2[ ]	/* SetRefPoint2 */\012IP[ ]	/* InterpolatePts */\012PUSHW[ ]	/* 3 values pushed */\01246 17 0 \012SRP1[ ]	/* SetRefPoint1 */\012SRP2[ ]	/* SetRefPoint2 */\012IP[ ]	/* InterpolatePts */\012IUP[0]	/* InterpolateUntPts */\012IUP[1]	/* InterpolateUntPts */";
};
width = 399;
}
);
unicode = 0127;
},
{
glyphname = i;
lastChange = "2021-11-30 13:29:00 +0000";
layers = (
{
anchors = (
{
name = bottom;
position = "{70, 0}";
}
);
background = {
components = (
{
name = idotless;
transform = "{1, 0, 0, 1, -24, 0}";
},
{
name = dotaccentcomb;
transform = "{1, 0, 0, 1, 7, 0}";
}
);
};
layerId = "DE28931B-8CFB-452E-AAB2-BC9BAE33C973";
paths = (
{
closed = 1;
nodes = (
"147 0 LINE",
"216 495 LINE",
"60 495 LINE",
"-9 0 LINE"
);
},
{
closed = 1;
nodes = (
"95 240 LINE",
"127 429 LINE",
"131 429 LINE",
"108 240 LINE",
"76 47 LINE",
"72 47 LINE"
);
},
{
closed = 1;
nodes = (
"192 548 OFFCURVE",
"234 587 OFFCURVE",
"234 632 CURVE SMOOTH",
"234 668 OFFCURVE",
"204 695 OFFCURVE",
"165 695 CURVE SMOOTH",
"122 695 OFFCURVE",
"86 662 OFFCURVE",
"79 621 CURVE SMOOTH",
"74 581 OFFCURVE",
"102 548 OFFCURVE",
"145 548 CURVE SMOOTH"
);
},
{
closed = 1;
nodes = (
"129 584 OFFCURVE",
"118 593 OFFCURVE",
"118 612 CURVE SMOOTH",
"118 643 OFFCURVE",
"133 658 OFFCURVE",
"161 658 CURVE SMOOTH",
"186 658 OFFCURVE",
"196 646 OFFCURVE",
"193 621 CURVE SMOOTH",
"189 596 OFFCURVE",
"175 584 OFFCURVE",
"151 584 CURVE SMOOTH"
);
},
{
closed = 1;
nodes = (
"172 586 OFFCURVE",
"188 606 OFFCURVE",
"188 628 CURVE SMOOTH",
"188 644 OFFCURVE",
"178 655 OFFCURVE",
"161 655 CURVE SMOOTH",
"140 655 OFFCURVE",
"124 638 OFFCURVE",
"124 615 CURVE SMOOTH",
"124 599 OFFCURVE",
"134 586 OFFCURVE",
"151 586 CURVE SMOOTH"
);
}
);
userData = {
assembly = "SVTCA[0]	/* SetFreedomAndProjectionVectorToAxis */\012PUSHW[ ]	/* 1 value pushed */\0120 \012RCVT[ ]	/* ReadCVT */\012IF[ ]	/* If */\012PUSHW[ ]	/* 1 value pushed */\0121 \012MDAP[1]	/* MoveDirectAbsPt */\012ELSE[ ]	/* Else */\012PUSHW[ ]	/* 2 values pushed */\0121 11 \012MIAP[0]	/* MoveIndirectAbsPt */\012EIF[ ]	/* EndIf */\012PUSHW[ ]	/* 1 value pushed */\0120 \012RCVT[ ]	/* ReadCVT */\012IF[ ]	/* If */\012PUSHW[ ]	/* 1 value pushed */\0120 \012MDAP[1]	/* MoveDirectAbsPt */\012ELSE[ ]	/* Else */\012PUSHW[ ]	/* 2 values pushed */\0120 7 \012MIAP[0]	/* MoveIndirectAbsPt */\012EIF[ ]	/* EndIf */\012PUSHW[ ]	/* 3 values pushed */\01222 0 1 \012SRP1[ ]	/* SetRefPoint1 */\012SRP2[ ]	/* SetRefPoint2 */\012IP[ ]	/* InterpolatePts */\012PUSHW[ ]	/* 3 values pushed */\01225 0 1 \012SRP1[ ]	/* SetRefPoint1 */\012SRP2[ ]	/* SetRefPoint2 */\012IP[ ]	/* InterpolatePts */\012IUP[0]	/* InterpolateUntPts */\012IUP[1]	/* InterpolateUntPts */";
};
width = 207;
}
);
note = i;
unicode = 0069;
},
{
glyphname = idotless;
lastChange = "2021-11-30 13:29:00 +0000";
layers = (
{
anchors = (
{
name = bottom;
position = "{46, 0}";
},
{
name = ogonek;
position = "{142, 0}";
},
{
name = top;
position = "{138, 495}";
}
);
background = {
anchors = (
{
name = bottom;
position = "{48, 0}";
},
{
name = ogonek;
position = "{125, 0}";
},
{
name = top;
position = "{118, 495}";
}
);
paths = (
{
closed = 1;
nodes = (
"126 0 LINE",
"196 495 LINE",
"40 495 LINE",
"-30 0 LINE"
);
}
);
};
layerId = "DE28931B-8CFB-452E-AAB2-BC9BAE33C973";
paths = (
{
closed = 1;
nodes = (
"147 0 LINE",
"216 495 LINE",
"60 495 LINE",
"-9 0 LINE"
);
},
{
closed = 1;
nodes = (
"95 240 LINE",
"127 429 LINE",
"131 429 LINE",
"108 240 LINE",
"76 47 LINE",
"72 47 LINE"
);
}
);
userData = {
assembly = "SVTCA[0]	/* SetFreedomAndProjectionVectorToAxis */\012PUSHW[ ]	/* 1 value pushed */\0120 \012RCVT[ ]	/* ReadCVT */\012IF[ ]	/* If */\012PUSHW[ ]	/* 1 value pushed */\0121 \012MDAP[1]	/* MoveDirectAbsPt */\012ELSE[ ]	/* Else */\012PUSHW[ ]	/* 2 values pushed */\0121 11 \012MIAP[0]	/* MoveIndirectAbsPt */\012EIF[ ]	/* EndIf */\012PUSHW[ ]	/* 1 value pushed */\0120 \012RCVT[ ]	/* ReadCVT */\012IF[ ]	/* If */\012PUSHW[ ]	/* 1 value pushed */\0120 \012MDAP[1]	/* MoveDirectAbsPt */\012ELSE[ ]	/* Else */\012PUSHW[ ]	/* 2 values pushed */\0120 7 \012MIAP[0]	/* MoveIndirectAbsPt */\012EIF[ ]	/* EndIf */\012PUSHW[ ]	/* 3 values pushed */\0126 0 1 \012SRP1[ ]	/* SetRefPoint1 */\012SRP2[ ]	/* SetRefPoint2 */\012IP[ ]	/* InterpolatePts */\012PUSHW[ ]	/* 3 values pushed */\0129 0 1 \012SRP1[ ]	/* SetRefPoint1 */\012SRP2[ ]	/* SetRefPoint2 */\012IP[ ]	/* InterpolatePts */\012IUP[0]	/* InterpolateUntPts */\012IUP[1]	/* InterpolateUntPts */";
};
width = 207;
}
);
leftMetricsKey = n;
rightMetricsKey = d;
unicode = 0131;
},
{
glyphname = jdotless;
lastChange = "2021-11-30 13:29:00 +0000";
layers = (
{
anchors = (
{
name = bottom;
position = "{9, -110}";
},
{
name = top;
position = "{129, 495}";
}
);
background = {
anchors = (
{
name = bottom;
position = "{-13, -116}";
},
{
name = top;
position = "{73, 495}";
}
);
paths = (
{
closed = 1;
nodes = (
"-33 -123 OFFCURVE",
"70 -90 OFFCURVE",
"92 69 CURVE SMOOTH",
"152 495 LINE",
"-4 495 LINE",
"-71 20 LINE SMOOTH",
"-74 0 OFFCURVE",
"-91 -23 OFFCURVE",
"-121 -26 CURVE SMOOTH",
"-132 -27 OFFCURVE",
"-155 -28 OFFCURVE",
"-169 -28 CURVE",
"-180 -109 LINE",
"-173 -110 OFFCURVE",
"-146 -112 OFFCURVE",
"-135 -113 CURVE SMOOTH"
);
}
);
};
layerId = "DE28931B-8CFB-452E-AAB2-BC9BAE33C973";
paths = (
{
closed = 1;
nodes = (
"-93 -113 OFFCURVE",
"-71 -116 OFFCURVE",
"-50 -116 CURVE SMOOTH",
"47 -116 OFFCURVE",
"125 -66 OFFCURVE",
"144 66 CURVE SMOOTH",
"204 495 LINE",
"48 495 LINE",
"-20 9 LINE SMOOTH",
"-23 -11 OFFCURVE",
"-47 -32 OFFCURVE",
"-70 -32 CURVE SMOOTH",
"-105 -32 LINE",
"-116 -109 LINE"
);
},
{
closed = 1;
nodes = (
"-27 -60 LINE",
"24 -60 OFFCURVE",
"51 -23 OFFCURVE",
"57 25 CURVE SMOOTH",
"79 204 LINE",
"121 471 LINE",
"125 471 LINE",
"92 204 LINE",
"64 21 LINE SMOOTH",
"58 -18 OFFCURVE",
"28 -66 OFFCURVE",
"-27 -61 CURVE"
);
}
);
width = 192;
}
);
leftKerningGroup = j;
rightKerningGroup = j;
unicode = 0237;
},
{
glyphname = k;
lastChange = "2021-11-30 13:29:00 +0000";
layers = (
{
anchors = (
{
name = bottom;
position = "{177, 0}";
},
{
name = top;
position = "{242, 630}";
}
);
background = {
anchors = (
{
name = bottom;
position = "{151, 0}";
},
{
name = top;
position = "{240, 630}";
}
);
paths = (
{
closed = 1;
nodes = (
"125 0 LINE",
"213 630 LINE",
"57 630 LINE",
"-31 0 LINE"
);
},
{
closed = 1;
nodes = (
"355 0 LINE",
"311 283 LINE",
"427 495 LINE",
"273 495 LINE",
"164 286 LINE",
"186 0 LINE"
);
}
);
};
layerId = "DE28931B-8CFB-452E-AAB2-BC9BAE33C973";
paths = (
{
closed = 1;
nodes = (
"147 0 LINE",
"186 282 LINE",
"207 216 OFFCURVE",
"208 70 OFFCURVE",
"208 0 CURVE",
"377 0 LINE",
"377 62 OFFCURVE",
"369 212 OFFCURVE",
"332 283 CURVE",
"351 312 OFFCURVE",
"368 339 OFFCURVE",
"384 366 CURVE SMOOTH",
"411 411 OFFCURVE",
"440 464 OFFCURVE",
"449 495 CURVE",
"295 495 LINE",
"295 457 OFFCURVE",
"209 308 OFFCURVE",
"187 289 CURVE",
"235 630 LINE",
"79 630 LINE",
"-9 0 LINE"
);
},
{
closed = 1;
nodes = (
"106 333 LINE",
"148 591 LINE",
"152 591 LINE",
"119 333 LINE",
"74 47 LINE",
"70 47 LINE"
);
},
{
closed = 1;
nodes = (
"274 121 LINE SMOOTH",
"267 166 OFFCURVE",
"258 225 OFFCURVE",
"247 285 CURVE",
"353 474 LINE",
"358 474 LINE",
"261 285 LINE",
"261 281 OFFCURVE",
"272 191 OFFCURVE",
"275 164 CURVE SMOOTH",
"289 47 LINE",
"285 47 LINE"
);
}
);
userData = {
assembly = "SVTCA[0]	/* SetFreedomAndProjectionVectorToAxis */\012PUSHW[ ]	/* 1 value pushed */\0120 \012RCVT[ ]	/* ReadCVT */\012IF[ ]	/* If */\012PUSHW[ ]	/* 1 value pushed */\01227 \012MDAP[1]	/* MoveDirectAbsPt */\012ELSE[ ]	/* Else */\012PUSHW[ ]	/* 2 values pushed */\01227 11 \012MIAP[0]	/* MoveIndirectAbsPt */\012EIF[ ]	/* EndIf */\012PUSHW[ ]	/* 1 value pushed */\0120 \012RCVT[ ]	/* ReadCVT */\012IF[ ]	/* If */\012PUSHW[ ]	/* 1 value pushed */\01238 \012MDAP[1]	/* MoveDirectAbsPt */\012ELSE[ ]	/* Else */\012PUSHW[ ]	/* 2 values pushed */\01238 7 \012MIAP[0]	/* MoveIndirectAbsPt */\012EIF[ ]	/* EndIf */\012PUSHW[ ]	/* 1 value pushed */\0120 \012RCVT[ ]	/* ReadCVT */\012IF[ ]	/* If */\012PUSHW[ ]	/* 1 value pushed */\01245 \012MDAP[1]	/* MoveDirectAbsPt */\012ELSE[ ]	/* Else */\012PUSHW[ ]	/* 2 values pushed */\01245 7 \012MIAP[0]	/* MoveIndirectAbsPt */\012EIF[ ]	/* EndIf */\012PUSHW[ ]	/* 3 values pushed */\0122 38 27 \012SRP1[ ]	/* SetRefPoint1 */\012SRP2[ ]	/* SetRefPoint2 */\012IP[ ]	/* InterpolatePts */\012PUSHW[ ]	/* 3 values pushed */\01213 38 27 \012SRP1[ ]	/* SetRefPoint1 */\012SRP2[ ]	/* SetRefPoint2 */\012IP[ ]	/* InterpolatePts */\012PUSHW[ ]	/* 3 values pushed */\01222 38 27 \012SRP1[ ]	/* SetRefPoint1 */\012SRP2[ ]	/* SetRefPoint2 */\012IP[ ]	/* InterpolatePts */\012PUSHW[ ]	/* 3 values pushed */\01244 38 27 \012SRP1[ ]	/* SetRefPoint1 */\012SRP2[ ]	/* SetRefPoint2 */\012IP[ ]	/* InterpolatePts */\012IUP[0]	/* InterpolateUntPts */\012IUP[1]	/* InterpolateUntPts */";
};
width = 416;
}
);
leftKerningGroup = b;
leftMetricsKey = n;
note = k;
rightKerningGroup = k;
unicode = 006B;
},
{
glyphname = kgreenlandic;
lastChange = "2021-11-30 13:20:42 +0000";
layers = (
{
background = {
anchors = (
{
name = bottom;
position = "{140, 0}";
},
{
name = top;
position = "{229, 630}";
}
);
paths = (
{
closed = 1;
nodes = (
"343 0 LINE",
"299 283 LINE",
"416 495 LINE",
"262 495 LINE",
"153 286 LINE",
"174 0 LINE"
);
},
{
closed = 1;
nodes = (
"113 0 LINE",
"191 550 LINE",
"35 550 LINE",
"-43 0 LINE"
);
}
);
};
layerId = "DE28931B-8CFB-452E-AAB2-BC9BAE33C973";
paths = (
{
closed = 1;
nodes = (
"143 0 LINE",
"162 140 LINE",
"176 159 LINE",
"198 0 LINE",
"378 0 LINE",
"339 332 LINE",
"346 342 OFFCURVE",
"354 351 OFFCURVE",
"363 359 CURVE SMOOTH",
"379 374 OFFCURVE",
"403 388 OFFCURVE",
"435 392 CURVE",
"449 493 LINE",
"438 495 OFFCURVE",
"427 496 OFFCURVE",
"417 496 CURVE SMOOTH",
"330 496 OFFCURVE",
"249 440 OFFCURVE",
"193 360 CURVE",
"220 548 LINE",
"63 548 LINE",
"-14 0 LINE"
);
},
{
closed = 1;
nodes = (
"90 253 LINE",
"131 511 LINE",
"135 511 LINE",
"103 253 LINE",
"69 47 LINE",
"65 47 LINE"
);
},
{
closed = 1;
nodes = (
"225 276 LINE",
"232 336 OFFCURVE",
"320 415 OFFCURVE",
"363 439 CURVE",
"363 436 LINE",
"310 404 OFFCURVE",
"247 333 OFFCURVE",
"239 280 CURVE",
"293 47 LINE",
"289 47 LINE"
);
}
);
userData = {
assembly = "SVTCA[0]	/* SetFreedomAndProjectionVectorToAxis */\012PUSHW[ ]	/* 1 value pushed */\0120 \012RCVT[ ]	/* ReadCVT */\012IF[ ]	/* If */\012PUSHW[ ]	/* 1 value pushed */\01212 \012MDAP[1]	/* MoveDirectAbsPt */\012ELSE[ ]	/* Else */\012PUSHW[ ]	/* 2 values pushed */\01212 7 \012MIAP[0]	/* MoveIndirectAbsPt */\012EIF[ ]	/* EndIf */\012PUSHW[ ]	/* 1 value pushed */\0120 \012RCVT[ ]	/* ReadCVT */\012IF[ ]	/* If */\012PUSHW[ ]	/* 1 value pushed */\01216 \012MDAP[1]	/* MoveDirectAbsPt */\012ELSE[ ]	/* Else */\012PUSHW[ ]	/* 2 values pushed */\01216 7 \012MIAP[0]	/* MoveIndirectAbsPt */\012EIF[ ]	/* EndIf */\012IUP[0]	/* InterpolateUntPts */\012IUP[1]	/* InterpolateUntPts */";
};
width = 421;
}
);
note = kgreenlandic;
unicode = 0138;
},
{
glyphname = l;
lastChange = "2021-11-30 13:29:00 +0000";
layers = (
{
anchors = (
{
name = bottom;
position = "{67, 0}";
},
{
name = center;
position = "{88, 315}";
},
{
name = top;
position = "{158, 630}";
},
{
name = topright;
position = "{221, 499}";
}
);
background = {
anchors = (
{
name = bottom;
position = "{45, 0}";
},
{
name = center;
position = "{89, 315}";
},
{
name = top;
position = "{134, 630}";
},
{
name = topright;
position = "{197, 498}";
}
);
paths = (
{
closed = 1;
nodes = (
"123 0 LINE",
"211 630 LINE",
"55 630 LINE",
"-33 0 LINE"
);
}
);
};
layerId = "DE28931B-8CFB-452E-AAB2-BC9BAE33C973";
paths = (
{
closed = 1;
nodes = (
"147 0 LINE",
"235 630 LINE",
"79 630 LINE",
"-9 0 LINE"
);
},
{
closed = 1;
nodes = (
"107 333 LINE",
"149 591 LINE",
"153 591 LINE",
"120 333 LINE",
"75 47 LINE",
"71 47 LINE"
);
}
);
userData = {
assembly = "SVTCA[0]	/* SetFreedomAndProjectionVectorToAxis */\012PUSHW[ ]	/* 1 value pushed */\0120 \012RCVT[ ]	/* ReadCVT */\012IF[ ]	/* If */\012PUSHW[ ]	/* 1 value pushed */\0120 \012MDAP[1]	/* MoveDirectAbsPt */\012ELSE[ ]	/* Else */\012PUSHW[ ]	/* 2 values pushed */\0120 7 \012MIAP[0]	/* MoveIndirectAbsPt */\012EIF[ ]	/* EndIf */\012IUP[0]	/* InterpolateUntPts */\012IUP[1]	/* InterpolateUntPts */";
};
width = 207;
}
);
leftKerningGroup = b;
leftMetricsKey = n;
note = l;
rightKerningGroup = d;
rightMetricsKey = d;
unicode = 006C;
},
{
glyphname = lslash;
lastChange = "2021-11-30 13:20:42 +0000";
layers = (
{
background = {
paths = (
{
closed = 1;
nodes = (
"151 0 LINE",
"183 227 LINE",
"244 253 LINE",
"253 316 LINE",
"191 290 LINE",
"239 630 LINE",
"83 630 LINE",
"26 221 LINE",
"-34 196 LINE",
"-43 132 LINE",
"17 157 LINE",
"-5 0 LINE"
);
}
);
};
layerId = "DE28931B-8CFB-452E-AAB2-BC9BAE33C973";
paths = (
{
closed = 1;
nodes = (
"183 0 LINE",
"214 227 LINE",
"276 253 LINE",
"285 316 LINE",
"223 290 LINE",
"271 630 LINE",
"115 630 LINE",
"58 221 LINE",
"-2 196 LINE",
"-11 132 LINE",
"49 157 LINE",
"27 0 LINE"
);
},
{
closed = 1;
nodes = (
"144 333 LINE",
"186 591 LINE",
"190 591 LINE",
"157 333 LINE",
"112 47 LINE",
"108 47 LINE"
);
}
);
userData = {
assembly = "SVTCA[0]	/* SetFreedomAndProjectionVectorToAxis */\012PUSHW[ ]	/* 1 value pushed */\0120 \012RCVT[ ]	/* ReadCVT */\012IF[ ]	/* If */\012PUSHW[ ]	/* 1 value pushed */\0120 \012MDAP[1]	/* MoveDirectAbsPt */\012ELSE[ ]	/* Else */\012PUSHW[ ]	/* 2 values pushed */\0120 7 \012MIAP[0]	/* MoveIndirectAbsPt */\012EIF[ ]	/* EndIf */\012IUP[0]	/* InterpolateUntPts */\012IUP[1]	/* InterpolateUntPts */";
};
width = 300;
}
);
note = lslash;
rightKerningGroup = a;
unicode = 0142;
},
{
glyphname = m;
lastChange = "2021-11-30 13:29:00 +0000";
layers = (
{
background = {
paths = (
{
closed = 1;
nodes = (
"127 0 LINE",
"182 390 LINE",
"186 392 OFFCURVE",
"194 393 OFFCURVE",
"199 393 CURVE SMOOTH",
"210 393 OFFCURVE",
"215 383 OFFCURVE",
"212 365 CURVE SMOOTH",
"161 0 LINE",
"317 0 LINE",
"372 390 LINE",
"376 392 OFFCURVE",
"384 393 OFFCURVE",
"389 393 CURVE SMOOTH",
"400 393 OFFCURVE",
"405 383 OFFCURVE",
"402 365 CURVE SMOOTH",
"351 0 LINE",
"507 0 LINE",
"559 371 LINE SMOOTH",
"571 457 OFFCURVE",
"555 502 OFFCURVE",
"467 502 CURVE SMOOTH",
"427 502 OFFCURVE",
"389 475 OFFCURVE",
"370 439 CURVE",
"363 480 OFFCURVE",
"337 502 OFFCURVE",
"277 502 CURVE SMOOTH",
"234 502 OFFCURVE",
"194 471 OFFCURVE",
"176 430 CURVE",
"173 495 LINE",
"40 495 LINE",
"-29 0 LINE"
);
}
);
};
layerId = "DE28931B-8CFB-452E-AAB2-BC9BAE33C973";
paths = (
{
closed = 1;
nodes = (
"146 0 LINE",
"198 373 LINE",
"198 380 OFFCURVE",
"207 391 OFFCURVE",
"218 391 CURVE SMOOTH",
"227 391 OFFCURVE",
"232 390 OFFCURVE",
"232 379 CURVE SMOOTH",
"232 377 OFFCURVE",
"232 374 OFFCURVE",
"231 370 CURVE SMOOTH",
"180 0 LINE",
"336 0 LINE",
"388 373 LINE",
"388 380 OFFCURVE",
"397 391 OFFCURVE",
"408 391 CURVE SMOOTH",
"417 391 OFFCURVE",
"422 390 OFFCURVE",
"422 379 CURVE SMOOTH",
"422 377 OFFCURVE",
"422 374 OFFCURVE",
"421 370 CURVE SMOOTH",
"370 0 LINE",
"526 0 LINE",
"583 408 LINE SMOOTH",
"584 417 OFFCURVE",
"585 425 OFFCURVE",
"585 433 CURVE SMOOTH",
"585 477 OFFCURVE",
"565 502 OFFCURVE",
"514 502 CURVE SMOOTH",
"457 502 OFFCURVE",
"417 466 OFFCURVE",
"394 431 CURVE",
"395 475 OFFCURVE",
"375 502 OFFCURVE",
"324 502 CURVE SMOOTH",
"257 502 OFFCURVE",
"210 451 OFFCURVE",
"192 406 CURVE",
"193 495 LINE",
"60 495 LINE",
"-9 0 LINE"
);
},
{
closed = 1;
nodes = (
"97 240 LINE",
"129 429 LINE",
"133 429 LINE",
"110 240 LINE",
"77 47 LINE",
"73 47 LINE"
);
},
{
closed = 1;
nodes = (
"283 245 LINE",
"308 399 LINE SMOOTH",
"311 420 OFFCURVE",
"307 447 OFFCURVE",
"278 447 CURVE SMOOTH",
"263 447 OFFCURVE",
"245 441 OFFCURVE",
"232 432 CURVE",
"233 434 LINE",
"245 443 OFFCURVE",
"263 449 OFFCURVE",
"278 449 CURVE SMOOTH",
"303 449 OFFCURVE",
"315 434 OFFCURVE",
"315 410 CURVE SMOOTH",
"315 407 OFFCURVE",
"315 403 OFFCURVE",
"314 399 CURVE SMOOTH",
"296 245 LINE",
"262 47 LINE",
"258 47 LINE"
);
},
{
closed = 1;
nodes = (
"479 245 LINE",
"504 399 LINE SMOOTH",
"507 420 OFFCURVE",
"503 447 OFFCURVE",
"474 447 CURVE SMOOTH",
"459 447 OFFCURVE",
"441 441 OFFCURVE",
"428 432 CURVE",
"429 434 LINE",
"441 443 OFFCURVE",
"459 449 OFFCURVE",
"474 449 CURVE SMOOTH",
"499 449 OFFCURVE",
"511 434 OFFCURVE",
"511 410 CURVE SMOOTH",
"511 407 OFFCURVE",
"511 403 OFFCURVE",
"510 399 CURVE SMOOTH",
"492 245 LINE",
"458 47 LINE",
"454 47 LINE"
);
}
);
userData = {
assembly = "SVTCA[0]	/* SetFreedomAndProjectionVectorToAxis */\012PUSHW[ ]	/* 1 value pushed */\0120 \012RCVT[ ]	/* ReadCVT */\012IF[ ]	/* If */\012PUSHW[ ]	/* 1 value pushed */\01257 \012MDAP[1]	/* MoveDirectAbsPt */\012ELSE[ ]	/* Else */\012PUSHW[ ]	/* 2 values pushed */\01257 11 \012MIAP[0]	/* MoveIndirectAbsPt */\012EIF[ ]	/* EndIf */\012PUSHW[ ]	/* 1 value pushed */\0120 \012RCVT[ ]	/* ReadCVT */\012IF[ ]	/* If */\012PUSHW[ ]	/* 1 value pushed */\01264 \012MDAP[1]	/* MoveDirectAbsPt */\012ELSE[ ]	/* Else */\012PUSHW[ ]	/* 2 values pushed */\01264 11 \012MIAP[0]	/* MoveIndirectAbsPt */\012EIF[ ]	/* EndIf */\012PUSHW[ ]	/* 1 value pushed */\0120 \012RCVT[ ]	/* ReadCVT */\012IF[ ]	/* If */\012PUSHW[ ]	/* 1 value pushed */\01270 \012MDAP[1]	/* MoveDirectAbsPt */\012ELSE[ ]	/* Else */\012PUSHW[ ]	/* 2 values pushed */\01270 11 \012MIAP[0]	/* MoveIndirectAbsPt */\012EIF[ ]	/* EndIf */\012PUSHW[ ]	/* 1 value pushed */\0120 \012RCVT[ ]	/* ReadCVT */\012IF[ ]	/* If */\012PUSHW[ ]	/* 1 value pushed */\01246 \012MDAP[1]	/* MoveDirectAbsPt */\012ELSE[ ]	/* Else */\012PUSHW[ ]	/* 2 values pushed */\01246 7 \012MIAP[0]	/* MoveIndirectAbsPt */\012EIF[ ]	/* EndIf */\012PUSHW[ ]	/* 1 value pushed */\0120 \012RCVT[ ]	/* ReadCVT */\012IF[ ]	/* If */\012PUSHW[ ]	/* 1 value pushed */\01255 \012MDAP[1]	/* MoveDirectAbsPt */\012ELSE[ ]	/* Else */\012PUSHW[ ]	/* 2 values pushed */\01255 7 \012MIAP[0]	/* MoveIndirectAbsPt */\012EIF[ ]	/* EndIf */\012PUSHW[ ]	/* 1 value pushed */\0120 \012RCVT[ ]	/* ReadCVT */\012IF[ ]	/* If */\012PUSHW[ ]	/* 1 value pushed */\01274 \012MDAP[1]	/* MoveDirectAbsPt */\012ELSE[ ]	/* Else */\012PUSHW[ ]	/* 2 values pushed */\01274 7 \012MIAP[0]	/* MoveIndirectAbsPt */\012EIF[ ]	/* EndIf */\012PUSHW[ ]	/* 3 values pushed */\0120 46 64 \012SRP1[ ]	/* SetRefPoint1 */\012SRP2[ ]	/* SetRefPoint2 */\012IP[ ]	/* InterpolatePts */\012PUSHW[ ]	/* 3 values pushed */\01211 46 64 \012SRP1[ ]	/* SetRefPoint1 */\012SRP2[ ]	/* SetRefPoint2 */\012IP[ ]	/* InterpolatePts */\012PUSHW[ ]	/* 3 values pushed */\01220 46 64 \012SRP1[ ]	/* SetRefPoint1 */\012SRP2[ ]	/* SetRefPoint2 */\012IP[ ]	/* InterpolatePts */\012PUSHW[ ]	/* 3 values pushed */\01231 46 64 \012SRP1[ ]	/* SetRefPoint1 */\012SRP2[ ]	/* SetRefPoint2 */\012IP[ ]	/* InterpolatePts */\012PUSHW[ ]	/* 3 values pushed */\01242 46 64 \012SRP1[ ]	/* SetRefPoint1 */\012SRP2[ ]	/* SetRefPoint2 */\012IP[ ]	/* InterpolatePts */\012PUSHW[ ]	/* 3 values pushed */\01245 46 64 \012SRP1[ ]	/* SetRefPoint1 */\012SRP2[ ]	/* SetRefPoint2 */\012IP[ ]	/* InterpolatePts */\012PUSHW[ ]	/* 3 values pushed */\01259 46 64 \012SRP1[ ]	/* SetRefPoint1 */\012SRP2[ ]	/* SetRefPoint2 */\012IP[ ]	/* InterpolatePts */\012PUSHW[ ]	/* 3 values pushed */\01267 46 64 \012SRP1[ ]	/* SetRefPoint1 */\012SRP2[ ]	/* SetRefPoint2 */\012IP[ ]	/* InterpolatePts */\012IUP[0]	/* InterpolateUntPts */\012IUP[1]	/* InterpolateUntPts */";
};
width = 581;
}
);
leftKerningGroup = n;
leftMetricsKey = n;
note = m;
rightKerningGroup = n;
rightMetricsKey = n;
unicode = 006D;
},
{
glyphname = n;
lastChange = "2021-11-30 13:29:00 +0000";
layers = (
{
anchors = (
{
name = bottom;
position = "{159, 0}";
},
{
name = top;
position = "{229, 495}";
}
);
background = {
anchors = (
{
name = bottom;
position = "{144, 0}";
},
{
name = top;
position = "{214, 495}";
}
);
paths = (
{
closed = 1;
nodes = (
"127 0 LINE",
"182 390 LINE",
"186 392 OFFCURVE",
"194 393 OFFCURVE",
"199 393 CURVE SMOOTH",
"211 393 OFFCURVE",
"215 383 OFFCURVE",
"212 365 CURVE SMOOTH",
"161 0 LINE",
"317 0 LINE",
"369 371 LINE SMOOTH",
"381 457 OFFCURVE",
"365 502 OFFCURVE",
"277 502 CURVE SMOOTH",
"234 502 OFFCURVE",
"194 471 OFFCURVE",
"176 430 CURVE",
"173 495 LINE",
"40 495 LINE",
"-29 0 LINE"
);
}
);
};
layerId = "DE28931B-8CFB-452E-AAB2-BC9BAE33C973";
paths = (
{
closed = 1;
nodes = (
"146 0 LINE",
"198 373 LINE",
"198 380 OFFCURVE",
"207 391 OFFCURVE",
"218 391 CURVE SMOOTH",
"227 391 OFFCURVE",
"232 390 OFFCURVE",
"232 379 CURVE SMOOTH",
"232 377 OFFCURVE",
"232 374 OFFCURVE",
"231 370 CURVE SMOOTH",
"180 0 LINE",
"336 0 LINE",
"393 408 LINE SMOOTH",
"394 417 OFFCURVE",
"395 425 OFFCURVE",
"395 433 CURVE SMOOTH",
"395 477 OFFCURVE",
"375 502 OFFCURVE",
"324 502 CURVE SMOOTH",
"257 502 OFFCURVE",
"210 451 OFFCURVE",
"192 406 CURVE",
"193 495 LINE",
"60 495 LINE",
"-9 0 LINE"
);
},
{
closed = 1;
nodes = (
"97 240 LINE",
"129 429 LINE",
"133 429 LINE",
"110 240 LINE",
"77 47 LINE",
"73 47 LINE"
);
},
{
closed = 1;
nodes = (
"287 245 LINE",
"312 399 LINE SMOOTH",
"315 420 OFFCURVE",
"311 447 OFFCURVE",
"282 447 CURVE SMOOTH",
"267 447 OFFCURVE",
"249 441 OFFCURVE",
"236 432 CURVE",
"237 434 LINE",
"249 443 OFFCURVE",
"267 449 OFFCURVE",
"282 449 CURVE SMOOTH",
"307 449 OFFCURVE",
"319 434 OFFCURVE",
"319 410 CURVE SMOOTH",
"319 407 OFFCURVE",
"319 403 OFFCURVE",
"318 399 CURVE SMOOTH",
"300 245 LINE",
"266 47 LINE",
"262 47 LINE"
);
}
);
userData = {
assembly = "SVTCA[0]	/* SetFreedomAndProjectionVectorToAxis */\012PUSHW[ ]	/* 1 value pushed */\0120 \012RCVT[ ]	/* ReadCVT */\012IF[ ]	/* If */\012PUSHW[ ]	/* 1 value pushed */\01237 \012MDAP[1]	/* MoveDirectAbsPt */\012ELSE[ ]	/* Else */\012PUSHW[ ]	/* 2 values pushed */\01237 11 \012MIAP[0]	/* MoveIndirectAbsPt */\012EIF[ ]	/* EndIf */\012PUSHW[ ]	/* 1 value pushed */\0120 \012RCVT[ ]	/* ReadCVT */\012IF[ ]	/* If */\012PUSHW[ ]	/* 1 value pushed */\01244 \012MDAP[1]	/* MoveDirectAbsPt */\012ELSE[ ]	/* Else */\012PUSHW[ ]	/* 2 values pushed */\01244 11 \012MIAP[0]	/* MoveIndirectAbsPt */\012EIF[ ]	/* EndIf */\012PUSHW[ ]	/* 1 value pushed */\0120 \012RCVT[ ]	/* ReadCVT */\012IF[ ]	/* If */\012PUSHW[ ]	/* 1 value pushed */\01226 \012MDAP[1]	/* MoveDirectAbsPt */\012ELSE[ ]	/* Else */\012PUSHW[ ]	/* 2 values pushed */\01226 7 \012MIAP[0]	/* MoveIndirectAbsPt */\012EIF[ ]	/* EndIf */\012PUSHW[ ]	/* 1 value pushed */\0120 \012RCVT[ ]	/* ReadCVT */\012IF[ ]	/* If */\012PUSHW[ ]	/* 1 value pushed */\01235 \012MDAP[1]	/* MoveDirectAbsPt */\012ELSE[ ]	/* Else */\012PUSHW[ ]	/* 2 values pushed */\01235 7 \012MIAP[0]	/* MoveIndirectAbsPt */\012EIF[ ]	/* EndIf */\012PUSHW[ ]	/* 3 values pushed */\0120 26 44 \012SRP1[ ]	/* SetRefPoint1 */\012SRP2[ ]	/* SetRefPoint2 */\012IP[ ]	/* InterpolatePts */\012PUSHW[ ]	/* 3 values pushed */\01211 26 44 \012SRP1[ ]	/* SetRefPoint1 */\012SRP2[ ]	/* SetRefPoint2 */\012IP[ ]	/* InterpolatePts */\012PUSHW[ ]	/* 3 values pushed */\01222 26 44 \012SRP1[ ]	/* SetRefPoint1 */\012SRP2[ ]	/* SetRefPoint2 */\012IP[ ]	/* InterpolatePts */\012PUSHW[ ]	/* 3 values pushed */\01225 26 44 \012SRP1[ ]	/* SetRefPoint1 */\012SRP2[ ]	/* SetRefPoint2 */\012IP[ ]	/* InterpolatePts */\012PUSHW[ ]	/* 3 values pushed */\01239 26 44 \012SRP1[ ]	/* SetRefPoint1 */\012SRP2[ ]	/* SetRefPoint2 */\012IP[ ]	/* InterpolatePts */\012IUP[0]	/* InterpolateUntPts */\012IUP[1]	/* InterpolateUntPts */";
};
width = 391;
}
);
leftKerningGroup = n;
note = n;
rightKerningGroup = n;
unicode = 006E;
},
{
glyphname = eng;
lastChange = "2021-11-30 13:29:00 +0000";
layers = (
{
background = {
paths = (
{
closed = 1;
nodes = (
"194 -119 OFFCURVE",
"284 -77 OFFCURVE",
"304 66 CURVE SMOOTH",
"347 371 LINE SMOOTH",
"359 458 OFFCURVE",
"343 502 OFFCURVE",
"255 502 CURVE SMOOTH",
"212 502 OFFCURVE",
"172 471 OFFCURVE",
"154 430 CURVE",
"151 495 LINE",
"18 495 LINE",
"-51 0 LINE",
"105 0 LINE",
"160 390 LINE",
"164 393 OFFCURVE",
"172 393 OFFCURVE",
"177 393 CURVE SMOOTH",
"188 393 OFFCURVE",
"193 384 OFFCURVE",
"190 365 CURVE SMOOTH",
"140 6 LINE SMOOTH",
"137 -15 OFFCURVE",
"121 -32 OFFCURVE",
"90 -32 CURVE SMOOTH",
"89 -32 OFFCURVE",
"56 -32 OFFCURVE",
"54 -32 CURVE",
"44 -109 LINE",
"63 -113 OFFCURVE",
"82 -116 OFFCURVE",
"102 -116 CURVE SMOOTH"
);
}
);
};
layerId = "DE28931B-8CFB-452E-AAB2-BC9BAE33C973";
paths = (
{
closed = 1;
nodes = (
"108 -113 OFFCURVE",
"130 -116 OFFCURVE",
"151 -116 CURVE SMOOTH",
"250 -116 OFFCURVE",
"328 -66 OFFCURVE",
"346 66 CURVE SMOOTH",
"389 371 LINE SMOOTH",
"391 387 OFFCURVE",
"393 402 OFFCURVE",
"393 415 CURVE SMOOTH",
"393 473 OFFCURVE",
"369 502 OFFCURVE",
"297 502 CURVE SMOOTH",
"254 502 OFFCURVE",
"215 471 OFFCURVE",
"196 430 CURVE",
"193 495 LINE",
"60 495 LINE",
"-9 0 LINE",
"147 0 LINE",
"202 390 LINE",
"206 393 OFFCURVE",
"214 393 OFFCURVE",
"219 393 CURVE SMOOTH",
"228 393 OFFCURVE",
"233 387 OFFCURVE",
"233 376 CURVE SMOOTH",
"233 373 OFFCURVE",
"233 369 OFFCURVE",
"232 365 CURVE SMOOTH",
"182 6 LINE SMOOTH",
"179 -15 OFFCURVE",
"153 -32 OFFCURVE",
"132 -32 CURVE SMOOTH",
"96 -32 LINE",
"85 -109 LINE"
);
},
{
closed = 1;
nodes = (
"97 240 LINE",
"128 429 LINE",
"132 429 LINE",
"110 240 LINE",
"77 47 LINE",
"73 47 LINE"
);
},
{
closed = 1;
nodes = (
"174 -60 LINE",
"225 -60 OFFCURVE",
"253 -23 OFFCURVE",
"258 25 CURVE SMOOTH",
"286 245 LINE",
"312 399 LINE SMOOTH",
"315 420 OFFCURVE",
"308 447 OFFCURVE",
"281 447 CURVE SMOOTH",
"266 447 OFFCURVE",
"250 442 OFFCURVE",
"235 432 CURVE",
"236 434 LINE",
"248 443 OFFCURVE",
"266 449 OFFCURVE",
"281 449 CURVE SMOOTH",
"309 449 OFFCURVE",
"321 430 OFFCURVE",
"318 399 CURVE SMOOTH",
"299 245 LINE",
"265 21 LINE SMOOTH",
"259 -18 OFFCURVE",
"229 -66 OFFCURVE",
"174 -61 CURVE"
);
}
);
userData = {
assembly = "SVTCA[0]	/* SetFreedomAndProjectionVectorToAxis */\012PUSHW[ ]	/* 1 value pushed */\0120 \012RCVT[ ]	/* ReadCVT */\012IF[ ]	/* If */\012PUSHW[ ]	/* 1 value pushed */\01252 \012MDAP[1]	/* MoveDirectAbsPt */\012ELSE[ ]	/* Else */\012PUSHW[ ]	/* 2 values pushed */\01252 11 \012MIAP[0]	/* MoveIndirectAbsPt */\012EIF[ ]	/* EndIf */\012PUSHW[ ]	/* 1 value pushed */\0120 \012RCVT[ ]	/* ReadCVT */\012IF[ ]	/* If */\012PUSHW[ ]	/* 1 value pushed */\01257 \012MDAP[1]	/* MoveDirectAbsPt */\012ELSE[ ]	/* Else */\012PUSHW[ ]	/* 2 values pushed */\01257 11 \012MIAP[0]	/* MoveIndirectAbsPt */\012EIF[ ]	/* EndIf */\012PUSHW[ ]	/* 1 value pushed */\0120 \012RCVT[ ]	/* ReadCVT */\012IF[ ]	/* If */\012PUSHW[ ]	/* 1 value pushed */\01243 \012MDAP[1]	/* MoveDirectAbsPt */\012ELSE[ ]	/* Else */\012PUSHW[ ]	/* 2 values pushed */\01243 7 \012MIAP[0]	/* MoveIndirectAbsPt */\012EIF[ ]	/* EndIf */\012PUSHW[ ]	/* 1 value pushed */\0120 \012RCVT[ ]	/* ReadCVT */\012IF[ ]	/* If */\012PUSHW[ ]	/* 1 value pushed */\01250 \012MDAP[1]	/* MoveDirectAbsPt */\012ELSE[ ]	/* Else */\012PUSHW[ ]	/* 2 values pushed */\01250 7 \012MIAP[0]	/* MoveIndirectAbsPt */\012EIF[ ]	/* EndIf */\012PUSHW[ ]	/* 1 value pushed */\01257 \012SRP0[ ]	/* SetRefPoint0 */\012PUSHW[ ]	/* 2 values pushed */\01246 1 \012MIRP[10100]	/* MoveIndirectRelPt */\012NPUSHW[ ]	/* 5 values pushed */\012121 46 137 46 2 \012DELTAP1[ ]	/* DeltaExceptionP1 */\012NPUSHW[ ]	/* 15 values pushed */\0128 46 24 46 40 46 56 46 72 46 88 46 104 46 7 \012DELTAP1[ ]	/* DeltaExceptionP1 */\012PUSHW[ ]	/* 3 values pushed */\0128 57 46 \012SRP1[ ]	/* SetRefPoint1 */\012SRP2[ ]	/* SetRefPoint2 */\012IP[ ]	/* InterpolatePts */\012PUSHW[ ]	/* 3 values pushed */\01229 50 57 \012SRP1[ ]	/* SetRefPoint1 */\012SRP2[ ]	/* SetRefPoint2 */\012IP[ ]	/* InterpolatePts */\012PUSHW[ ]	/* 3 values pushed */\01232 57 46 \012SRP1[ ]	/* SetRefPoint1 */\012SRP2[ ]	/* SetRefPoint2 */\012IP[ ]	/* InterpolatePts */\012PUSHW[ ]	/* 3 values pushed */\01254 57 46 \012SRP1[ ]	/* SetRefPoint1 */\012SRP2[ ]	/* SetRefPoint2 */\012IP[ ]	/* InterpolatePts */\012IUP[0]	/* InterpolateUntPts */\012IUP[1]	/* InterpolateUntPts */";
};
width = 392;
}
);
leftKerningGroup = n;
leftMetricsKey = n;
rightKerningGroup = n;
rightMetricsKey = n;
unicode = 014B;
},
{
glyphname = o;
lastChange = "2021-11-30 13:29:00 +0000";
layers = (
{
anchors = (
{
name = bottom;
position = "{157, 0}";
},
{
name = center;
position = "{167, 248}";
},
{
name = ogonek;
position = "{230, 0}";
},
{
name = top;
position = "{230, 495}";
},
{
name = topright;
position = "{283, 495}";
}
);
background = {
anchors = (
{
name = bottom;
position = "{130, 0}";
},
{
name = center;
position = "{165, 248}";
},
{
name = ogonek;
position = "{206, 0}";
},
{
name = top;
position = "{200, 495}";
},
{
name = topright;
position = "{259, 495}";
}
);
paths = (
{
closed = 1;
nodes = (
"235 -8 OFFCURVE",
"305 11 OFFCURVE",
"327 171 CURVE SMOOTH",
"354 363 LINE SMOOTH",
"369 470 OFFCURVE",
"312 503 OFFCURVE",
"201 503 CURVE SMOOTH",
"90 503 OFFCURVE",
"23 470 OFFCURVE",
"8 363 CURVE SMOOTH",
"-19 170 LINE SMOOTH",
"-41 11 OFFCURVE",
"23 -8 OFFCURVE",
"129 -8 CURVE SMOOTH"
);
},
{
closed = 1;
nodes = (
"132 82 OFFCURVE",
"126 89 OFFCURVE",
"129 112 CURVE SMOOTH",
"167 383 LINE SMOOTH",
"170 406 OFFCURVE",
"178 413 OFFCURVE",
"188 413 CURVE SMOOTH",
"198 413 OFFCURVE",
"204 406 OFFCURVE",
"201 383 CURVE SMOOTH",
"163 112 LINE SMOOTH",
"160 89 OFFCURVE",
"152 82 OFFCURVE",
"142 82 CURVE SMOOTH"
);
}
);
};
layerId = "DE28931B-8CFB-452E-AAB2-BC9BAE33C973";
paths = (
{
closed = 1;
nodes = (
"276 -12 OFFCURVE",
"334 18 OFFCURVE",
"355 167 CURVE SMOOTH",
"384 373 LINE SMOOTH",
"385 383 OFFCURVE",
"386 392 OFFCURVE",
"386 400 CURVE SMOOTH",
"386 478 OFFCURVE",
"328 503 OFFCURVE",
"229 503 CURVE SMOOTH",
"118 503 OFFCURVE",
"52 472 OFFCURVE",
"38 373 CURVE SMOOTH",
"9 166 LINE SMOOTH",
"6 145 OFFCURVE",
"4 126 OFFCURVE",
"4 109 CURVE SMOOTH",
"4 10 OFFCURVE",
"57 -12 OFFCURVE",
"157 -12 CURVE SMOOTH"
);
},
{
closed = 1;
nodes = (
"101 31 OFFCURVE",
"77 53 OFFCURVE",
"77 103 CURVE SMOOTH",
"77 109 OFFCURVE",
"77 115 OFFCURVE",
"78 122 CURVE SMOOTH",
"92 245 LINE",
"115 383 LINE SMOOTH",
"122 424 OFFCURVE",
"141 457 OFFCURVE",
"192 457 CURVE",
"192 455 LINE",
"146 455 OFFCURVE",
"127 420 OFFCURVE",
"123 383 CURVE SMOOTH",
"107 245 LINE",
"87 125 LINE SMOOTH",
"85 115 OFFCURVE",
"84 105 OFFCURVE",
"84 97 CURVE SMOOTH",
"84 55 OFFCURVE",
"104 32 OFFCURVE",
"136 30 CURVE",
"136 28 LINE"
);
},
{
closed = 1;
nodes = (
"163 68 OFFCURVE",
"159 70 OFFCURVE",
"157 75 CURVE SMOOTH",
"155 78 OFFCURVE",
"154 82 OFFCURVE",
"154 87 CURVE SMOOTH",
"154 91 OFFCURVE",
"154 94 OFFCURVE",
"155 98 CURVE SMOOTH",
"196 393 LINE SMOOTH",
"199 416 OFFCURVE",
"207 423 OFFCURVE",
"218 423 CURVE SMOOTH",
"223 423 OFFCURVE",
"227 421 OFFCURVE",
"230 417 CURVE SMOOTH",
"231 415 OFFCURVE",
"232 411 OFFCURVE",
"232 407 CURVE SMOOTH",
"232 403 OFFCURVE",
"231 399 OFFCURVE",
"230 393 CURVE SMOOTH",
"189 98 LINE SMOOTH",
"186 75 OFFCURVE",
"179 68 OFFCURVE",
"168 68 CURVE SMOOTH"
);
},
{
closed = 1;
nodes = (
"187 30 LINE",
"228 33 OFFCURVE",
"257 65 OFFCURVE",
"264 125 CURVE SMOOTH",
"278 245 LINE",
"300 383 LINE SMOOTH",
"301 391 OFFCURVE",
"302 398 OFFCURVE",
"302 405 CURVE SMOOTH",
"302 434 OFFCURVE",
"290 455 OFFCURVE",
"251 455 CURVE",
"251 457 LINE",
"296 457 OFFCURVE",
"309 432 OFFCURVE",
"309 398 CURVE SMOOTH",
"309 393 OFFCURVE",
"309 388 OFFCURVE",
"308 383 CURVE SMOOTH",
"293 245 LINE",
"271 122 LINE SMOOTH",
"260 59 OFFCURVE",
"228 31 OFFCURVE",
"187 28 CURVE"
);
}
);
width = 386;
}
);
leftKerningGroup = o;
note = o;
rightKerningGroup = o;
unicode = 006F;
},
{
glyphname = oslash;
lastChange = "2021-11-30 13:29:00 +0000";
layers = (
{
anchors = (
{
name = top;
position = "{229, 495}";
}
);
background = {
components = (
{
name = o;
transform = "{1, 0, 0, 1, -17, 0}";
}
);
paths = (
{
closed = 1;
nodes = (
"26 -44 LINE",
"382 523 LINE",
"328 523 LINE",
"-27 -44 LINE"
);
}
);
};
layerId = "DE28931B-8CFB-452E-AAB2-BC9BAE33C973";
paths = (
{
closed = 1;
nodes = (
"44 -44 LINE",
"72 0 LINE",
"97 -11 OFFCURVE",
"129 -12 OFFCURVE",
"166 -12 CURVE SMOOTH",
"285 -12 OFFCURVE",
"343 18 OFFCURVE",
"364 167 CURVE SMOOTH",
"393 373 LINE SMOOTH",
"394 382 OFFCURVE",
"395 391 OFFCURVE",
"395 399 CURVE SMOOTH",
"395 427 OFFCURVE",
"387 448 OFFCURVE",
"373 464 CURVE",
"436 560 LINE",
"369 560 LINE",
"326 493 LINE",
"302 500 OFFCURVE",
"273 503 OFFCURVE",
"238 503 CURVE SMOOTH",
"127 503 OFFCURVE",
"61 472 OFFCURVE",
"47 373 CURVE SMOOTH",
"18 166 LINE SMOOTH",
"15 145 OFFCURVE",
"14 127 OFFCURVE",
"14 110 CURVE SMOOTH",
"14 77 OFFCURVE",
"19 52 OFFCURVE",
"29 35 CURVE",
"-21 -44 LINE"
);
},
{
closed = 1;
nodes = (
"172 68 OFFCURVE",
"168 70 OFFCURVE",
"166 75 CURVE SMOOTH",
"164 78 OFFCURVE",
"163 82 OFFCURVE",
"163 87 CURVE SMOOTH",
"163 91 OFFCURVE",
"163 94 OFFCURVE",
"164 98 CURVE SMOOTH",
"173 163 LINE",
"217 230 LINE",
"198 98 LINE SMOOTH",
"195 75 OFFCURVE",
"188 68 OFFCURVE",
"177 68 CURVE SMOOTH"
);
},
{
closed = 1;
nodes = (
"110 31 OFFCURVE",
"86 53 OFFCURVE",
"86 103 CURVE SMOOTH",
"86 109 OFFCURVE",
"86 115 OFFCURVE",
"87 122 CURVE SMOOTH",
"101 245 LINE",
"124 383 LINE SMOOTH",
"131 424 OFFCURVE",
"150 457 OFFCURVE",
"201 457 CURVE",
"201 455 LINE",
"155 455 OFFCURVE",
"136 420 OFFCURVE",
"132 383 CURVE SMOOTH",
"116 245 LINE",
"96 125 LINE SMOOTH",
"94 115 OFFCURVE",
"93 105 OFFCURVE",
"93 97 CURVE SMOOTH",
"93 55 OFFCURVE",
"113 32 OFFCURVE",
"145 30 CURVE",
"145 28 LINE"
);
},
{
closed = 1;
nodes = (
"200 30 LINE",
"241 33 OFFCURVE",
"270 65 OFFCURVE",
"277 125 CURVE SMOOTH",
"291 245 LINE",
"313 383 LINE SMOOTH",
"314 391 OFFCURVE",
"315 398 OFFCURVE",
"315 405 CURVE SMOOTH",
"315 434 OFFCURVE",
"303 455 OFFCURVE",
"264 455 CURVE",
"264 457 LINE",
"309 457 OFFCURVE",
"322 432 OFFCURVE",
"322 398 CURVE SMOOTH",
"322 393 OFFCURVE",
"322 388 OFFCURVE",
"321 383 CURVE SMOOTH",
"306 245 LINE",
"284 122 LINE SMOOTH",
"273 59 OFFCURVE",
"241 31 OFFCURVE",
"200 28 CURVE"
);
},
{
closed = 1;
nodes = (
"205 393 LINE SMOOTH",
"208 416 OFFCURVE",
"216 423 OFFCURVE",
"227 423 CURVE SMOOTH",
"232 423 OFFCURVE",
"236 421 OFFCURVE",
"239 417 CURVE SMOOTH",
"240 415 OFFCURVE",
"241 411 OFFCURVE",
"241 407 CURVE SMOOTH",
"241 403 OFFCURVE",
"240 399 OFFCURVE",
"239 393 CURVE SMOOTH",
"231 335 LINE",
"188 268 LINE"
);
}
);
userData = {
assembly = "PUSHW[ ]	/* 4 values pushed */\01210 5 30 4 \012CALL[ ]	/* CallFunction */\012PUSHW[ ]	/* 1 value pushed */\01210 \012SRP0[ ]	/* SetRefPoint0 */\012PUSHW[ ]	/* 1 value pushed */\01215 \012MDRP[10000]	/* MoveDirectRelPt */\012PUSHW[ ]	/* 1 value pushed */\01215 \012MDAP[1]	/* MoveDirectAbsPt */\012PUSHW[ ]	/* 1 value pushed */\01210 \012SRP0[ ]	/* SetRefPoint0 */\012PUSHW[ ]	/* 1 value pushed */\01285 \012MDRP[11100]	/* MoveDirectRelPt */\012IUP[0]	/* InterpolateUntPts */\012IUP[1]	/* InterpolateUntPts */";
};
width = 422;
}
);
note = oslash;
unicode = 00F8;
},
